<svg width="50" height="50" viewBox="0 0 50 50" fill="none" xmlns="http://www.w3.org/2000/svg">
<path d="M41.7285 14.0918L31.2207 3.58398C30.9277 3.29102 30.5322 3.125 30.1172 3.125H9.375C8.51074 3.125 7.8125 3.82324 7.8125 4.6875V45.3125C7.8125 46.1768 8.51074 46.875 9.375 46.875H40.625C41.4893 46.875 42.1875 46.1768 42.1875 45.3125V15.2002C42.1875 14.7852 42.0215 14.3848 41.7285 14.0918ZM29.3945 6.72852L38.584 15.918H29.3945V6.72852ZM38.6719 43.3594H11.3281V6.64062H26.0742V17.1875C26.0742 17.7314 26.2903 18.253 26.6749 18.6376C27.0595 19.0222 27.5811 19.2383 28.125 19.2383H38.6719V43.3594Z" fill="#509E82"/>
<path d="M26.167 28.5791C26.128 28.4961 26.0938 28.418 26.0596 28.3399C26.0547 28.3252 26.045 28.3057 26.0401 28.291L25.9522 28.0713C25.9473 28.0615 25.9473 28.0567 25.9424 28.0469L25.9473 28.0322L25.9571 27.9785C26.1524 27.1826 26.377 26.2549 26.4161 25.3223V25.2881C26.4307 24.8682 26.4063 24.4483 26.3184 24.0381C26.1329 22.9981 25.3663 22.5928 24.712 22.5635C24.1602 22.5391 23.6475 22.7588 23.3399 23.1201C23.335 23.125 23.335 23.1299 23.3301 23.1299C23.3204 23.1397 23.3106 23.1494 23.3057 23.1592C23.2032 23.291 23.125 23.4424 23.0811 23.6035C22.7588 24.7754 23.0469 26.377 23.5743 28.418C22.9102 30 21.8506 32.2949 21.0743 33.6621V33.667C19.7217 34.3652 17.9444 35.4151 17.4805 36.7383C17.4805 36.7432 17.4756 36.7481 17.4756 36.7529C17.4659 36.7871 17.4512 36.8213 17.4414 36.8555C17.4366 36.8652 17.4366 36.875 17.4317 36.8848C17.4219 36.9287 17.4073 36.9727 17.4024 37.0166C17.3584 37.2119 17.3829 37.4463 17.4659 37.6807C17.4952 37.7686 17.5293 37.8516 17.5733 37.9346C17.7539 38.2764 18.042 38.5401 18.3789 38.667C18.5254 38.7207 18.7012 38.7647 18.9063 38.7647C19.7657 38.7647 21.1573 38.0713 23.0127 34.8877C23.2959 34.7949 23.5889 34.6973 23.8721 34.5996C25.2002 34.1504 26.5772 33.6817 27.8223 33.4717C29.1993 34.209 30.7666 34.6826 31.8311 34.6826C32.8858 34.6826 33.3008 34.0576 33.4571 33.6817C33.7305 33.0225 33.5987 32.1924 33.1543 31.7481C33.0274 31.6211 32.8614 31.5137 32.6612 31.4258C32.6563 31.4209 32.6465 31.4209 32.6416 31.416C32.6172 31.4063 32.5879 31.3965 32.5635 31.3818C32.544 31.3721 32.5245 31.3672 32.5049 31.3574C32.4952 31.3526 32.4903 31.3526 32.4805 31.3477C31.6895 31.0645 30.4444 31.0205 28.7549 31.2109L28.4961 31.2402C28.252 31.0938 28.0274 30.9326 27.8174 30.7617C27.1241 30.21 26.5918 29.502 26.167 28.5791ZM19.1163 37.1582C19.4434 36.5576 20.083 35.9229 20.586 35.4639C19.9073 36.4502 19.3946 36.9434 19.1163 37.1582ZM24.7559 23.8672C24.795 23.8721 24.8291 23.9014 24.8633 23.9649C25.1172 24.3994 25.083 25.7129 24.8877 26.377C24.6485 25.4053 24.6143 24.0283 24.7559 23.8672ZM23.8184 33.0908C23.6133 33.1738 23.4131 33.2568 23.2178 33.335C23.8672 32.1582 24.4092 30.8252 24.7852 29.8486C25.3077 30.752 25.9668 31.5283 26.6944 32.1045C25.6397 32.3438 24.6778 32.7393 23.8184 33.0908ZM32.3829 33.0469C32.3877 33.0567 32.3926 33.0713 32.3633 33.0908H32.3536L32.3438 33.1055C32.3047 33.1299 31.9043 33.3643 30.1807 32.6856C32.1631 32.5928 32.378 33.042 32.3829 33.0469Z" fill="#509E82"/>
</svg>
