<svg xmlns="http://www.w3.org/2000/svg" xmlns:xlink="http://www.w3.org/1999/xlink" width="100" zoomAndPan="magnify" viewBox="0 0 75 74.999997" height="100" preserveAspectRatio="xMidYMid meet" version="1.0"><defs><clipPath id="47f88dba78"><path d="M 51.253906 7.5 L 67.183594 7.5 L 67.183594 23.46875 L 51.253906 23.46875 Z M 51.253906 7.5 " clip-rule="nonzero"/></clipPath><clipPath id="634c5641ff"><path d="M 51.253906 26.820312 L 67.183594 26.820312 L 67.183594 42.917969 L 51.253906 42.917969 Z M 51.253906 26.820312 " clip-rule="nonzero"/></clipPath><clipPath id="63aacdda6e"><path d="M 51.253906 46.265625 L 67.183594 46.265625 L 67.183594 62.246094 L 51.253906 62.246094 Z M 51.253906 46.265625 " clip-rule="nonzero"/></clipPath></defs><path fill="#41608b" d="M 10.871094 23.269531 C 12.988281 23.269531 14.707031 21.554688 14.707031 19.441406 C 14.707031 17.328125 12.988281 15.613281 10.871094 15.613281 C 8.75 15.613281 7.03125 17.328125 7.03125 19.441406 C 7.03125 21.554688 8.75 23.269531 10.871094 23.269531 " fill-opacity="1" fill-rule="nonzero"/><path fill="#41608b" d="M 11.019531 24.78125 C 11.132812 24.78125 11.226562 24.6875 11.226562 24.574219 L 11.226562 24.449219 C 11.226562 24.335938 11.132812 24.242188 11.019531 24.242188 L 10.722656 24.242188 C 10.609375 24.242188 10.515625 24.335938 10.515625 24.449219 L 10.515625 24.574219 C 10.515625 24.6875 10.609375 24.78125 10.722656 24.78125 L 11.019531 24.78125 " fill-opacity="1" fill-rule="nonzero"/><path fill="#41608b" d="M 10.296875 28.925781 L 10.84375 29.710938 C 10.855469 29.730469 10.882812 29.730469 10.898438 29.710938 L 11.445312 28.925781 C 11.449219 28.917969 11.453125 28.910156 11.453125 28.902344 L 11.164062 25.355469 C 11.160156 25.347656 11.15625 25.339844 11.152344 25.332031 L 10.894531 25.308594 C 10.878906 25.296875 10.859375 25.296875 10.847656 25.308594 L 10.589844 25.332031 C 10.582031 25.339844 10.578125 25.347656 10.578125 25.355469 L 10.289062 28.902344 C 10.289062 28.910156 10.289062 28.917969 10.296875 28.925781 " fill-opacity="1" fill-rule="nonzero"/><path fill="#41608b" d="M 17.753906 25.5625 C 17.71875 24.761719 17.058594 24.140625 16.265625 24.140625 L 13.871094 23.910156 C 13.652344 23.886719 13.460938 24.042969 13.375 24.242188 L 10.871094 31.601562 L 8.367188 24.242188 C 8.289062 24.023438 8.074219 23.890625 7.84375 23.910156 L 5.476562 24.140625 C 4.683594 24.140625 4.019531 24.761719 3.984375 25.5625 L 2.050781 38.90625 C 2.019531 39.675781 2.59375 40.359375 3.378906 40.445312 C 4.195312 40.535156 4.929688 39.945312 5.019531 39.128906 L 5.03125 39.03125 L 5.738281 32.644531 L 5.738281 51.566406 C 5.738281 52.832031 6.777344 53.871094 8.050781 53.871094 C 9.320312 53.871094 10.359375 52.832031 10.359375 51.566406 L 10.359375 41.796875 L 11.378906 41.796875 L 11.378906 51.566406 C 11.378906 52.832031 12.421875 53.871094 13.691406 53.871094 C 14.964844 53.871094 16.003906 52.832031 16.003906 51.566406 L 16.003906 32.644531 L 16.707031 39.03125 L 16.71875 39.128906 C 16.808594 39.945312 17.546875 40.535156 18.363281 40.445312 C 19.144531 40.359375 19.71875 39.675781 19.6875 38.90625 L 17.753906 25.5625 " fill-opacity="1" fill-rule="nonzero"/><path fill="#41608b" d="M 59.21875 16.222656 C 60.992188 16.222656 62.429688 14.789062 62.429688 13.019531 C 62.429688 11.253906 60.992188 9.816406 59.21875 9.816406 C 57.445312 9.816406 56.007812 11.253906 56.007812 13.019531 C 56.007812 14.789062 57.445312 16.222656 59.21875 16.222656 " fill-opacity="1" fill-rule="nonzero"/><g clip-path="url(#47f88dba78)"><path fill="#41608b" d="M 59.21875 8.660156 C 62.96875 8.660156 66.019531 11.703125 66.019531 15.441406 C 66.019531 16.914062 65.546875 18.28125 64.742188 19.394531 L 64.542969 18.011719 C 64.515625 17.394531 64.003906 16.914062 63.390625 16.914062 L 61.257812 16.707031 C 60.652344 17.039062 59.957031 17.230469 59.21875 17.230469 C 58.480469 17.230469 57.785156 17.039062 57.179688 16.707031 L 55.046875 16.914062 C 54.433594 16.914062 53.921875 17.394531 53.894531 18.011719 L 53.695312 19.394531 C 52.890625 18.28125 52.417969 16.914062 52.417969 15.441406 C 52.417969 11.703125 55.46875 8.660156 59.21875 8.660156 Z M 59.21875 23.386719 C 61.476562 23.386719 63.515625 22.445312 64.964844 20.933594 C 66.339844 19.507812 67.183594 17.570312 67.183594 15.441406 C 67.183594 11.0625 63.609375 7.5 59.21875 7.5 C 54.828125 7.5 51.253906 11.0625 51.253906 15.441406 C 51.253906 17.570312 52.097656 19.507812 53.472656 20.933594 C 54.921875 22.445312 56.960938 23.386719 59.21875 23.386719 " fill-opacity="1" fill-rule="nonzero"/></g><path fill="#41608b" d="M 59.21875 29.25 C 57.445312 29.25 56.007812 30.683594 56.007812 32.449219 C 56.007812 34.21875 57.445312 35.652344 59.21875 35.652344 C 60.992188 35.652344 62.429688 34.21875 62.429688 32.449219 C 62.429688 30.683594 60.992188 29.25 59.21875 29.25 " fill-opacity="1" fill-rule="nonzero"/><g clip-path="url(#634c5641ff)"><path fill="#41608b" d="M 64.742188 38.824219 L 64.542969 37.441406 C 64.515625 36.824219 64.003906 36.34375 63.390625 36.34375 L 61.257812 36.136719 C 60.652344 36.472656 59.957031 36.660156 59.21875 36.660156 C 58.480469 36.660156 57.785156 36.472656 57.179688 36.136719 L 55.046875 36.34375 C 54.433594 36.34375 53.921875 36.824219 53.894531 37.441406 L 53.695312 38.824219 C 52.890625 37.710938 52.417969 36.34375 52.417969 34.871094 C 52.417969 31.132812 55.46875 28.089844 59.21875 28.089844 C 62.96875 28.089844 66.019531 31.132812 66.019531 34.871094 C 66.019531 36.34375 65.546875 37.710938 64.742188 38.824219 Z M 59.21875 26.929688 C 54.828125 26.929688 51.253906 30.492188 51.253906 34.871094 C 51.253906 37 52.097656 38.9375 53.472656 40.367188 C 54.921875 41.875 56.960938 42.816406 59.21875 42.816406 C 61.476562 42.816406 63.515625 41.875 64.964844 40.367188 C 66.339844 38.9375 67.183594 37 67.183594 34.871094 C 67.183594 30.492188 63.609375 26.929688 59.21875 26.929688 " fill-opacity="1" fill-rule="nonzero"/></g><path fill="#41608b" d="M 59.21875 48.679688 C 57.445312 48.679688 56.007812 50.113281 56.007812 51.878906 C 56.007812 53.648438 57.445312 55.082031 59.21875 55.082031 C 60.992188 55.082031 62.429688 53.648438 62.429688 51.878906 C 62.429688 50.113281 60.992188 48.679688 59.21875 48.679688 " fill-opacity="1" fill-rule="nonzero"/><g clip-path="url(#63aacdda6e)"><path fill="#41608b" d="M 64.742188 58.253906 L 64.542969 56.871094 C 64.515625 56.253906 64.003906 55.773438 63.390625 55.773438 L 61.257812 55.566406 C 60.652344 55.902344 59.957031 56.089844 59.21875 56.089844 C 58.480469 56.089844 57.785156 55.902344 57.179688 55.566406 L 55.046875 55.773438 C 54.433594 55.773438 53.921875 56.253906 53.894531 56.871094 L 53.695312 58.253906 C 52.890625 57.140625 52.417969 55.773438 52.417969 54.304688 C 52.417969 50.5625 55.46875 47.519531 59.21875 47.519531 C 62.96875 47.519531 66.019531 50.5625 66.019531 54.304688 C 66.019531 55.773438 65.546875 57.140625 64.742188 58.253906 Z M 59.21875 46.359375 C 54.828125 46.359375 51.253906 49.921875 51.253906 54.304688 C 51.253906 56.433594 52.097656 58.367188 53.472656 59.796875 C 54.921875 61.304688 56.960938 62.246094 59.21875 62.246094 C 61.476562 62.246094 63.515625 61.304688 64.964844 59.796875 C 66.339844 58.367188 67.183594 56.433594 67.183594 54.304688 C 67.183594 49.921875 63.609375 46.359375 59.21875 46.359375 " fill-opacity="1" fill-rule="nonzero"/></g><path fill="#41608b" d="M 48.351562 16.511719 C 48.941406 16.511719 49.421875 16.03125 49.421875 15.441406 C 49.421875 14.851562 48.941406 14.375 48.351562 14.375 L 31.195312 14.375 C 30.605469 14.375 30.125 14.851562 30.125 15.441406 C 30.125 15.449219 30.125 15.453125 30.125 15.460938 C 30.125 15.46875 30.125 15.476562 30.125 15.484375 L 30.125 33.804688 L 24.941406 33.804688 C 24.351562 33.804688 23.871094 34.28125 23.871094 34.871094 C 23.871094 35.460938 24.351562 35.941406 24.941406 35.941406 L 30.125 35.941406 L 30.125 54 C 30.125 54.054688 30.128906 54.105469 30.136719 54.152344 C 30.128906 54.203125 30.125 54.25 30.125 54.304688 C 30.125 54.890625 30.605469 55.371094 31.195312 55.371094 L 48.351562 55.371094 C 48.941406 55.371094 49.421875 54.890625 49.421875 54.304688 C 49.421875 53.710938 48.941406 53.234375 48.351562 53.234375 L 32.265625 53.234375 L 32.265625 35.941406 L 48.351562 35.941406 C 48.941406 35.941406 49.421875 35.460938 49.421875 34.871094 C 49.421875 34.28125 48.941406 33.804688 48.351562 33.804688 L 32.265625 33.804688 L 32.265625 16.511719 L 48.351562 16.511719 " fill-opacity="1" fill-rule="nonzero"/></svg>