<svg width="40" height="40" viewBox="0 0 40 40" fill="none" xmlns="http://www.w3.org/2000/svg">
<g clip-path="url(#clip0_3_1774)">
<path d="M21.7676 3.75003C21.2988 3.28135 20.663 3.01807 20.0001 3.01807C19.3372 3.01807 18.7014 3.28135 18.2326 3.75003L1.61511 20.365C1.49889 20.4813 1.4067 20.6192 1.34381 20.7711C1.28091 20.9229 1.24854 21.0857 1.24854 21.25C1.24854 21.4144 1.28091 21.5771 1.34381 21.729C1.4067 21.8808 1.49889 22.0188 1.61511 22.135C1.84983 22.3697 2.16817 22.5016 2.50011 22.5016C2.66447 22.5016 2.82722 22.4692 2.97907 22.4063C3.13092 22.3434 3.26889 22.2513 3.38511 22.135L20.0001 5.51753L36.6151 22.135C36.8498 22.3697 37.1682 22.5016 37.5001 22.5016C37.8321 22.5016 38.1504 22.3697 38.3851 22.135C38.6198 21.9003 38.7517 21.582 38.7517 21.25C38.7517 20.9181 38.6198 20.5997 38.3851 20.365L32.5001 14.4825V6.25003C32.5001 5.91851 32.3684 5.60057 32.134 5.36615C31.8996 5.13173 31.5816 5.00003 31.2501 5.00003H28.7501C28.4186 5.00003 28.1006 5.13173 27.8662 5.36615C27.6318 5.60057 27.5001 5.91851 27.5001 6.25003V9.48253L21.7676 3.75003Z" fill="white"/>
<path d="M20 8.23242L31.8 20.0324C29.8276 20.2171 28.0083 21.1746 26.7394 22.6959C25.4705 24.2173 24.8551 26.1789 25.0275 28.1524C24.2597 28.5892 23.6214 29.2216 23.1774 29.9853C22.7334 30.7489 22.4997 31.6166 22.5 32.4999V37.4999H8.75C7.75544 37.4999 6.80161 37.1048 6.09835 36.4016C5.39509 35.6983 5 34.7445 5 33.7499V23.2324L20 8.23242Z" fill="white"/>
<path d="M32.5 22.5C31.1739 22.5 29.9021 23.0268 28.9645 23.9645C28.0268 24.9021 27.5 26.1739 27.5 27.5V30C26.837 30 26.2011 30.2634 25.7322 30.7322C25.2634 31.2011 25 31.837 25 32.5V37.5C25 38.163 25.2634 38.7989 25.7322 39.2678C26.2011 39.7366 26.837 40 27.5 40H37.5C38.163 40 38.7989 39.7366 39.2678 39.2678C39.7366 38.7989 40 38.163 40 37.5V32.5C40 31.837 39.7366 31.2011 39.2678 30.7322C38.7989 30.2634 38.163 30 37.5 30V27.5C37.5 26.1739 36.9732 24.9021 36.0355 23.9645C35.0979 23.0268 33.8261 22.5 32.5 22.5ZM32.5 25C33.163 25 33.7989 25.2634 34.2678 25.7322C34.7366 26.2011 35 26.837 35 27.5V30H30V27.5C30 26.837 30.2634 26.2011 30.7322 25.7322C31.2011 25.2634 31.837 25 32.5 25Z" fill="white"/>
</g>
<defs>
<clipPath id="clip0_3_1774">
<rect width="40" height="40" fill="white"/>
</clipPath>
</defs>
</svg>
