<svg width="80" height="80" viewBox="0 0 100 100" fill="none" xmlns="http://www.w3.org/2000/svg">
<path d="M55.3125 47.5312L50.1406 45.75L49.3281 48.1094L54.5 49.8906C54.6539 49.942 54.8164 49.9626 54.9782 49.9512C55.1401 49.9397 55.2981 49.8965 55.4432 49.8239C55.5883 49.7514 55.7177 49.6509 55.824 49.5283C55.9303 49.4057 56.0113 49.2633 56.0625 49.1094C56.1867 48.8038 56.1867 48.4618 56.0625 48.1562C55.9048 47.8571 55.6352 47.6324 55.3125 47.5312V47.5312Z" fill="#C585F7"/>
<path d="M50 35.9375C46.2704 35.9375 42.6935 37.4191 40.0563 40.0563C37.4191 42.6935 35.9375 46.2704 35.9375 50C35.9371 50.6536 35.9841 51.3063 36.0781 51.9531C36.1098 52.2419 36.1567 52.5287 36.2188 52.8125C36.2188 53.1094 36.3594 53.3906 36.4375 53.6875C36.5911 54.292 36.795 54.8826 37.0469 55.4531C37.1563 55.7188 37.2813 55.9687 37.4063 56.2187C37.5238 56.4751 37.6542 56.7254 37.7969 56.9687C39.032 59.1034 40.8068 60.8757 42.9432 62.1078C45.0796 63.34 47.5025 63.9886 49.9688 63.9886C52.435 63.9886 54.8579 63.34 56.9943 62.1078C59.1307 60.8757 60.9055 59.1034 62.1406 56.9687C62.2833 56.7254 62.4137 56.4751 62.5313 56.2187C62.6563 55.9687 62.7813 55.7188 62.8906 55.4531C63.1425 54.8826 63.3464 54.292 63.5 53.6875C63.5 53.3906 63.6563 53.1094 63.7188 52.8125C63.7808 52.5287 63.8277 52.2419 63.8594 51.9531C63.9743 51.3079 64.0422 50.6551 64.0625 50C64.0625 46.2704 62.5809 42.6935 59.9437 40.0563C57.3065 37.4191 53.7296 35.9375 50 35.9375V35.9375ZM55 57.9531C54.4021 58.2481 53.7448 58.4031 53.0781 58.4063C52.648 58.4076 52.2206 58.339 51.8125 58.2031L50.9531 60.7344L47.9844 59.7188L48.8438 57.2031V57.0312H48.2813L47.75 56.8594V57.0312L46.9531 59.375L44 58.3594L44.4531 57.0469L44.8594 55.8594L41.0156 54.5313L42.0313 51.5625L44.5469 52.4219L47.1875 44.7344L44.6719 43.875L45.6719 40.9219L49.5313 42.1875L50.3906 39.6719L53.3438 40.6875L52.4844 43.2031L53.5156 43.5469L54.375 41.0469L57.3281 42.0625L56.4688 44.5781C57.5245 44.9859 58.382 45.7856 58.8624 46.8104C59.3428 47.8351 59.4088 49.0058 59.0469 50.0781C58.7079 51.0552 58.0395 51.8839 57.1563 52.4219C57.5074 53.3857 57.5074 54.4424 57.1563 55.4062C56.9555 55.9936 56.6243 56.5278 56.1875 56.9687C55.8538 57.3653 55.4516 57.6987 55 57.9531V57.9531Z" fill="#C585F7"/>
<path d="M53.4844 52.8438L48.3125 51.0781L47.5 53.4375L52.6719 55.2031C52.9774 55.3273 53.3194 55.3273 53.625 55.2031C53.9219 55.0533 54.1508 54.7965 54.2656 54.4844C54.3611 54.1734 54.3333 53.8377 54.1878 53.5467C54.0423 53.2558 53.7904 53.032 53.4844 52.9219V52.8438Z" fill="#C585F7"/>
<path d="M96.875 21.875V3.125H78.125V10.9375H59.375V3.125H40.625V10.9375H21.875V3.125H3.125V21.875H10.9375V40.625H3.125V59.375H10.9375V78.125H3.125V96.875H21.875V89.0625H40.625V96.875H59.375V89.0625H78.125V96.875H96.875V78.125H89.0625V59.375H96.875V40.625H89.0625V21.875H96.875ZM85.9375 40.625H78.125V48.4375H64.0625V51.5625H78.125V59.375H85.9375V78.125H78.125V85.9375H59.375V78.125H51.5625V64.0625H48.4375V78.125H40.625V85.9375H21.875V78.125H14.0625V59.375H21.875V51.5625H35.9375V48.4375H21.875V40.625H14.0625V21.875H21.875V14.0625H40.625V21.875H48.4375V35.9375H51.5625V21.875H59.375V14.0625H78.125V21.875H85.9375V40.625Z" fill="#C585F7"/>
</svg>
