<svg width="100" height="100" viewBox="0 0 100 100" fill="none" xmlns="http://www.w3.org/2000/svg">
<path d="M69.4293 29.6834C71.1268 29.6834 72.5029 28.3073 72.5029 26.6098C72.5029 24.9122 71.1268 23.5361 69.4293 23.5361C67.7318 23.5361 66.3557 24.9122 66.3557 26.6098C66.3557 28.3073 67.7318 29.6834 69.4293 29.6834Z" fill="#4C7489"/>
<path d="M69.4348 39.292C69.8662 39.292 70.216 38.9422 70.216 38.5107C70.216 38.4986 70.2129 38.4875 70.2121 38.4756C70.9346 38.417 71.6338 38.2789 72.3018 38.0691C72.3066 38.0834 72.3086 38.098 72.3142 38.1125C72.4359 38.4185 72.7297 38.6051 73.0402 38.6051C73.1363 38.6051 73.234 38.5871 73.3291 38.5496C74.6482 38.0248 75.8289 37.251 76.8371 36.2492C77.1434 35.9451 77.1449 35.4506 76.841 35.1445C76.7025 35.0049 76.524 34.9318 76.342 34.9191C75.0428 32.4252 72.4353 30.722 69.4289 30.722C66.5373 30.722 64.0142 32.2974 62.6715 34.6367C61.3463 33.1013 60.5435 31.1125 60.5435 28.9406C60.5435 24.0943 64.5318 20.1515 69.4344 20.1515C74.3367 20.1515 78.3252 24.0943 78.3252 28.9406C78.3252 30.1459 78.083 31.3135 77.6053 32.4113C77.4332 32.8068 77.6141 33.2672 78.01 33.4394C78.4051 33.6111 78.8656 33.4304 79.0381 33.0347C79.6016 31.7392 79.8877 30.3619 79.8877 28.9408C79.8877 23.2328 75.1982 18.5892 69.4344 18.5892C63.6705 18.5892 58.981 23.2328 58.981 28.9408C58.981 34.6488 63.6707 39.292 69.4348 39.292Z" fill="#4C7489"/>
<path d="M93.108 1.61292H45.7691C44.8773 1.61292 44.0566 1.93069 43.4209 2.46213C42.9395 2.86311 42.5623 3.38713 42.3369 3.98499C42.1826 4.38811 42.0998 4.82463 42.0998 5.28245V37.2147C41.9465 37.21 41.7939 37.203 41.6395 37.203C33.7578 37.203 27.3684 43.5926 27.3684 51.474C27.3684 54.9908 28.6428 58.2082 30.7518 60.6957L30.7498 60.6977L29.6465 61.801L18.8535 72.592C18.0918 73.3557 18.0918 74.592 18.8535 75.3557C19.2363 75.7366 19.7344 75.926 20.2344 75.926C20.7344 75.926 21.2344 75.7366 21.6172 75.3557L32.5449 64.426L33.6619 63.3088C35.9393 64.8469 38.6846 65.7451 41.6395 65.7451C41.7941 65.7451 41.9471 65.7383 42.1004 65.7334C42.1002 65.7334 42.1 65.7334 42.0998 65.7334V94.7176C42.0998 96.7432 43.7436 98.3869 45.7691 98.3869H93.108C95.1336 98.3869 96.7773 96.7432 96.7773 94.7176V5.28225C96.7773 3.25666 95.1336 1.61292 93.108 1.61292ZM74.1219 4.73596H77.2469C77.6783 4.73596 78.0281 5.08577 78.0281 5.51721C78.0281 5.94866 77.6783 6.29846 77.2469 6.29846H74.1219C73.6904 6.29846 73.3406 5.94866 73.3406 5.51721C73.3406 5.08577 73.6904 4.73596 74.1219 4.73596ZM61.6219 4.73596H69.4344C69.8658 4.73596 70.2156 5.08577 70.2156 5.51721C70.2156 5.94866 69.8658 6.29846 69.4344 6.29846H61.6219C61.1904 6.29846 60.8406 5.94866 60.8406 5.51721C60.8406 5.08577 61.1904 4.73596 61.6219 4.73596ZM45.2166 12.2492C45.2166 11.5522 45.783 10.9856 46.4803 10.9856H92.3904C93.0877 10.9856 93.6543 11.552 93.6543 12.2492V79.7397H93.6504H88.0619V59.3979V45.966C88.0619 45.6426 87.7994 45.3801 87.476 45.3801H79.2533C78.9295 45.3801 78.6674 45.6426 78.6674 45.966V59.3979V79.7397H74.0375V68.7944V63.1535C74.0375 62.8301 73.775 62.5676 73.4516 62.5676H65.2309C64.907 62.5676 64.6449 62.8301 64.6449 63.1535V68.7944V79.7397H60.0154V53.719C60.0154 53.3947 59.7518 53.133 59.4295 53.133H57.5824C57.0842 57.9559 54.4387 62.151 50.6209 64.7434V79.7395H45.2166V65.2926C49.2602 64.2489 52.6064 61.476 54.4266 57.811C54.4277 57.8086 54.4289 57.8067 54.4301 57.8043C54.5305 57.6014 54.6262 57.3957 54.7174 57.1877C54.7186 57.185 54.7197 57.1826 54.7209 57.1799C54.8121 56.9711 54.8982 56.7598 54.9795 56.5459C54.9803 56.544 54.9811 56.542 54.9818 56.5403C55.0639 56.325 55.1402 56.1073 55.2119 55.8871C55.2119 55.8869 55.2119 55.8865 55.2123 55.8864C55.6641 54.4965 55.9107 53.0143 55.9107 51.4739C55.9107 44.8278 51.3674 39.2426 45.217 37.6551V12.2492H45.2166ZM41.6395 61.8389C35.9242 61.8389 31.2746 57.1891 31.2746 51.474C31.2746 45.759 35.9244 41.1092 41.6395 41.1092C47.3545 41.1092 52.0043 45.759 52.0043 51.474C52.0043 57.1891 47.3547 61.8389 41.6395 61.8389ZM69.4385 94.5922C68.3906 94.5922 67.541 93.7424 67.541 92.6946C67.541 91.6467 68.3906 90.7971 69.4385 90.7971C70.4863 90.7971 71.3359 91.6467 71.3359 92.6946C71.3359 93.7424 70.4865 94.5922 69.4385 94.5922ZM92.3904 87.5481H46.4803C45.783 87.5481 45.2166 86.9836 45.2166 86.2844V81.9547H93.6541V86.2844C93.6543 86.9836 93.0877 87.5481 92.3904 87.5481Z" fill="#4C7489"/>
<path d="M22.6572 23.4779H35.1713C35.6021 23.4779 35.9525 23.8283 35.9525 24.2592V33.6377C35.9525 34.0691 36.3023 34.4189 36.7338 34.4189C37.1652 34.4189 37.515 34.0691 37.515 33.6377V24.2592C37.515 22.9668 36.4635 21.9154 35.1713 21.9154H22.6572C22.2258 21.9154 21.876 22.2652 21.876 22.6967C21.876 23.1281 22.2258 23.4779 22.6572 23.4779ZM8.28145 27.7555C10.8053 27.7555 12.9031 25.8977 13.2797 23.4779H17.6668C18.0982 23.4779 18.448 23.1281 18.448 22.6967C18.448 22.2652 18.0982 21.9154 17.6668 21.9154H13.2799C12.9031 19.4955 10.8055 17.6377 8.28164 17.6377C5.49219 17.6377 3.22266 19.9072 3.22266 22.6967C3.22266 25.4861 5.49199 27.7555 8.28145 27.7555ZM8.28145 19.2002C10.2094 19.2002 11.7777 20.7688 11.7777 22.6967C11.7777 24.6246 10.2092 26.193 8.28145 26.193C6.35352 26.193 4.78496 24.6246 4.78496 22.6967C4.78496 20.7688 6.35352 19.2002 8.28145 19.2002ZM8.28145 46.06C10.8053 46.06 12.9031 44.2021 13.2797 41.7824H22.657C23.0885 41.7824 23.4383 41.4326 23.4383 41.0012C23.4383 40.5697 23.0885 40.2199 22.657 40.2199H13.2799C12.9031 37.8 10.8055 35.9422 8.28164 35.9422C5.49219 35.9422 3.22266 38.2117 3.22266 41.0012C3.22266 43.7906 5.49199 46.06 8.28145 46.06ZM8.28145 37.5045C10.2094 37.5045 11.7777 39.073 11.7777 41.001C11.7777 42.9289 10.2092 44.4973 8.28145 44.4973C6.35352 44.4973 4.78496 42.9289 4.78496 41.001C4.78496 39.073 6.35352 37.5045 8.28145 37.5045ZM23.4385 59.3057C23.4385 58.8742 23.0887 58.5244 22.6572 58.5244H13.2799C12.9031 56.1045 10.8055 54.2467 8.28164 54.2467C5.49219 54.2467 3.22266 56.5162 3.22266 59.3057C3.22266 62.0951 5.49219 64.3645 8.28164 64.3645C10.8055 64.3645 12.9033 62.5066 13.2799 60.0869H22.6572C23.0887 60.0869 23.4385 59.7371 23.4385 59.3057ZM8.28145 62.802C6.35352 62.802 4.78496 61.2336 4.78496 59.3057C4.78496 57.3777 6.35352 55.8092 8.28145 55.8092C10.2094 55.8092 11.7777 57.3777 11.7777 59.3057C11.7777 61.2336 10.2094 62.802 8.28145 62.802Z" fill="#4C7489"/>
<path d="M36.2381 53.3051C37.0336 53.3051 37.6785 52.6602 37.6785 51.8646C37.6785 51.0691 37.0336 50.4242 36.2381 50.4242C35.4426 50.4242 34.7977 51.0691 34.7977 51.8646C34.7977 52.6602 35.4426 53.3051 36.2381 53.3051Z" fill="#4C7489"/>
<path d="M41.566 53.3051C42.3615 53.3051 43.0064 52.6602 43.0064 51.8646C43.0064 51.0691 42.3615 50.4242 41.566 50.4242C40.7705 50.4242 40.1256 51.0691 40.1256 51.8646C40.1256 52.6602 40.7705 53.3051 41.566 53.3051Z" fill="#4C7489"/>
<path d="M46.894 53.3051C47.6895 53.3051 48.3344 52.6602 48.3344 51.8646C48.3344 51.0691 47.6895 50.4242 46.894 50.4242C46.0984 50.4242 45.4535 51.0691 45.4535 51.8646C45.4535 52.6602 46.0984 53.3051 46.894 53.3051Z" fill="#4C7489"/>
</svg>
