<svg width="120" height="120" viewBox="0 0 120 120" fill="none" xmlns="http://www.w3.org/2000/svg">
<path d="M60 3.75C48.8748 3.75 37.9995 7.049 28.7492 13.2298C19.4989 19.4107 12.2892 28.1957 8.0318 38.4741C3.77437 48.7524 2.66043 60.0624 4.83085 70.9738C7.00127 81.8853 12.3586 91.9081 20.2253 99.7748C28.092 107.641 38.1148 112.999 49.0262 115.169C59.9376 117.34 71.2476 116.226 81.526 111.968C91.8043 107.711 100.589 100.501 106.77 91.2508C112.951 82.0006 116.25 71.1252 116.25 60C116.25 45.0816 110.324 30.7742 99.7748 20.2252C89.2259 9.67632 74.9184 3.75 60 3.75V3.75ZM60 109.987C50.1134 109.987 40.4489 107.056 32.2285 101.563C24.0081 96.0704 17.601 88.2634 13.8176 79.1294C10.0342 69.9954 9.04424 59.9445 10.973 50.2479C12.9018 40.5513 17.6626 31.6444 24.6535 24.6535C31.6444 17.6626 40.5513 12.9018 50.2479 10.973C59.9446 9.04422 69.9954 10.0341 79.1294 13.8176C88.2634 17.601 96.0704 24.008 101.563 32.2284C107.056 40.4488 109.988 50.1134 109.988 60C109.968 73.2514 104.695 85.9544 95.3246 95.3246C85.9544 104.695 73.2514 109.968 60 109.987V109.987Z" fill="#509E82"/>
<path d="M52.1624 69.7124L40.1624 57.7124L34.8374 62.9999L52.1624 80.2874L88.5374 43.9124L83.2499 38.5874L52.1624 69.7124V69.7124Z" fill="#509E82"/>
</svg>
