<svg width="3840" height="150" viewBox="0 0 3840 150" fill="none" xmlns="http://www.w3.org/2000/svg">
<g clip-path="url(#clip0_3587_1222)">
<path d="M2137.19 88.4165C2132.75 90.1839 2128.14 91.0944 2123.21 91.148C2119.94 91.2015 2116.67 90.8266 2113.46 90.3446C2111.16 90.0233 2108.8 89.6483 2106.49 89.327C2104.62 89.0592 2102.69 89.0592 2100.82 89.4341C2099.21 89.7555 2097.71 90.2375 2096.21 90.8802C2094.17 91.7371 2092.24 92.7548 2090.42 93.8795C2088.23 95.2185 2086.08 96.611 2083.94 97.95C2081.85 99.2354 2079.76 100.574 2077.67 101.86C2075.96 102.931 2074.19 103.841 2072.31 104.591C2069.74 105.662 2067.06 106.252 2064.33 106.466C2062.4 106.573 2060.47 106.626 2058.55 106.573C2054.96 106.466 2051.37 106.305 2047.83 105.984H2047.78C2046.54 105.877 2045.31 105.716 2044.03 105.609C2042.63 105.502 2041.29 105.341 2039.95 105.18C2039.1 105.073 2038.19 105.02 2037.33 104.913C2037.06 104.859 2036.74 104.913 2036.47 104.698C2036.42 104.484 2036.37 104.216 2036.31 104.002C2035.99 101.86 2035.72 99.7174 2035.45 97.5215C2035.13 94.8436 2034.81 92.1656 2034.49 89.4877C2034.17 86.7026 2033.85 83.9711 2033.53 81.186C2033.26 78.7223 2032.99 76.2586 2032.72 73.7414C2032.72 73.5807 2032.67 73.42 2032.61 73.2058C2032.35 73.2058 2032.08 73.1522 2031.81 73.1522C2030.69 73.1522 2029.56 73.2058 2028.44 73.2058C2028.22 73.2058 2028.06 73.2058 2027.79 73.1522C2027.79 72.938 2027.74 72.7773 2027.74 72.6166C2027.74 71.117 2027.69 69.5638 2027.47 68.0641C2027.1 65.6004 2026.45 63.1903 2025.28 60.9408C2023.13 56.7097 2019.7 53.9782 2015.1 52.7463C2012.79 52.1572 2010.38 51.9965 2008.02 52.1036C2003.09 52.3178 1999.24 54.4066 1996.45 58.4771C1995.43 59.9767 1994.68 61.5835 1994.09 63.2438C1993.08 66.136 1992.54 69.1353 1992.38 72.1346C1992.38 72.456 1992.43 72.8309 1992.22 73.2058C1991.95 73.2058 1991.63 73.2593 1991.36 73.2593C1990.29 73.2593 1989.22 73.2593 1988.2 73.3129C1987.99 73.3129 1987.83 73.3665 1987.61 73.3665C1987.56 73.5807 1987.56 73.7949 1987.5 74.0092C1987.4 75.1339 1987.29 76.3122 1987.18 77.4369C1986.92 80.1684 1986.65 82.8464 1986.38 85.5779C1986.17 87.6667 1985.95 89.809 1985.79 91.8978C1985.58 94.1473 1985.36 96.3968 1985.2 98.6462C1985.04 100.735 1984.88 102.877 1984.72 104.966C1984.72 105.18 1984.67 105.341 1984.61 105.502C1982.74 105.877 1980.91 105.823 1979.09 105.448C1977.65 105.127 1976.31 104.591 1974.91 104.056C1973.9 103.627 1972.83 103.252 1971.75 102.877C1970.63 102.449 1969.45 102.181 1968.22 102.128C1965.43 101.913 1962.97 102.663 1960.61 104.056C1960.45 104.163 1960.34 104.27 1960.18 104.377C1959.11 105.502 1957.77 106.091 1956.32 106.519C1953.97 107.162 1951.61 107.216 1949.25 106.68C1947.81 106.359 1946.47 105.77 1945.29 104.913C1944.81 104.591 1944.54 104.163 1944.43 103.574C1944.06 101.217 1943.68 98.8605 1943.31 96.5039C1943.25 96.1825 1943.25 95.8076 1943.25 95.4863C1943.25 93.5046 1943.25 91.5229 1943.25 89.5412C1943.25 80.8111 1943.31 72.081 1943.31 63.2974C1943.31 62.9225 1943.25 62.5476 1943.2 62.1727C1942.77 59.7625 1942.34 57.2988 1941.91 54.8887C1941.32 51.6216 1940.73 48.408 1940.2 45.1409C1940.2 45.0874 1940.14 45.0338 1940.04 44.8731C1939.82 45.3552 1939.82 45.8372 1939.72 46.2657C1938.86 51.1931 1938.05 56.1205 1937.2 60.9944C1936.98 62.1191 1936.88 63.2438 1936.88 64.4221C1936.88 70.0994 1936.88 75.8302 1936.88 81.5074C1936.88 86.7562 1936.88 92.0585 1936.88 97.3073C1936.88 99.771 1936.5 102.235 1936.45 104.698C1936.45 104.966 1936.39 105.234 1936.39 105.448C1936.39 105.555 1936.34 105.662 1936.23 105.823C1936.13 105.609 1936.02 105.502 1935.97 105.395C1935.75 104.805 1935.54 104.216 1935.38 103.574C1935.27 103.038 1935.05 102.61 1934.79 102.181C1932.22 98.0571 1929.64 93.9331 1927.07 89.7555C1926.38 88.6307 1926.48 89.0056 1926.48 87.7738C1926.48 83.382 1926.48 78.9901 1926.48 74.5983C1926.48 74.1698 1926.48 73.7414 1926.38 73.3129C1925.63 69.5638 1924.88 65.7611 1924.13 62.012C1924.07 61.8513 1924.02 61.6371 1923.91 61.3693C1923.8 61.7977 1923.75 62.0655 1923.7 62.3333C1923.05 65.8147 1922.41 69.296 1921.77 72.8309C1921.66 73.42 1921.61 73.9556 1921.61 74.5448C1921.61 77.919 1921.61 81.2396 1921.61 84.6138C1921.61 84.9352 1921.66 85.2565 1921.55 85.5779C1921.45 85.5243 1921.29 85.5243 1921.23 85.5243C1917.21 84.0247 1913.2 82.4715 1909.12 80.9718C1909.07 80.222 1909.02 79.5257 1908.91 78.8295C1908.86 78.1332 1908.8 77.3834 1908.7 76.7407C1907.95 76.5264 1906.93 76.4193 1906.39 76.5264C1906.07 77.0085 1906.02 77.5976 1905.64 78.1332C1905.37 77.544 1905.16 77.062 1904.95 76.6335C1903.87 76.5264 1903.18 76.6335 1902.59 76.8478C1902.53 77.544 1902.53 78.2403 1902.48 78.9901C1902.43 79.74 1902.48 80.4898 1902.37 81.2396C1901.57 81.5074 1900.82 81.7752 1900.07 82.043C1896.91 83.1142 1893.8 84.2389 1890.64 85.3101C1890.37 85.4172 1890.16 85.5779 1889.84 85.4708C1889.73 85.1494 1889.78 84.7745 1889.78 84.4531C1889.78 81.2396 1889.73 77.9725 1889.73 74.759C1889.73 74.3841 1889.68 74.0092 1889.62 73.6343C1888.87 70.2065 1888.07 66.7787 1887.32 63.351C1887.27 63.1367 1887.21 62.9225 1887.1 62.5476C1887 62.8154 1886.89 62.976 1886.89 63.1367C1886.25 66.8323 1885.55 70.5278 1884.91 74.2234C1884.85 74.5983 1884.85 74.9732 1884.85 75.3481C1884.91 79.4186 1885.02 83.4355 1885.07 87.4524C1885.07 88.0416 1884.96 88.5772 1884.64 89.0592C1882.6 92.3263 1880.52 95.6469 1878.53 98.914C1877.84 100.092 1877.14 101.271 1876.44 102.449C1876.18 102.877 1875.96 103.359 1876.01 103.895C1876.01 104.056 1876.01 104.163 1875.96 104.323C1875.96 104.431 1875.85 104.538 1875.75 104.752C1875.69 104.323 1875.64 104.056 1875.59 103.788C1875.32 101.753 1875.1 99.771 1874.84 97.7357C1874.78 97.1466 1874.68 96.5574 1874.68 95.9147C1874.62 91.5229 1874.62 87.0775 1874.57 82.6857C1874.51 76.5264 1874.46 70.3672 1874.46 64.2079C1874.46 62.9225 1874.3 61.6906 1874.09 60.4588C1873.44 56.9239 1872.85 53.3354 1872.26 49.8006C1871.94 48.0331 1871.68 46.3192 1871.35 44.5518C1871.3 44.3911 1871.3 44.1769 1871.09 44.0162C1870.71 46.3728 1870.39 48.6758 1870.01 50.9253C1869.48 54.4602 1868.94 57.9951 1868.41 61.53C1868.35 62.0655 1868.25 62.5476 1868.25 63.0832C1868.25 72.938 1868.3 82.7928 1868.35 92.6476C1868.35 94.79 1868.35 96.9323 1868.14 99.0747C1867.98 100.467 1867.92 101.806 1867.66 103.145C1867.55 103.627 1867.39 104.163 1867.17 104.591C1866.91 105.18 1866.42 105.448 1865.78 105.448C1865.46 105.448 1865.09 105.395 1864.76 105.341C1863.91 105.18 1863.1 104.859 1862.35 104.484C1860.21 103.52 1858.07 102.61 1855.76 101.967C1853.67 101.324 1851.58 100.949 1849.44 100.681C1847.57 100.467 1845.8 100.789 1844.08 101.592C1843.33 101.967 1842.58 102.342 1841.89 102.77C1841.14 103.199 1840.39 103.681 1839.58 104.163C1838.51 104.805 1837.39 105.395 1836.21 105.877C1833.53 106.948 1830.85 107.109 1828.12 106.305C1827.96 106.252 1827.8 106.198 1827.64 106.144C1827.48 105.18 1827.64 104.163 1827.48 103.199C1827.21 103.092 1826.94 103.038 1826.73 102.931C1825.44 102.502 1824.31 101.86 1823.35 100.949C1822.44 100.039 1821.96 98.914 1821.8 97.6822C1821.69 96.6646 1822.12 95.9147 1823.03 95.4863C1823.4 95.3256 1823.83 95.2185 1824.26 95.1113C1824.53 95.0578 1824.8 95.0042 1825.06 95.0042C1825.28 94.0937 1825.33 92.3263 1825.12 91.7371C1824.96 91.7371 1824.8 91.7907 1824.64 91.7907C1823.62 92.0049 1822.6 92.2192 1821.58 92.4334C1821.05 92.5405 1820.56 92.3798 1820.08 92.2192C1819.71 92.0585 1819.65 91.63 1819.49 91.3087C1819.33 90.8802 1819.17 90.4517 1819.06 90.0233C1818.74 88.7914 1818.42 87.506 1818.21 86.2741C1817.56 82.5786 1817.24 78.883 1817.03 75.1875C1816.76 69.9922 1816.65 64.797 1816.71 59.6554C1816.71 59.4412 1816.71 59.1734 1816.76 58.9591C1816.81 58.5842 1816.98 58.3164 1817.35 58.2093C1817.46 58.1557 1817.56 58.1022 1817.62 58.1022C1817.83 56.549 1817.83 55.4242 1817.62 54.6744C1817.19 54.4602 1816.65 54.7815 1816.17 54.4066C1816.12 53.1748 1815.9 51.9429 1815.9 50.7111C1816.28 50.4968 1816.65 50.7111 1816.98 50.3897C1816.98 49.6934 1816.98 48.9436 1816.98 48.2474C1816.98 47.4975 1817.08 46.7477 1816.87 46.0514C1816.55 45.9979 1816.23 45.9443 1815.9 45.9443C1815.9 45.6765 1815.85 45.5159 1815.85 45.3016C1815.85 44.284 1815.8 43.2128 1815.8 42.1952C1815.8 41.2847 1815.58 40.4813 1815.05 39.7851C1814.46 38.9817 1813.87 38.1783 1813.28 37.3749C1813.17 37.2678 1813.06 37.1607 1812.9 37C1812.15 37.9105 1811.51 38.821 1810.97 39.7851C1810.6 40.4813 1810.39 41.2847 1810.39 42.0881C1810.44 43.2128 1810.39 44.3911 1810.39 45.5159C1810.39 45.7301 1810.44 45.9979 1810.22 46.1586C1809.9 46.2121 1809.53 46.2121 1809.15 46.2657C1809.1 46.3728 1809.05 46.4799 1809.05 46.5335C1809.05 47.7118 1809.05 48.9436 1809.05 50.1219C1809.05 50.1755 1809.1 50.2826 1809.15 50.3362C1809.42 50.3897 1809.69 50.4433 1809.9 50.4968C1809.9 50.6039 1809.96 50.7111 1809.96 50.7646C1809.9 51.8894 1809.8 53.0677 1809.74 54.1924C1809.74 54.2995 1809.64 54.4602 1809.58 54.5673C1809.1 54.6209 1808.72 54.6209 1808.3 54.6209C1808.14 54.9422 1808.19 55.21 1808.19 55.5314C1808.19 56.1205 1808.24 56.7097 1808.24 57.3524C1808.24 57.5666 1808.4 57.6737 1808.62 57.7808C1809.31 58.2093 1809.64 58.7449 1809.58 59.6018C1809.47 63.9937 1809.37 68.439 1809.1 72.8309C1808.89 76.8478 1808.56 80.9183 1808.03 84.8816C1807.76 86.649 1807.49 88.4165 1807.01 90.1304C1806.8 90.8802 1806.53 91.6836 1806.1 92.3263C1805.51 92.6476 1804.97 92.6476 1804.33 92.487C1803.37 92.1656 1802.35 91.9514 1801.33 91.6836C1801.22 91.63 1801.06 91.6836 1800.96 91.6836C1800.85 92.5941 1800.96 94.2544 1801.12 94.8971C1801.28 94.9507 1801.49 95.0042 1801.65 95.0578C1802.08 95.2185 1802.51 95.3791 1802.94 95.5934C1804.28 96.3968 1804.76 97.6286 1804.06 99.1283C1803.15 101.163 1801.65 102.502 1799.35 102.877C1799.19 102.931 1798.97 102.931 1798.76 102.984C1798.55 104.056 1798.71 105.073 1798.71 106.144C1798.22 106.466 1797.74 106.573 1797.26 106.734C1792.33 108.394 1787.24 108.983 1782.04 108.501C1778.35 108.18 1774.81 107.323 1771.38 105.877C1771.06 105.77 1770.74 105.609 1770.47 105.448C1766.35 102.931 1762.01 100.789 1757.61 98.8605C1746.1 93.8259 1734.09 90.291 1721.66 88.3094C1716.63 87.506 1711.59 86.9704 1706.56 86.649C1701.52 86.3813 1696.48 86.3813 1691.39 86.649C1689.79 86.7562 1688.13 86.8633 1686.52 86.9704C1686.25 86.9704 1685.98 87.024 1685.77 87.0775C1685.39 87.1846 1685.18 87.506 1685.18 87.8273C1685.23 88.2023 1685.5 88.47 1685.88 88.47C1686.2 88.47 1686.57 88.4701 1686.89 88.4165C1689.25 88.2558 1691.61 88.0416 1693.91 87.988C1699.65 87.7738 1705.38 87.9345 1711.11 88.4165C1716.04 88.845 1720.97 89.5412 1725.84 90.4517C1735.86 92.3798 1745.61 95.3256 1755.04 99.2889C1760.13 101.431 1765.06 103.788 1769.78 106.68C1769.99 106.787 1770.2 106.894 1770.36 107.001C1775.24 109.09 1780.38 110.108 1785.69 110.108C1788.26 110.108 1790.83 109.786 1793.4 109.251C1795.44 108.822 1797.47 108.233 1799.4 107.43C1799.67 107.323 1799.99 107.216 1800.21 106.948C1800.26 106.037 1799.99 105.127 1800.15 104.216C1800.37 104.109 1800.58 104.056 1800.8 104.002C1802.94 103.252 1804.44 101.806 1805.3 99.771C1806.21 97.6822 1805.67 95.5398 1803.58 94.308C1803.26 94.1473 1802.94 93.9866 1802.56 93.8259C1802.51 93.7724 1802.46 93.7188 1802.35 93.5581C1802.99 93.6117 1803.47 93.8259 1804.01 93.9331C1804.65 94.0402 1805.03 94.3615 1805.35 94.8971C1806.1 96.0218 1806.47 97.3073 1806.64 98.6998C1806.74 99.3961 1806.58 99.9852 1806.31 100.628C1806.05 101.217 1805.62 101.699 1805.19 102.128C1804.49 102.824 1803.74 103.359 1802.94 103.841C1802.72 103.949 1802.51 104.109 1802.24 104.27V106.841C1802.24 106.948 1802.24 107.001 1802.3 107.109C1802.4 107.43 1802.67 107.644 1802.99 107.644C1803.31 107.644 1803.63 107.43 1803.69 107.109C1803.74 106.841 1803.74 106.626 1803.74 106.359C1803.8 105.93 1803.69 105.502 1803.8 105.127C1804.38 104.698 1804.97 104.27 1805.51 103.841C1806.31 103.199 1807.01 102.449 1807.55 101.538C1808.03 100.681 1808.24 99.7174 1808.19 98.7533C1808.08 97.2001 1807.65 95.7541 1806.85 94.4686C1806.74 94.308 1806.69 94.1473 1806.58 93.9866C1807.55 93.7188 1808.46 93.7724 1809.37 94.2544C1809.42 94.4151 1809.42 94.6293 1809.47 94.79C1809.58 95.7005 1809.69 96.611 1809.74 97.5215C1809.96 100.681 1809.85 103.841 1809.05 106.894C1808.99 107.055 1808.99 107.162 1808.99 107.323C1808.99 107.644 1809.21 107.965 1809.53 108.019C1809.85 108.126 1810.17 107.965 1810.33 107.698C1810.44 107.537 1810.49 107.323 1810.55 107.162C1810.87 105.877 1811.08 104.538 1811.19 103.199C1811.46 100.307 1811.3 97.4679 1810.92 94.6293C1810.92 94.4686 1810.92 94.308 1810.92 94.0937C1811.78 93.7188 1812.64 93.7188 1813.49 93.8259C1813.97 93.8795 1814.51 93.8259 1814.94 94.2544C1814.89 94.9507 1814.83 95.5934 1814.72 96.2361C1814.51 98.6998 1814.46 101.217 1814.83 103.681C1814.99 104.805 1815.26 105.93 1815.69 107.001C1815.8 107.216 1815.9 107.483 1816.06 107.698C1816.23 107.965 1816.6 108.019 1816.92 107.858C1817.19 107.751 1817.35 107.43 1817.3 107.162C1817.3 107.001 1817.19 106.841 1817.14 106.68C1816.6 105.448 1816.39 104.163 1816.22 102.824C1815.9 100.092 1816.06 97.3073 1816.39 94.5758C1816.44 94.0402 1816.55 93.8795 1817.14 93.7724C1817.73 93.7188 1818.31 93.7188 1818.96 93.7188C1819.06 93.7188 1819.23 93.8259 1819.33 93.8259C1819.33 93.8795 1819.33 93.9331 1819.33 93.9866C1819.28 94.0402 1819.28 94.1473 1819.23 94.2008C1818.31 95.5398 1817.99 97.093 1817.89 98.6462C1817.83 99.2354 1817.94 99.8245 1818.1 100.414C1818.37 101.271 1818.85 102.02 1819.44 102.717C1820.08 103.467 1820.89 104.109 1821.69 104.645C1821.9 104.805 1822.12 104.913 1822.33 105.073C1822.39 105.448 1822.39 105.77 1822.44 106.091C1822.44 106.359 1822.44 106.626 1822.49 106.841C1822.55 107.269 1822.87 107.537 1823.24 107.483C1823.62 107.483 1823.94 107.162 1823.94 106.734C1823.89 105.877 1823.83 104.966 1823.78 104.056C1823.51 103.895 1823.3 103.788 1823.08 103.681C1822.23 103.199 1821.42 102.61 1820.78 101.913C1820.3 101.431 1819.92 100.896 1819.71 100.307C1819.55 99.8781 1819.39 99.5032 1819.39 99.0747C1819.39 97.95 1819.55 96.8788 1819.98 95.9147C1820.19 95.4327 1820.46 94.9507 1820.83 94.5222C1821.1 94.2008 1821.48 93.933 1821.9 93.8795C1822.28 93.8259 1822.65 93.7188 1822.98 93.6653C1823.08 93.6117 1823.24 93.6653 1823.51 93.6653C1822.92 93.9331 1822.44 94.0937 1822.01 94.3615C1820.83 95.0578 1820.19 96.0754 1820.19 97.4679C1820.19 97.7893 1820.19 98.1106 1820.24 98.432C1820.56 100.039 1821.31 101.431 1822.6 102.502C1823.4 103.145 1824.31 103.681 1825.23 104.109C1825.44 104.216 1825.71 104.323 1825.92 104.431C1825.98 105.395 1825.98 106.359 1826.03 107.269C1826.14 107.323 1826.24 107.376 1826.3 107.43C1829.4 108.555 1832.57 108.715 1835.73 107.644C1837.17 107.162 1838.46 106.519 1839.74 105.77C1840.76 105.18 1841.78 104.484 1842.85 103.895C1843.66 103.467 1844.46 103.038 1845.32 102.663C1846.33 102.235 1847.35 102.128 1848.42 102.181C1850.83 102.288 1853.14 102.824 1855.44 103.52C1857.53 104.163 1859.62 105.02 1861.6 105.93C1862.73 106.466 1863.91 106.894 1865.14 106.948C1866.75 107.055 1867.87 106.412 1868.46 104.913C1868.73 104.323 1868.89 103.681 1869 102.984C1869.21 101.378 1869.37 99.7174 1869.53 98.1106C1869.59 97.4679 1869.69 96.8252 1869.69 96.129C1869.69 90.3446 1869.69 84.6138 1869.64 78.8295C1869.64 73.5807 1869.59 68.2784 1869.53 63.0296C1869.53 62.8154 1869.53 62.6011 1869.59 62.4405C1870.01 59.4412 1870.5 56.4954 1870.98 53.4961C1870.98 53.389 1871.09 53.2819 1871.19 53.1212C1871.25 53.2819 1871.25 53.389 1871.3 53.4426C1871.73 56.0669 1872.21 58.6913 1872.64 61.3157C1872.75 61.9049 1872.85 62.4405 1872.85 63.0296C1872.91 67.3679 1872.91 71.7597 1872.96 76.098C1873.01 82.6321 1873.01 89.1663 1873.07 95.7005C1873.07 96.0218 1873.07 96.3432 1873.12 96.6646C1873.44 99.1283 1873.71 101.592 1874.03 104.056C1874.14 104.805 1874.35 105.555 1874.57 106.305C1874.68 106.626 1874.84 106.948 1875.05 107.216C1875.48 107.751 1876.18 107.698 1876.6 107.109C1876.76 106.894 1876.87 106.68 1876.93 106.412C1877.03 105.877 1877.25 105.341 1877.25 104.805C1877.25 103.734 1877.62 102.877 1878.21 102.02C1878.32 101.86 1878.37 101.753 1878.48 101.592C1881.16 97.2537 1883.78 92.969 1886.46 88.6307C1886.52 88.5772 1886.57 88.4701 1886.62 88.4165C1886.73 88.2023 1886.94 88.0951 1887.16 87.988C1887.32 87.9345 1887.48 87.8809 1887.64 87.8273C1892.73 86.0599 1897.82 84.2925 1902.91 82.4715C1903.23 82.3643 1903.55 82.3108 1903.87 82.043C1903.87 81.6681 1903.93 81.2932 1903.93 80.8647C1903.93 80.4362 1903.93 80.0613 1903.98 79.6864C1903.98 79.3115 1903.98 78.883 1904.09 78.4545C1904.41 78.7223 1904.41 79.0437 1904.57 79.3115C1904.68 79.5793 1904.84 79.9006 1904.95 80.1684C1905.05 80.4898 1905.21 80.8111 1905.32 81.1325C1905.43 81.4003 1905.48 81.7216 1905.8 81.9894C1905.91 81.7216 1906.02 81.5074 1906.12 81.3467C1906.5 80.4362 1906.82 79.5257 1907.2 78.6152C1907.25 78.5081 1907.3 78.401 1907.46 78.2403C1907.73 79.5793 1907.62 80.8111 1907.89 81.9894C1908.16 82.0965 1908.43 82.2037 1908.7 82.3108C1910.89 83.1142 1913.04 83.9711 1915.23 84.7745C1918.18 85.8992 1921.07 87.024 1924.02 88.0951C1924.45 88.2558 1924.77 88.5236 1924.98 88.8985C1925.3 89.4341 1925.63 89.9697 1926 90.5053C1928.52 94.5222 1931.04 98.5927 1933.55 102.61C1933.88 103.145 1934.14 103.627 1934.25 104.27C1934.41 105.073 1934.73 105.877 1935.11 106.573C1935.27 106.894 1935.54 107.216 1935.75 107.483C1936.39 108.073 1937.2 107.965 1937.63 107.162C1937.79 106.841 1937.89 106.466 1937.95 106.091C1938.05 105.502 1938.11 104.966 1938.16 104.377C1938.22 103.467 1938.27 102.61 1938.32 101.699C1938.38 100.521 1938.48 99.2889 1938.54 98.1106C1938.59 97.0395 1938.54 96.0218 1938.54 94.9507C1938.54 84.9887 1938.54 75.0803 1938.54 65.1184C1938.54 63.7794 1938.59 62.494 1938.86 61.2086C1939.29 58.7985 1939.66 56.3883 1940.09 54.0317C1940.14 53.871 1940.2 53.6568 1940.3 53.389C1940.36 53.6568 1940.41 53.7639 1940.41 53.871C1940.89 56.7097 1941.43 59.5483 1941.91 62.4405C1941.97 62.8689 1942.02 63.2974 1942.02 63.7259C1942.02 67.9035 1941.97 72.0275 1941.97 76.2051C1941.97 82.3108 1941.97 88.4165 1941.91 94.5222C1941.91 95.5398 1941.91 96.5039 1942.13 97.5215C1942.18 97.8428 1942.23 98.1642 1942.29 98.432C1942.61 100.36 1942.93 102.342 1943.25 104.27C1943.36 104.805 1943.63 105.234 1944 105.555C1945.02 106.412 1946.09 107.055 1947.32 107.483C1950.86 108.715 1954.4 108.715 1957.93 107.483C1959.16 107.055 1960.29 106.412 1961.2 105.502C1961.31 105.395 1961.47 105.288 1961.63 105.18C1963.07 104.377 1964.57 103.734 1966.24 103.574C1967.74 103.359 1969.24 103.574 1970.63 104.002C1971.81 104.377 1972.88 104.805 1974.06 105.234C1975.4 105.716 1976.68 106.252 1978.02 106.626C1980.38 107.323 1982.79 107.43 1985.15 106.894C1985.36 106.841 1985.52 106.787 1985.74 106.734C1986.06 106.626 1986.22 106.412 1986.27 106.091C1986.27 105.93 1986.27 105.823 1986.27 105.662C1986.38 102.128 1986.75 98.6462 1987.08 95.1113C1987.34 91.7907 1987.72 88.4165 1988.04 85.0958C1988.36 81.8823 1988.68 78.7223 1988.95 75.5088C1988.95 75.241 1989 75.0268 1989.06 74.7054C1989.75 74.6519 1990.45 74.6519 1991.15 74.6519C1991.84 74.6519 1992.54 74.5983 1993.24 74.5983C1993.93 74.5983 1994.63 74.5448 1995.33 74.5448C1996.02 74.5448 1996.67 74.4376 1997.36 74.5983C1997.52 75.1875 1997.42 75.7766 1997.47 76.3122C1997.52 76.9013 1997.36 77.4369 1997.58 78.0796C1997.9 78.0796 1998.27 78.0796 1998.59 78.0796C2004.33 78.0261 2010.06 78.0261 2015.79 77.9725C2018.04 77.9725 2020.35 77.9725 2022.6 77.919C2022.86 77.919 2023.13 77.9725 2023.35 77.7583C2023.45 76.7407 2023.13 75.723 2023.19 74.5983C2025.92 74.5447 2028.65 74.4376 2031.38 74.4912C2031.54 75.0803 2031.54 75.6695 2031.65 76.2051C2032.13 80.5433 2032.61 84.8816 2033.15 89.1663C2033.69 93.5046 2034.22 97.8428 2034.76 102.128C2034.86 103.145 2035.08 104.109 2035.24 105.073C2035.4 105.77 2035.56 105.93 2036.26 105.984C2038.62 106.252 2040.92 106.519 2043.28 106.734C2043.87 106.787 2044.51 106.841 2045.1 106.948C2045.26 106.948 2045.42 107.001 2045.58 107.001C2045.63 107.001 2045.69 107.001 2045.74 107.001C2048.53 107.269 2051.37 107.43 2054.15 107.591C2057.42 107.805 2060.69 107.858 2063.96 107.698C2066.53 107.591 2069.05 107.162 2071.46 106.305C2073.39 105.609 2075.26 104.752 2077.08 103.681C2079.12 102.502 2081.05 101.324 2083.03 100.092C2084.9 98.914 2086.78 97.6822 2088.65 96.4503C2090.48 95.272 2092.35 94.1473 2094.28 93.1832C2095.67 92.4334 2097.12 91.8443 2098.62 91.3087C2100.98 90.5053 2103.39 90.1304 2105.91 90.5053C2108.21 90.8266 2110.51 91.148 2112.82 91.5229C2115.92 92.0049 2119.09 92.3798 2122.25 92.3798C2125.03 92.4334 2127.82 92.2192 2130.55 91.6836C2133.23 91.2015 2135.8 90.3982 2138.26 89.3806C2137.73 89.2734 2137.41 88.845 2137.19 88.4165ZM1817.46 92.2192C1817.08 92.3263 1816.65 92.3263 1816.28 92.487C1815.8 92.7012 1815.37 92.7012 1814.89 92.5405C1813.39 92.1656 1811.83 92.1121 1810.33 92.5941C1810.12 92.6476 1809.9 92.7012 1809.69 92.6476C1809.1 92.487 1808.46 92.3263 1807.81 92.1656C1807.81 92.112 1807.81 91.9514 1807.81 91.8978C1808.56 89.9161 1808.94 87.8273 1809.26 85.7385C1809.8 82.043 1810.12 78.3474 1810.33 74.5983C1810.65 69.5102 1810.81 64.4221 1810.87 59.334C1810.87 58.4771 1810.6 57.8344 1810.06 57.2452C1809.9 57.0846 1809.8 56.9774 1809.64 56.8168C1809.47 56.6561 1809.42 56.4954 1809.53 56.2812C1809.58 56.0669 1809.8 56.1205 1809.96 56.1205C1810.22 56.1205 1810.49 56.1205 1810.81 56.0669C1810.87 55.9063 1810.92 55.7992 1810.92 55.692C1811.03 53.4961 1811.24 51.3002 1811.35 49.0507C1811.03 48.9972 1810.71 48.9436 1810.39 48.8901C1810.28 48.5152 1810.28 48.1938 1810.33 47.8189C1810.71 47.5511 1811.14 47.7653 1811.51 47.6047C1811.72 47.444 1811.62 47.1762 1811.62 46.9619C1811.62 45.3016 1811.62 43.6413 1811.62 41.981C1811.62 41.0705 1812.05 40.16 1812.74 39.4637C1813.22 39.9993 1813.6 40.5884 1813.87 41.2847C1813.97 41.5525 1813.97 41.8203 1813.97 42.1416C1814.03 43.6413 1814.08 45.1409 1814.08 46.587C1814.08 46.8548 1814.14 47.1762 1814.14 47.444C1814.51 47.4975 1814.78 47.5511 1815.1 47.6047C1815.26 48.0867 1815.21 48.5687 1815.15 49.1043C1814.78 49.1579 1814.46 49.1579 1814.14 49.2114C1814.08 49.265 1814.03 49.265 1814.03 49.3185C1814.03 49.3185 1814.03 49.3721 1814.03 49.4257C1814.08 50.2826 1814.14 51.1395 1814.24 51.9965C1814.35 53.2819 1814.46 54.5673 1814.62 55.8527C1814.62 55.9063 1814.67 55.9598 1814.72 56.0134C1815.1 56.1741 1815.58 56.0134 1816.01 56.1741C1816.12 56.6025 1816.17 57.031 1815.74 57.4059C1815.21 57.9415 1814.99 58.5842 1814.99 59.334C1814.94 65.172 1814.99 71.0099 1815.42 76.8478C1815.69 80.5433 1816.01 84.2389 1816.76 87.8273C1817.03 89.1128 1817.35 90.3982 1817.78 91.63C1817.83 91.7371 1817.89 91.8978 1817.94 92.1121C1817.78 92.1656 1817.62 92.2192 1817.46 92.2192ZM1888.18 86.167C1887.64 86.4348 1887.05 86.649 1886.41 86.8097C1886.35 86.5955 1886.35 86.4348 1886.35 86.2741C1886.3 82.6321 1886.25 78.9366 1886.14 75.2946C1886.14 75.0268 1886.14 74.7054 1886.19 74.4376C1886.41 73.1522 1886.68 71.8668 1886.89 70.5278C1886.94 70.4207 1887 70.26 1887.1 70.0458C1887.21 70.4207 1887.27 70.635 1887.32 70.9027C1887.53 71.7597 1887.69 72.5631 1887.91 73.42C1888.07 74.0092 1888.12 74.5983 1888.12 75.1875C1888.12 78.6688 1888.18 82.1501 1888.23 85.5779C1888.18 85.7385 1888.18 85.9528 1888.18 86.167ZM1925.04 87.0775C1924.29 86.9168 1923.75 86.6491 1923.16 86.4348C1923.16 86.2741 1923.11 86.0599 1923.11 85.8992C1923.11 82.0965 1923.11 78.2939 1923.11 74.4912C1923.11 74.3305 1923.11 74.2234 1923.11 74.0627C1923.38 72.5631 1923.64 71.0634 1923.96 69.4567C1924.07 69.6173 1924.18 69.7245 1924.23 69.778C1924.5 71.1705 1924.82 72.5631 1925.09 74.0092C1925.14 74.2234 1925.14 74.4912 1925.14 74.7054C1925.14 78.6152 1925.14 82.525 1925.14 86.4348C1925.04 86.6491 1925.04 86.8097 1925.04 87.0775ZM1994.79 65.9753C1995.33 63.8865 1996.08 61.9049 1997.2 60.0303C1997.9 58.852 1998.7 57.8344 1999.72 56.8703C2001.7 54.9958 2004.11 53.9246 2006.79 53.6568C2009.58 53.3354 2012.42 53.4961 2015.15 54.2995C2018.9 55.3707 2021.74 57.6202 2023.67 61.0479C2024.53 62.5476 2025.11 64.1543 2025.54 65.8147C2025.6 66.0289 2025.6 66.1896 2025.65 66.4574C2024.79 66.5645 1995.49 66.5645 1994.74 66.4574C1994.74 66.2967 1994.74 66.136 1994.79 65.9753ZM2026.19 73.1522C2026.03 73.2058 2025.81 73.2058 2025.65 73.2058C2024.58 73.2058 2023.45 73.2593 2022.38 73.2593C2022.11 73.2593 2021.79 73.3129 2021.52 73.3129C2021.52 73.5271 2021.47 73.6878 2021.47 73.8485C2021.52 74.4376 2021.58 75.0268 2021.58 75.6695C2021.58 75.9373 2021.69 76.2586 2021.58 76.5264C2021.42 76.5264 2021.26 76.58 2021.1 76.58C2017.56 76.6871 1999.77 76.7407 1998.81 76.6335C1998.81 75.4552 1998.76 74.3841 1998.76 73.3129C1998.43 73.0987 1998.17 73.1522 1997.84 73.1522C1996.77 73.1522 1995.7 73.2058 1994.68 73.2058C1994.42 73.2058 1994.2 73.2058 1993.88 73.1522C1993.88 72.938 1993.83 72.7773 1993.83 72.6166C1993.93 71.117 1994.04 69.6173 1994.36 68.0641C1994.58 68.0106 1994.74 68.0106 1994.9 68.0106C1995.11 68.0106 1995.27 68.0106 1995.49 68.0106H2024.9C2025.22 68.0106 2025.6 68.0106 2025.92 68.0106C2026.24 69.0282 2026.4 71.8668 2026.19 73.1522Z" fill="#E85451"/>
<path d="M1929 106.734C1928.95 107.055 1928.68 107.269 1928.36 107.323C1927.98 107.376 1927.66 107.162 1927.61 106.787C1927.55 106.573 1927.55 106.359 1927.55 106.091C1927.5 104.806 1927.45 103.574 1927.45 102.288C1927.45 101.753 1927.23 101.431 1926.8 101.11C1922.52 97.9501 1918.23 94.7901 1913.95 91.6302C1911.37 89.7021 1908.8 87.8275 1906.18 85.8994C1905.96 85.7387 1905.7 85.578 1905.53 85.4173C1905.43 85.4173 1905.43 85.4173 1905.37 85.4173C1905.32 85.4173 1905.32 85.4173 1905.32 85.4709C1905.16 85.578 1905.05 85.6316 1904.89 85.7387C1897.82 90.9875 1890.69 96.2898 1883.57 101.592C1883.57 102.074 1883.57 102.503 1883.52 102.931C1883.46 104.056 1883.46 105.234 1883.41 106.359C1883.41 106.573 1883.41 106.787 1883.35 106.948C1883.3 107.269 1882.98 107.484 1882.66 107.484C1882.34 107.484 1882.02 107.269 1881.96 106.948C1881.91 106.734 1881.91 106.573 1881.96 106.359C1881.96 104.806 1882.02 103.252 1882.07 101.699C1882.07 100.789 1882.02 100.896 1882.77 100.36C1885.39 98.4321 1888.02 96.4505 1890.64 94.5223C1895.3 91.041 1899.96 87.5597 1904.68 84.1319C1904.95 83.9177 1905.16 83.757 1905.37 83.6499C1905.48 83.6499 1905.48 83.6499 1905.53 83.6499C1905.59 83.6499 1905.59 83.6499 1905.64 83.6499C1905.8 83.757 1905.91 83.8641 1906.07 83.9713C1913.62 89.5414 1921.18 95.1651 1928.73 100.735C1928.79 100.789 1928.79 100.842 1928.89 100.949C1928.89 101.324 1928.95 101.806 1928.95 102.235C1929 103.52 1929.05 104.806 1929.05 106.091C1929.05 106.252 1929.05 106.52 1929 106.734Z" fill="#E85451"/>
<path d="M2017.61 104.377C2017.61 105.234 2017.51 106.037 2017.45 106.841C2017.45 107.055 2017.4 107.269 2017.29 107.484C2017.19 107.858 2016.86 108.019 2016.49 107.966C2016.17 107.912 2015.95 107.644 2015.9 107.323C2015.9 107.162 2015.9 107.002 2015.95 106.787C2016.38 104.002 2016.11 101.217 2015.47 98.5392C2014.51 94.5759 2012.79 90.9339 2010.7 87.4525C2010.65 87.399 2010.6 87.3454 2010.49 87.1847C2010.38 87.3454 2010.27 87.399 2010.22 87.5061C2007.97 91.2017 2006.2 95.0579 2005.18 99.2355C2004.81 100.842 2004.6 102.449 2004.6 104.109C2004.6 105.02 2004.7 105.93 2004.86 106.841C2004.92 107.055 2004.92 107.216 2004.92 107.43C2004.92 107.805 2004.65 108.073 2004.27 108.126C2003.95 108.18 2003.63 107.966 2003.52 107.698C2003.47 107.484 2003.42 107.269 2003.36 107.055C2002.99 105.181 2003.04 103.306 2003.26 101.378C2003.63 98.325 2004.6 95.4328 2005.83 92.5942C2006.95 90.0234 2008.24 87.6132 2009.79 85.3102C2009.95 85.0959 2010.11 84.8817 2010.27 84.6675C2010.38 84.7746 2010.54 84.8282 2010.6 84.9353C2010.7 85.096 2010.81 85.2566 2010.97 85.4173C2013.6 89.3807 2015.63 93.6118 2016.81 98.2714C2017.4 100.2 2017.67 102.288 2017.61 104.377Z" fill="#E85451"/>
<path d="M1810.76 56.0671C1810.81 55.9064 1810.87 55.7993 1810.87 55.6922C1810.97 53.4963 1811.19 51.3004 1811.3 49.0509C1810.97 48.9973 1810.65 48.9438 1810.33 48.8902C1810.22 48.5153 1810.22 48.1404 1810.28 47.819C1810.65 47.5513 1811.08 47.7655 1811.46 47.6048C1811.67 47.4441 1811.56 47.1763 1811.56 46.9621C1811.56 45.3018 1811.56 43.6415 1811.56 41.9811C1811.56 41.0706 1811.99 40.1601 1812.69 39.4639C1813.17 39.9995 1813.55 40.5886 1813.81 41.2849C1813.92 41.5527 1813.92 41.8205 1813.97 42.1418C1814.03 43.6415 1814.08 45.1411 1814.08 46.5872C1814.08 46.855 1814.08 47.1763 1814.14 47.4441C1814.51 47.4977 1814.78 47.5513 1815.1 47.6048C1815.26 48.0868 1815.21 48.5689 1815.15 49.1045C1814.78 49.158 1814.46 49.158 1814.14 49.2116C1814.08 49.2651 1814.03 49.2651 1814.03 49.3187C1814.03 49.3187 1814.03 49.3723 1814.03 49.4258C1814.08 50.2828 1814.14 51.1397 1814.24 51.9966C1814.35 53.2821 1814.46 54.5675 1814.62 55.8529C1814.62 55.9064 1814.67 55.96 1814.72 56.0136C1815.1 56.1742 1815.58 56.0136 1816.01 56.1742C1816.12 56.6027 1816.17 57.0312 1815.74 57.4061C1815.21 57.9417 1814.99 58.5844 1814.99 59.3342C1814.94 65.1721 1814.99 71.01 1815.42 76.8479C1815.69 80.5435 1816.01 84.2391 1816.76 87.8275C1817.03 89.1129 1817.35 90.3983 1817.78 91.6302C1817.83 91.7373 1817.89 91.898 1817.94 92.1122C1817.78 92.1658 1817.62 92.2193 1817.46 92.2193C1817.08 92.3265 1816.65 92.3265 1816.28 92.4871C1815.8 92.7014 1815.37 92.7014 1814.89 92.5407C1813.39 92.1658 1811.83 92.1122 1810.33 92.6478C1810.12 92.7014 1809.9 92.7549 1809.64 92.7014C1809.05 92.5407 1808.4 92.38 1807.76 92.2193C1807.76 92.1658 1807.76 92.0587 1807.76 91.9515C1808.51 89.9699 1808.89 87.8811 1809.21 85.7923C1809.74 82.0967 1810.06 78.4012 1810.28 74.652C1810.6 69.5639 1810.76 64.4759 1810.81 59.3878C1810.81 58.5308 1810.55 57.8881 1810.01 57.299C1809.85 57.1383 1809.74 57.0312 1809.58 56.8705C1809.42 56.7098 1809.37 56.5491 1809.42 56.3349C1809.47 56.1207 1809.69 56.1742 1809.85 56.1742C1810.17 56.1207 1810.49 56.0671 1810.76 56.0671Z" fill="white"/>
<path d="M1888.18 86.1671C1887.64 86.4349 1887.05 86.6491 1886.41 86.8098C1886.35 86.5956 1886.35 86.4349 1886.35 86.2742C1886.3 82.6322 1886.25 78.9367 1886.14 75.2947C1886.14 75.0269 1886.14 74.7055 1886.19 74.4377C1886.41 73.1523 1886.68 71.8669 1886.89 70.5279C1886.89 70.4208 1887 70.2601 1887.1 70.0459C1887.21 70.4208 1887.27 70.635 1887.32 70.9028C1887.53 71.7598 1887.69 72.5632 1887.91 73.4201C1888.07 74.0093 1888.12 74.5984 1888.12 75.1875C1888.12 78.6689 1888.18 82.0966 1888.23 85.578C1888.18 85.7386 1888.18 85.9529 1888.18 86.1671Z" fill="white"/>
<path d="M1558.31 113C1540.1 113 1522.04 108.447 1504.53 104.055C1497.51 102.288 1490.27 100.467 1483.09 98.9674C1452.07 92.4868 1419.88 91.4156 1388.75 90.398C1359.82 89.4339 1329.92 88.4699 1301.21 94.9505C1294.89 96.3966 1288.51 98.2176 1282.3 99.985C1268.53 103.948 1254.28 108.019 1239.7 108.019C1239.6 108.019 1239.49 108.019 1239.44 108.019C1227.17 107.965 1215.11 105.02 1203.38 102.181C1198.88 101.056 1194.22 99.9315 1189.61 98.9674C1168.88 94.6827 1165.5 97 1150 97.5V96C1166.5 95 1168.82 92.9688 1189.93 97.3606C1194.54 98.3247 1199.25 99.4494 1203.75 100.574C1215.38 103.413 1227.38 106.359 1239.44 106.412C1253.9 106.466 1268.1 102.395 1281.87 98.4854C1288.08 96.7179 1294.46 94.8969 1300.83 93.4508C1329.76 86.9167 1359.77 87.8807 1388.8 88.8448C1419.98 89.8624 1452.29 90.9336 1483.42 97.4677C1490.6 98.9674 1497.88 100.788 1504.9 102.556C1524.67 107.483 1545.08 112.625 1565.49 111.179C1582.58 109.947 1599.25 104.163 1615.32 98.5925C1619.39 97.2 1623.57 95.7003 1627.69 94.3613C1642.86 89.3268 1658.98 88.577 1673.23 87.8807C1678.43 87.6129 1683.31 87.3987 1687.86 86.9702L1688.02 88.577C1683.41 89.0055 1678.54 89.2197 1673.34 89.4875C1659.2 90.1837 1643.23 90.9336 1628.23 95.9145C1624.1 97.2535 1619.93 98.7532 1615.91 100.146C1599.73 105.769 1583.01 111.607 1565.71 112.839C1563.19 112.893 1560.78 113 1558.31 113Z" fill="#E85451"/>
<path d="M2281.69 109.894C2279.27 109.894 2276.81 109.786 2274.4 109.626C2257.09 108.394 2240.33 102.556 2224.2 96.9323C2220.18 95.5398 2216 94.0401 2211.88 92.7012C2196.93 87.7737 2180.91 86.9704 2166.77 86.2741C2161.57 86.0063 2156.69 85.7921 2152.09 85.3636L2152.25 83.7568C2156.8 84.1853 2161.73 84.3995 2166.87 84.6673C2181.07 85.3636 2197.2 86.167 2212.41 91.148C2216.54 92.4869 2220.72 93.9866 2224.79 95.3791C2240.86 101.003 2257.47 106.787 2274.61 107.965C2295.08 109.412 2315.49 104.27 2335.21 99.3425C2342.23 97.575 2349.51 95.754 2356.69 94.2544C2387.82 87.7202 2420.12 86.649 2451.3 85.6314C2480.34 84.6673 2510.34 83.7033 2539.27 90.2375C2545.65 91.6835 2552.08 93.5045 2558.24 95.272C2572.01 99.1818 2586.26 103.252 2600.67 103.199C2612.73 103.145 2624.73 100.199 2636.35 97.3608C2640.91 96.236 2645.57 95.1113 2650.18 94.1472C2671.28 89.7554 2682 93 2698.5 93L2698 95C2676 94.1472 2671.23 91.4157 2650.5 95.7005C2645.89 96.6645 2641.23 97.7893 2636.73 98.914C2625.05 101.753 2612.94 104.752 2600.67 104.752C2600.56 104.752 2600.46 104.752 2600.4 104.752C2585.83 104.752 2571.63 100.681 2557.81 96.7181C2551.65 94.9506 2545.22 93.1296 2538.9 91.6835C2510.18 85.2029 2480.23 86.167 2451.36 87.131C2420.23 88.1487 2388.03 89.2198 2357.01 95.7005C2349.89 97.2001 2342.6 99.0211 2335.58 100.789C2317.96 105.341 2299.9 109.894 2281.69 109.894Z" fill="#E85451"/>
<path d="M2815.24 118.137C2812.67 118.137 2810.04 118.03 2807.47 117.869C2789.01 116.637 2771.12 110.799 2753.92 105.175C2749.64 103.783 2745.18 102.283 2740.78 100.944C2724.83 96.0169 2707.75 95.2135 2692.66 94.5173C2687.12 94.2495 2681.91 94.0352 2677 93.6068L2677.17 92C2682.03 92.4285 2687.29 92.6427 2692.77 92.9105C2707.92 93.6068 2725.12 94.4101 2741.35 99.3911C2745.75 100.73 2750.21 102.23 2754.55 103.622C2771.7 109.246 2789.41 115.03 2807.7 116.209C2829.53 117.655 2851.3 112.513 2872.34 107.586C2879.82 105.818 2887.59 103.997 2895.25 102.498C2928.46 95.9634 2962.92 94.8922 2996.18 93.8746C3027.15 92.9105 3059.16 91.9464 3090.02 98.4806C3096.82 99.9267 3103.67 101.748 3110.25 103.515C3124.93 107.425 3140.14 111.495 3155.51 111.442C3168.37 111.388 3181.17 108.443 3193.57 105.604C3198.43 104.479 3203.4 103.354 3208.31 102.39C3230.83 97.9986 3248.26 99.2304 3261.58 106.14L3260.72 107.532C3247.8 100.837 3230.77 99.6589 3208.66 103.944C3203.74 104.908 3198.77 106.032 3193.97 107.157C3181.51 109.996 3168.6 112.995 3155.51 112.995C3155.39 112.995 3155.28 112.995 3155.22 112.995C3139.68 112.995 3124.53 108.925 3109.79 104.961C3103.22 103.194 3096.36 101.373 3089.62 99.9267C3058.98 93.4461 3027.04 94.4101 2996.23 95.3742C2963.03 96.3918 2928.68 97.463 2895.6 103.944C2887.99 105.443 2880.22 107.264 2872.74 109.032C2853.93 113.584 2834.67 118.137 2815.24 118.137Z" fill="#E85451"/>
<path d="M3705.76 118.137C3708.33 118.137 3710.96 118.03 3713.53 117.869C3731.99 116.637 3749.88 110.799 3767.08 105.175C3771.36 103.783 3775.82 102.283 3780.22 100.944C3796.17 96.0169 3813.25 95.2135 3828.34 94.5173C3833.88 94.2495 3839.09 94.0352 3844 93.6068L3843.83 92C3838.97 92.4285 3833.71 92.6427 3828.23 92.9105C3813.08 93.6068 3795.88 94.4101 3779.65 99.3911C3775.25 100.73 3770.79 102.23 3766.45 103.622C3749.3 109.246 3731.59 115.03 3713.3 116.209C3691.47 117.655 3669.7 112.513 3648.66 107.586C3641.18 105.818 3633.41 103.997 3625.75 102.498C3592.54 95.9634 3558.08 94.8922 3524.82 93.8746C3493.85 92.9105 3461.84 91.9464 3430.98 98.4806C3424.18 99.9267 3417.33 101.748 3410.75 103.515C3396.07 107.425 3380.86 111.495 3365.49 111.442C3352.63 111.388 3339.83 108.443 3327.43 105.604C3322.57 104.479 3317.6 103.354 3312.69 102.39C3290.17 97.9986 3272.74 99.2304 3259.42 106.14L3260.28 107.532C3273.2 100.837 3290.23 99.6589 3312.34 103.944C3317.26 104.908 3322.23 106.032 3327.03 107.157C3339.49 109.996 3352.4 112.995 3365.49 112.995C3365.61 112.995 3365.72 112.995 3365.78 112.995C3381.32 112.995 3396.47 108.925 3411.21 104.961C3417.78 103.194 3424.64 101.373 3431.38 99.9267C3462.02 93.4461 3493.96 94.4101 3524.77 95.3742C3557.97 96.3918 3592.32 97.463 3625.4 103.944C3633.01 105.443 3640.78 107.264 3648.26 109.032C3667.07 113.584 3686.33 118.137 3705.76 118.137Z" fill="#E85451"/>
<path d="M2154.87 84.0783C2151.44 83.4891 2147.75 83.7569 2144.43 84.7746C2142.82 85.2566 2141.48 86.2207 2140.03 87.024C2138.53 87.881 2136.98 88.5772 2135.32 88.9522C2134.3 89.1664 2134.73 90.7196 2135.75 90.5054C2137.3 90.184 2138.75 89.5413 2140.14 88.845C2141.53 88.0952 2142.93 87.0776 2144.43 86.542C2145.93 85.9529 2147.64 85.6851 2149.25 85.5244C2150.96 85.3637 2152.73 85.3637 2154.44 85.6315C2155.46 85.7922 2155.89 84.239 2154.87 84.0783Z" fill="#E85451"/>
<path d="M1026.13 121.137C1028.69 121.137 1031.32 121.03 1033.88 120.869C1052.29 119.637 1070.14 113.799 1087.29 108.175C1091.57 106.783 1096.02 105.283 1100.4 103.944C1116.31 99.0169 1133.35 98.2135 1148.4 97.5173C1153.93 97.2495 1159.12 97.0352 1164.02 96.6068L1163.85 95C1159 95.4285 1153.76 95.6427 1148.29 95.9105C1133.18 96.6068 1116.02 97.4101 1099.83 102.391C1095.45 103.73 1091 105.23 1086.67 106.622C1069.57 112.246 1051.89 118.03 1033.65 119.209C1011.88 120.655 990.16 115.513 969.183 110.586C961.716 108.818 953.963 106.997 946.325 105.498C913.206 98.9634 878.833 97.8922 845.658 96.8746C814.762 95.9105 782.84 94.9464 752.059 101.481C745.275 102.927 738.435 104.748 731.88 106.515C717.23 110.425 702.067 114.495 686.733 114.442C673.907 114.388 661.139 111.443 648.769 108.604C643.924 107.479 638.964 106.354 634.062 105.39C611.603 100.999 594.217 102.23 580.935 109.14L581.79 110.532C594.673 103.837 611.66 102.659 633.72 106.944C638.623 107.908 643.582 109.032 648.37 110.157C660.797 112.996 673.679 115.995 686.733 115.995C686.847 115.995 686.961 115.995 687.018 115.995C702.523 115.995 717.629 111.925 732.336 107.961C738.891 106.194 745.731 104.373 752.458 102.927C783.011 96.4461 814.876 97.4101 845.601 98.3742C878.719 99.3918 912.978 100.463 945.983 106.944C953.564 108.443 961.317 110.264 968.784 112.032C987.538 116.584 1006.75 121.137 1026.13 121.137Z" fill="#E85451"/>
<path d="M137.89 121.137C135.325 121.137 132.703 121.03 130.138 120.869C111.726 119.637 93.884 113.799 76.7261 108.175C72.4509 106.783 68.0046 105.283 63.6154 103.944C47.7116 99.0169 30.6677 98.2135 15.6189 97.5173C10.0896 97.2495 4.90226 97.0352 0 96.6068L0.171037 95C5.0163 95.4285 10.2605 95.6427 15.7328 95.9105C30.8386 96.6068 47.9966 97.4101 64.1854 102.391C68.5747 103.73 73.021 105.23 77.3532 106.622C94.4541 112.246 112.125 118.03 130.366 119.209C152.141 120.655 173.859 115.513 194.836 110.586C202.304 108.818 210.056 106.997 217.695 105.498C250.814 98.9634 285.186 97.8922 318.362 96.8746C349.258 95.9105 381.18 94.9464 411.961 101.481C418.745 102.927 425.585 104.748 432.14 106.515C446.79 110.425 461.953 114.495 477.287 114.442C490.112 114.388 502.881 111.443 515.251 108.604C520.096 107.479 525.055 106.354 529.958 105.39C552.417 100.999 569.803 102.23 583.084 109.14L582.229 110.532C569.347 103.837 552.36 102.659 530.299 106.944C525.397 107.908 520.438 109.032 515.65 110.157C503.223 112.996 490.34 115.995 477.287 115.995C477.173 115.995 477.059 115.995 477.002 115.995C461.497 115.995 446.391 111.925 431.684 107.961C425.129 106.194 418.289 104.373 411.562 102.927C381.009 96.4461 349.144 97.4101 318.419 98.3742C285.3 99.3918 251.042 100.463 218.037 106.944C210.455 108.443 202.703 110.264 195.236 112.032C176.482 116.584 157.271 121.137 137.89 121.137Z" fill="#E85451"/>
</g>
<defs>
<clipPath id="clip0_3587_1222">
<rect width="3840" height="150" fill="white"/>
</clipPath>
</defs>
</svg>
