<svg width="50" height="50" viewBox="0 0 50 50" fill="none" xmlns="http://www.w3.org/2000/svg">
<path d="M41.5625 43.75C37.0833 43.75 32.7174 42.7604 28.4646 40.7812C24.2104 38.8021 20.4431 36.1632 17.1625 32.8646C13.8806 29.566 11.2417 25.7896 9.24583 21.5354C7.24861 17.2826 6.25 12.9167 6.25 8.4375V7.34375C6.25 6.96181 6.28472 6.59722 6.35417 6.25H18.5417L20.4687 16.7187L14.5312 22.7083C15.9896 25.2083 17.8215 27.5521 20.0271 29.7396C22.2312 31.9271 24.6528 33.8194 27.2917 35.4167L33.3333 29.375L43.75 31.4583V43.6458C43.4028 43.6806 43.0382 43.7069 42.6562 43.725C42.2743 43.7417 41.9097 43.75 41.5625 43.75Z" fill="white"/>
</svg>
