<svg width="50" height="50" viewBox="0 0 50 50" fill="none" xmlns="http://www.w3.org/2000/svg">
<path d="M22.6564 40.2083L8.90641 26.4583C8.69808 26.25 8.55016 26.0243 8.46266 25.7812C8.37655 25.5382 8.3335 25.2777 8.3335 25C8.3335 24.7222 8.37655 24.4618 8.46266 24.2187C8.55016 23.9757 8.69808 23.75 8.90641 23.5416L22.6564 9.79163C23.0384 9.40969 23.5154 9.20969 24.0877 9.19164C24.6613 9.17497 25.1564 9.37497 25.5731 9.79163C25.9897 10.1736 26.2071 10.6507 26.2252 11.2229C26.2418 11.7965 26.0418 12.2916 25.6252 12.7083L15.4168 22.9166H38.6981C39.2884 22.9166 39.7835 23.1159 40.1835 23.5146C40.5821 23.9146 40.7814 24.4097 40.7814 25C40.7814 25.5902 40.5821 26.0847 40.1835 26.4833C39.7835 26.8833 39.2884 27.0833 38.6981 27.0833H15.4168L25.6252 37.2916C26.0071 37.6736 26.2071 38.1597 26.2252 38.75C26.2418 39.3402 26.0418 39.8264 25.6252 40.2083C25.2432 40.625 24.7571 40.8333 24.1668 40.8333C23.5766 40.8333 23.0731 40.625 22.6564 40.2083V40.2083Z" fill="#509E82"/>
</svg>
