<svg width="100" height="100" viewBox="0 0 100 100" fill="none" xmlns="http://www.w3.org/2000/svg">
<path d="M50 6.25C41.3471 6.25 32.8884 8.81589 25.6938 13.6232C18.4991 18.4305 12.8916 25.2633 9.58026 33.2576C6.26893 41.2519 5.40253 50.0485 7.09063 58.5352C8.77874 67.0219 12.9455 74.8174 19.0641 80.9359C25.1826 87.0545 32.9781 91.2213 41.4648 92.9094C49.9515 94.5975 58.7481 93.7311 66.7424 90.4197C74.7367 87.1084 81.5695 81.5008 86.3768 74.3062C91.1841 67.1115 93.75 58.6529 93.75 50C93.7376 38.4006 89.1242 27.2798 80.9222 19.0778C72.7202 10.8758 61.5994 6.26241 50 6.25V6.25ZM87.3406 46.875H56.25C55.4212 46.875 54.6263 46.5458 54.0403 45.9597C53.4542 45.3737 53.125 44.5788 53.125 43.75V12.6594C61.9489 13.4074 70.2239 17.2524 76.4857 23.5143C82.7475 29.7761 86.5926 38.0511 87.3406 46.875V46.875ZM50 87.5C40.3799 87.4193 31.1588 83.6445 24.2437 76.9562C17.3285 70.268 13.2484 61.1778 12.847 51.5658C12.4457 41.9537 15.7538 32.5551 22.0873 25.3136C28.4208 18.0721 37.2951 13.5417 46.875 12.6594V43.75C46.875 46.2364 47.8627 48.621 49.6209 50.3791C51.379 52.1373 53.7636 53.125 56.25 53.125H87.3406C86.551 62.4896 82.2766 71.2171 75.3625 77.5821C68.4484 83.9471 59.3978 87.4863 50 87.5Z" fill="url(#paint0_linear_1_392)"/>
<defs>
<linearGradient id="paint0_linear_1_392" x1="28.1281" y1="87.8812" x2="71.8719" y2="12.1188" gradientUnits="userSpaceOnUse">
<stop stop-color="#509E82"/>
<stop offset="1" stop-color="#87BFFF"/>
</linearGradient>
</defs>
</svg>
