<svg width="5" height="7" viewBox="0 0 5 7" fill="none" xmlns="http://www.w3.org/2000/svg">
<path d="M3.92217 3.9399C4.30693 2.33395 3.92218 1.10568 3.332 0.961181C2.75487 0.819962 1.85819 1.74938 1.48322 3.35532C1.10499 4.96455 1.48322 6.19611 2.0734 6.33732C2.66357 6.47526 3.5472 5.54913 3.92217 3.9399ZM1.96906 6.78397C1.02999 6.56065 0.628935 5.01053 1.03651 3.25351C1.44735 1.4965 2.5038 0.284647 3.44286 0.514537C4.37214 0.737858 4.78624 2.28797 4.36888 4.04499C3.99391 5.66407 3.06789 6.81024 2.19078 6.81024C2.11252 6.81024 2.04405 6.80367 1.96906 6.78397Z" fill="#9C2622"/>
</svg>
