<svg width="50" height="33" viewBox="0 0 50 33" fill="none" xmlns="http://www.w3.org/2000/svg">
<path d="M49.4575 4.32007C49.4575 4.0442 48.8315 3.61398 47.9967 3.29213C49.3695 2.10327 50.1585 0.188618 49.376 0.773196C46.9305 2.5959 45.2545 2.91774 45.2545 2.91774L45.2513 2.92431C44.9383 2.98671 44.6513 3.09509 44.4133 3.279C25.8277 17.6898 18.625 22.396 18.625 22.396C18.625 22.396 13.8057 13.4467 10.5842 5.37428L0.407791 11.7028C4.18034 22.2055 10.7929 32.5703 16.4403 32.7706C29.297 33.2304 43.4449 7.56809 43.4449 7.56809C44.4166 8.00488 45.9034 8.71754 46.7055 8.45152C48.701 7.79469 49.4608 4.88166 49.4575 4.32007Z" fill="#F0786A"/>
</svg>
