<svg width="65" height="52" viewBox="0 0 65 52" fill="none" xmlns="http://www.w3.org/2000/svg">
<path d="M49.0169 9.34866C51.1298 7.97917 54.4947 9.45375 56.5261 12.6459C58.5575 15.8348 58.489 19.5295 56.3663 20.899C54.2535 22.2685 50.8885 20.7873 48.8571 17.5984C46.8257 14.4062 46.8942 10.7149 49.0169 9.34866ZM57.0609 29.8253C62.2648 26.4656 62.9463 18.1666 58.5868 11.3159C54.2241 4.46514 46.4475 1.62764 41.2468 4.98732C36.0461 8.347 35.3646 16.6493 39.7241 23.5C44.0835 30.3508 51.8601 33.1883 57.0609 29.8253ZM40.461 3.74263C46.3464 -0.0571269 55.0262 2.98071 59.8226 10.5178C64.6157 18.0484 63.7321 27.2669 57.8467 31.0667C51.971 34.8665 43.2879 31.8286 38.485 24.2981C33.6952 16.761 34.5755 7.5391 40.461 3.74263ZM1.9268 50.742L37.171 27.973L37.9927 29.2637L4.0886 51.1624L7.80898 51.8849L40.9142 30.4985C46.3725 35.1752 53.4644 36.4264 58.6912 33.0503C65.457 28.6791 66.5363 18.2191 61.1008 9.69021C55.6718 1.15801 45.7888 -2.22138 39.0198 2.14982C33.7995 5.52592 31.9638 12.5376 33.9038 19.4868L31.742 20.8859C31.504 21.0369 31.3703 21.3029 31.3834 21.5821L31.6442 27.3195C31.6768 27.9205 31.0443 28.331 30.5095 28.0519L25.048 25.2111L24.6339 25.4771L24.8001 29.0699C24.8197 29.6742 24.1937 30.0782 23.6654 29.8056L20.8906 28.3639C20.6396 28.2325 20.3494 28.2489 20.1146 28.3967C19.8766 28.5478 19.7364 28.8138 19.7559 29.0929L19.8962 32.2391C19.9255 32.8369 19.2929 33.2441 18.7647 32.9682L15.9899 31.5265C15.7454 31.3951 15.4454 31.4115 15.2106 31.5626L14.4933 32.0257C14.265 32.1767 14.1216 32.4362 14.1314 32.7088L14.2553 37.3197C14.2781 37.9109 13.6586 38.305 13.1369 38.0488L9.0252 36.0093C8.78065 35.8845 8.49045 35.901 8.26221 36.0488L7.73399 36.3936C7.51552 36.5315 7.3851 36.7647 7.37858 37.0176L7.22533 40.7287C7.2025 41.2705 6.64819 41.6285 6.15584 41.4249L2.74196 40.0127C2.51045 39.9142 2.24634 39.9372 2.02462 40.0817L0.801879 40.8732L0.717102 50.5023L1.9268 50.742Z" fill="#5AA5D1"/>
</svg>
