<svg width="62" height="57" viewBox="0 0 62 57" fill="none" xmlns="http://www.w3.org/2000/svg">
<path d="M54.9838 28.5901C53.5394 24.971 52.1047 22.4981 50.6831 21.1844C49.2614 19.8675 47.6311 19.5785 45.8052 20.3174C43.9759 21.0563 42.9749 22.393 42.8021 24.3208C42.626 26.2485 43.2716 29.0532 44.7389 32.738C46.1182 36.1995 47.5366 38.6035 48.9973 39.95C50.4581 41.2998 52.0982 41.6052 53.9274 40.863C55.6947 40.147 56.6565 38.7841 56.8065 36.7545C56.9565 34.7315 56.35 32.0122 54.9838 28.5901ZM59.4476 26.7871C61.1823 31.1386 61.7007 34.8136 61.0062 37.8087C60.3085 40.8039 58.3749 42.9419 55.199 44.2292C52.0623 45.4969 49.2484 45.3163 46.741 43.6841C44.2368 42.0519 42.0946 39.0009 40.3077 34.5312C38.4655 29.9169 37.8688 26.1697 38.5046 23.2863C39.1469 20.4126 41.1294 18.2976 44.465 16.9479C47.7615 15.6178 50.6309 15.7984 53.0829 17.4996C55.5349 19.1975 57.651 22.2944 59.4476 26.7871ZM27.901 54.8502L23.2318 56.7385L33.9625 2.72423L38.6937 0.80957L27.901 54.8502ZM17.0985 24.8462C15.6769 21.2829 14.2585 18.8395 12.8434 17.5094C11.425 16.1794 9.81428 15.8805 8.00462 16.6129C6.11672 17.3748 5.08962 18.7213 4.92333 20.6589C4.76682 22.5933 5.4059 25.3717 6.85036 28.9974C8.24591 32.4983 9.67733 34.9187 11.1479 36.2619C12.6152 37.6051 14.2781 37.904 16.1236 37.1585C17.8713 36.4491 18.8136 35.0796 18.9506 33.0533C19.0875 31.0237 18.468 28.288 17.0985 24.8462ZM6.69385 13.332C9.88927 12.0413 12.7162 12.2154 15.1617 13.8542C17.617 15.493 19.7364 18.5637 21.5265 23.0564C23.2807 27.4505 23.8252 31.1518 23.1731 34.1666C22.5177 37.1782 20.607 39.326 17.4311 40.6134C14.2553 41.8975 11.4022 41.6906 8.87195 39.9828C6.33518 38.2849 4.18642 35.2175 2.41916 30.7872C0.622549 26.2748 0.0454173 22.5769 0.691022 19.6901C1.33663 16.8066 3.33866 14.6884 6.69385 13.332Z" fill="#7FB8DB"/>
</svg>
