<svg width="389" height="4" viewBox="0 0 389 4" fill="none" xmlns="http://www.w3.org/2000/svg">
<path d="M0.428955 1.71164C16.6147 1.40293 32.8038 1.26828 48.9896 1.04167L97.5535 0.660713C129.928 0.434107 162.303 0.453812 194.675 0.338867C227.053 0.447244 259.428 0.434107 291.802 0.654145L340.366 1.03839C356.549 1.265 372.738 1.39965 388.92 1.71164C372.738 2.02035 356.549 2.155 340.366 2.38489L291.802 2.76585C259.428 2.9826 227.053 2.97603 194.675 3.08113C162.303 2.96618 129.928 2.98589 97.5535 2.76257L48.9896 2.37832C32.8038 2.15171 16.6147 2.02035 0.428955 1.71164Z" fill="#B5D6EA"/>
</svg>
