<svg width="242" height="4" viewBox="0 0 242 4" fill="none" xmlns="http://www.w3.org/2000/svg">
<path d="M0.129211 1.91417C10.1752 1.60546 20.2212 1.47081 30.2672 1.2442L60.4053 0.86324C80.494 0.636634 100.586 0.659622 120.675 0.544678C140.767 0.64977 160.859 0.639918 180.951 0.859956L211.082 1.24092C221.132 1.46752 231.174 1.60217 241.224 1.91417C231.174 2.22616 221.132 2.36081 211.082 2.58742L180.951 2.97166C160.859 3.18841 140.767 3.17856 120.675 3.28694C100.586 3.17199 80.494 3.1917 60.4053 2.96509L30.2672 2.58413C20.2212 2.35753 10.1752 2.22288 0.129211 1.91417Z" fill="#B5D6EA"/>
</svg>
