<svg width="90" height="91" viewBox="0 0 90 91" fill="none" xmlns="http://www.w3.org/2000/svg">
<path d="M44.9443 3.42441C30.1541 3.42441 15.8008 11.3293 8.19373 25.2869C-2.90873 45.6552 4.51247 71.3339 24.7349 82.5164C44.9639 93.7121 70.4458 86.2275 81.5482 65.856C86.925 55.9871 88.1706 44.601 85.0469 33.7863C81.9232 22.9782 74.8085 14.042 65.0103 8.62321C58.639 5.09932 51.746 3.42441 44.9443 3.42441ZM44.7976 90.3031C37.5786 90.3031 30.2617 88.5297 23.4959 84.7891C13.0977 79.0352 5.5461 69.5506 2.22677 58.0758C-1.08603 46.6043 0.231263 34.5154 5.94063 24.039C17.7278 2.41289 44.7748 -5.51831 66.2493 6.35058C76.6475 12.1044 84.1991 21.589 87.5152 33.0638C90.8312 44.5386 89.5107 56.6275 83.8046 67.1039C75.7312 81.9154 60.4943 90.3031 44.7976 90.3031Z" fill="#5AA5D1"/>
</svg>
