<svg width="49" height="33" viewBox="0 0 49 33" fill="none" xmlns="http://www.w3.org/2000/svg">
<path d="M48.0249 3.76332C48.0249 3.49074 47.3956 3.06051 46.5608 2.73867C47.9368 1.54981 48.7259 -0.364849 47.9433 0.219729C45.4946 2.04243 43.8219 2.36427 43.8219 2.36427L43.8186 2.36756C43.5024 2.43324 43.2154 2.54162 42.9807 2.72553C24.395 17.1364 17.189 21.8425 17.189 21.8425C17.189 21.8425 14.9359 13.8358 11.7112 5.76008L0.10984 7.12628C3.01507 17.9771 9.36026 32.0168 15.0044 32.2171C27.8644 32.6769 42.009 7.01791 42.009 7.01791C42.9807 7.45141 44.4675 8.16407 45.2729 7.89806C47.2684 7.24123 48.0249 4.32819 48.0249 3.76332Z" fill="#F79885"/>
</svg>
