<svg width="40" height="51" viewBox="0 0 40 51" fill="none" xmlns="http://www.w3.org/2000/svg">
<path d="M12.5 28.0109V15.3361L20 10.2661L27.5 15.3361V28.0109H22.5V20.406H17.5V28.0109H12.5ZM20 44.108C25.0833 39.3761 28.8542 35.0767 31.3125 31.2101C33.7708 27.3451 35 23.9127 35 20.913C35 16.3078 33.5517 12.5366 30.655 9.59941C27.76 6.66392 24.2083 5.19617 20 5.19617C15.7917 5.19617 12.2392 6.66392 9.3425 9.59941C6.4475 12.5366 5 16.3078 5 20.913C5 23.9127 6.22917 27.3451 8.6875 31.2101C11.1458 35.0767 14.9167 39.3761 20 44.108ZM20 50.8257C13.2917 45.0375 8.28167 39.6608 4.97 34.6956C1.65667 29.7322 0 25.138 0 20.913C0 14.5756 2.01083 9.52674 6.0325 5.76654C10.0525 2.00633 14.7083 0.126221 20 0.126221C25.2917 0.126221 29.9475 2.00633 33.9675 5.76654C37.9892 9.52674 40 14.5756 40 20.913C40 25.138 38.3442 29.7322 35.0325 34.6956C31.7192 39.6608 26.7083 45.0375 20 50.8257Z" fill="white"/>
</svg>
