<svg width="392" height="366" viewBox="0 0 392 366" fill="none" xmlns="http://www.w3.org/2000/svg">
<path d="M28.1286 196.061C30.5904 200.557 33.2674 205.099 36.078 209.565L36.5019 210.235L33.0294 212.485L32.599 211.805C29.7329 207.253 27.0167 202.639 24.5158 198.074L28.1286 196.061ZM55.6745 237.041L52.4595 239.645C48.9608 235.267 45.5665 230.791 42.3711 226.334L45.723 223.904C48.8728 228.295 52.2214 232.719 55.6745 237.041ZM14.447 166.169C16.286 171.19 18.3989 176.307 20.727 181.371L16.9805 183.112C14.6068 177.949 12.4515 172.734 10.5766 167.611L14.447 166.169ZM77.4751 261.76L74.5177 264.664C70.6408 260.657 66.8356 256.539 63.2 252.42L66.2846 249.655C69.8745 253.727 73.6405 257.8 77.4751 261.76ZM6.05087 134.464C6.89212 139.735 8.04964 145.137 9.48432 150.507L5.49657 151.587C4.02602 146.08 2.83915 140.539 1.97182 135.121L6.05087 134.464ZM101.402 284.418L98.7083 287.567C94.5119 283.922 90.3611 280.158 86.3668 276.381L89.1938 273.35C93.1424 277.088 97.2508 280.812 101.402 284.418ZM127.177 304.904L124.771 308.284C120.297 305.049 115.836 301.663 111.506 298.218L114.066 294.957C118.344 298.359 122.755 301.705 127.177 304.904ZM4.6651 101.809C4.22818 107.153 4.13036 112.657 4.37165 118.161L0.246946 118.345C-0.00086206 112.664 0.100217 106.985 0.553446 101.465L4.6651 101.809ZM154.71 322.898L152.629 326.491C147.901 323.716 143.141 320.763 138.485 317.719L140.731 314.231C145.329 317.236 150.034 320.156 154.71 322.898ZM183.853 338.067L182.151 341.857C177.185 339.595 172.154 337.138 167.195 334.557L169.089 330.862C173.987 333.411 178.952 335.838 183.853 338.067ZM214.422 349.956L213.166 353.917C207.979 352.245 202.703 350.367 197.486 348.337L198.97 344.455C204.115 346.458 209.312 348.311 214.422 349.956ZM246.174 357.93L245.453 362.025C240.089 361.07 234.612 359.891 229.17 358.515L230.171 354.482C235.521 355.835 240.905 356.994 246.174 357.93ZM278.663 361.027L278.637 365.185C273.204 365.149 267.59 364.85 261.968 364.305L262.363 360.163C267.867 360.699 273.351 360.991 278.663 361.027ZM79.6564 2.4181L80.3151 6.52656C74.8242 7.41985 69.5028 8.64155 64.4977 10.1588L63.3109 6.17516C68.4887 4.60862 73.9894 3.34751 79.6564 2.4181ZM311.002 357.825L311.879 361.891C306.58 363.053 301.008 363.917 295.334 364.459L294.94 360.324C300.46 359.792 305.863 358.955 311.002 357.825ZM112.993 0.618385L112.817 4.77283C107.251 4.53965 101.764 4.55607 96.5041 4.82537L96.2954 0.670931C101.679 0.395063 107.3 0.378643 112.993 0.618385ZM341.254 346.511L343.279 350.14C338.508 352.833 333.37 355.211 327.999 357.198L326.574 353.299C331.736 351.381 336.679 349.099 341.254 346.511ZM146.059 4.64146L145.27 8.72365C139.831 7.65631 134.396 6.78272 129.107 6.13575L129.609 2.00758C134.993 2.67097 140.526 3.55769 146.059 4.64146ZM369.184 328.622C365.581 332.957 361.548 336.98 357.202 340.583L354.58 337.368C358.731 333.933 362.578 330.09 366.018 325.952L369.184 328.622ZM178.245 13.0751L176.97 17.0325C171.74 15.3215 166.448 13.7582 161.237 12.392L162.281 8.36897C167.566 9.75816 172.937 11.3444 178.245 13.0751ZM209.257 25.1148L207.571 28.908C202.586 26.6616 197.492 24.527 192.429 22.5598L193.916 18.6812C199.045 20.6714 204.206 22.8356 209.257 25.1148ZM385.654 299.16C383.799 304.566 381.474 309.775 378.767 314.645L375.168 312.606C377.753 307.955 379.974 302.973 381.761 297.797L385.654 299.16ZM238.873 40.2876L236.819 43.8968C232.088 41.1611 227.233 38.5207 222.381 36.0346L224.256 32.3268C229.163 34.8425 234.083 37.5223 238.873 40.2876ZM391.559 265.941C391.363 271.692 390.786 277.35 389.847 282.756L385.788 282.037C386.691 276.818 387.245 271.36 387.434 265.797L391.559 265.941ZM266.846 58.3339L264.45 61.7199C260.005 58.531 255.434 55.4143 250.856 52.4652L253.076 48.9577C257.716 51.9496 262.346 55.1023 266.846 58.3339ZM388.804 232.397C389.87 238.029 390.646 243.642 391.106 249.077L386.991 249.425C386.544 244.138 385.788 238.67 384.744 233.175L388.804 232.397ZM292.892 79.1061L290.182 82.2392C287.809 80.1538 285.402 78.0946 282.957 76.0486C281.173 74.5642 279.38 73.0962 277.567 71.6479L280.13 68.3933C281.966 69.858 283.788 71.3424 285.592 72.8466C288.066 74.9156 290.499 77.001 292.892 79.1061ZM316.877 102.246L313.891 105.113C310.154 101.156 306.257 97.2149 302.302 93.3987L305.152 90.397C309.159 94.2559 313.101 98.2429 316.877 102.246ZM379.7 200.097C381.666 205.401 383.427 210.771 384.923 216.045L380.959 217.188C379.485 212.019 377.76 206.758 375.826 201.552L379.7 200.097ZM338.583 127.603L335.329 130.158C331.99 125.846 328.495 121.544 324.918 117.373L328.042 114.654C331.658 118.88 335.205 123.235 338.583 127.603ZM365.894 169.588C368.545 174.557 371.033 179.604 373.303 184.603L369.553 186.33C367.323 181.417 364.864 176.448 362.256 171.558L365.894 169.588ZM355.744 152.129C356.367 153.114 356.973 154.093 357.58 155.082L354.068 157.265C351.228 152.641 348.196 147.991 345.062 143.459L348.447 141.081C350.957 144.71 353.413 148.425 355.744 152.129Z" fill="#7FB8DB"/>
</svg>
