<svg width="4" height="7" viewBox="0 0 4 7" fill="none" xmlns="http://www.w3.org/2000/svg">
<path d="M1.96919 0.802029C1.41488 0.815166 0.814926 1.82011 0.850792 3.2323C0.863835 3.90554 1.02361 4.53282 1.28772 4.99588C1.51922 5.38669 1.80616 5.6133 2.07353 5.6133C2.08331 5.6133 2.08331 5.6133 2.08983 5.61001C2.64414 5.59688 3.2441 4.59521 3.20823 3.17646C3.18867 2.26676 2.91151 1.44572 2.47785 1.03192C2.31808 0.880848 2.15179 0.802029 1.98549 0.802029C1.98549 0.802029 1.97897 0.802029 1.96919 0.802029ZM0.746452 5.31773C0.420389 4.76599 0.231272 4.03034 0.218229 3.24872C0.175841 1.54096 0.94209 0.18461 1.95615 0.161621C2.28221 0.16819 2.6311 0.292987 2.91477 0.572139C3.47234 1.10417 3.82123 2.07299 3.84731 3.16333C3.88318 4.8678 3.11693 6.22415 2.10288 6.25042C2.09635 6.25042 2.08331 6.25042 2.07353 6.25042C1.56813 6.25042 1.09208 5.92201 0.746452 5.31773Z" fill="#265173"/>
</svg>
