<svg width="43" height="44" viewBox="0 0 43 44" fill="none" xmlns="http://www.w3.org/2000/svg">
<path d="M19.5982 3.61064C14.8898 3.61064 10.6543 5.45961 7.67077 8.82258C4.56665 12.3202 3.1711 17.0231 3.73845 22.0642C4.90249 32.4027 14.0225 40.8134 24.075 40.8134C28.7801 40.8134 33.0157 38.9644 35.9959 35.6015C39.1 32.1039 40.4956 27.4043 39.9282 22.3631C38.7642 12.0246 29.6442 3.61064 19.5982 3.61064ZM24.075 43.4604C12.728 43.4604 2.43746 33.9955 1.12994 22.3631C0.481076 16.5633 2.10813 11.128 5.71439 7.06228C9.20001 3.12787 14.1268 0.963623 19.5982 0.963623C30.9387 0.963623 41.2292 10.4318 42.54 22.0642C43.1889 27.864 41.5618 33.2993 37.9523 37.3651C34.4667 41.2962 29.5398 43.4604 24.075 43.4604Z" fill="#B5D6EA"/>
</svg>
