<svg width="169" height="111" viewBox="0 0 169 111" fill="none" xmlns="http://www.w3.org/2000/svg">
<path d="M60.7633 85.1972L56.8287 78.2231L56.1657 76.8838C56.1657 76.8838 19.0725 105.204 18.2364 107.01C17.4002 108.817 18.1727 111.405 22.8536 108.489C27.2947 105.723 50.2219 92.2161 60.7633 85.1972Z" fill="#42A2BE"/>
<path d="M59.1592 75.8478C59.4057 74.4707 37.5157 41.0588 36.3029 41.1092C35.4949 41.1427 12.5089 63.8633 4.64369 72.2888C3.06418 73.9808 2.09449 75.0963 2.03671 75.3357C1.69122 76.7675 15.7389 109.058 16.9719 109.492C17.8983 109.819 19.0013 109.995 20.1208 109.748C19.3456 109.911 18.5215 109.833 18.0205 109.145C17.0542 107.818 58.9127 77.2248 59.1592 75.8478Z" fill="#C0E0E9"/>
<path d="M18.1611 108.834C18.2804 107.768 48.8793 84.4746 59.1797 76.3015C37.8685 89.9436 12.383 94.0399 2.05408 75.4859C1.7086 76.9177 15.2236 107.93 16.9892 109.642C17.9278 110.553 20.1262 109.986 21.5495 109.195C20.9113 109.55 19.7337 109.706 18.9479 109.544C18.4567 109.442 18.1185 109.215 18.1611 108.834Z" fill="#80C1D3"/>
<path d="M49.5034 48.5242C45.5423 50.8628 36.8297 57.445 32.4335 60.6472L38.2199 69.103C42.1464 66.2223 49.9165 60.2106 53.8655 57.5826C58.8018 54.2976 58.3349 51.7806 57.5513 50.3638C56.7678 48.947 54.4547 45.6009 49.5034 48.5242Z" fill="#80C1D3"/>
<circle cx="52.5569" cy="52.2721" r="3.43928" transform="rotate(-2.37924 52.5569 52.2721)" fill="#E6F3F6"/>
<path d="M152.809 71.7133C139.367 -5.93688 56.0233 17.7852 43.5297 50.2053" stroke="#F4F3F3" stroke-width="0.672932" stroke-linecap="round" stroke-linejoin="round" stroke-dasharray="2.24 3.36"/>
<path d="M142.435 54.5042L143.569 52.0698L153.01 56.9976L151.245 59.5198C149.957 60.5042 147.345 61.5243 144.829 60.0529C142.314 58.5814 142.079 56.0314 142.435 54.5042Z" fill="#FBE0C0"/>
<ellipse rx="5.31519" ry="5.40629" transform="matrix(0.868214 0.496191 -0.537734 0.843114 148.195 54.5861)" fill="#F7C080"/>
<path d="M137.187 80.4579L139.389 57.0449L152.723 65.4325L151.831 74.893C156.454 79.2226 165.915 88.2832 166.774 89.8886C167.848 91.8954 166.896 94.2977 164.723 94.29C162.985 94.2838 145.642 85.066 137.187 80.4579Z" fill="#4FBADB"/>
<path d="M167.189 92.5936C167.189 92.5936 169.511 62.7755 168.212 60.9315C162.771 53.2077 155.112 46.2921 151.288 43.0039L148.704 72.2654C152.161 75.0854 166.452 88.0658 167.189 92.5936Z" fill="#C4E8F3"/>
<path d="M149.69 51.4668C153.674 54.126 156.307 57.5061 158.689 60.1781L158.409 67.2457C156.972 66.0184 153.781 62.8801 151.998 61.246C148.596 58.1282 145.614 56.2636 144.109 53.3864C143.152 51.5577 144.711 48.1427 149.69 51.4668Z" fill="#8AD1E7"/>
<ellipse cx="147.879" cy="53.6357" rx="2.88295" ry="1.82081" transform="rotate(38.1061 147.879 53.6357)" fill="#E8F6FA"/>
<path d="M112.753 17.5832L110.586 15.4159L102.837 26.9606L105.547 28.672C105.737 28.7921 105.965 28.8411 106.183 28.7869C107.417 28.4799 109.582 27.4653 111.244 25.1485C112.946 22.7748 113.152 19.5079 112.998 18.0742C112.978 17.8867 112.887 17.7165 112.753 17.5832Z" fill="#FBE0C0"/>
<ellipse rx="4.21555" ry="6.99908" transform="matrix(-0.799784 -0.600287 -0.554355 0.83228 106.63 21.1189)" fill="#F7C080"/>
<path d="M47.0078 35.5451C47.0081 35.4615 47.0221 33.569 47.6572 32.1774C49.5059 28.1259 61.7167 31.3931 60.9415 35.6566C60.6612 37.1983 59.7427 38.9396 59.5373 39.3159C59.5099 39.3661 59.4779 39.4122 59.439 39.4572C58.0673 41.045 55.1009 42.9884 51.5742 41.8579C47.9999 40.7122 46.9893 37.5732 47.0077 35.552L47.0078 35.5451Z" fill="#FBE0C0"/>
<ellipse rx="6.85069" ry="6.96811" transform="matrix(0.955306 0.295619 -0.341625 0.939836 54.2773 34.035)" fill="#F7C080"/>
<path d="M134.247 36.2672L135.811 34.7335L124.702 24.5988L123.155 26.5174C123.018 26.6866 122.944 26.8991 122.97 27.1168C123.145 28.5787 124.192 31.4862 126.855 33.6974C129.232 35.6714 132.067 36.6847 133.688 36.5441C133.902 36.5256 134.093 36.4174 134.247 36.2672Z" fill="#FBE0C0"/>
<ellipse rx="3.75126" ry="7.50752" transform="matrix(0.684162 -0.72933 -0.739804 -0.672823 130.534 29.3984)" fill="#F7C080"/>
<path d="M71.2516 18.4295L72.9452 15.8892L90.025 28.2247L88.2522 30.4067C88.0732 30.6269 87.812 30.758 87.5454 30.7186C85.8739 30.4712 82.3718 28.9763 78.9547 26.4851C75.1153 23.6859 71.7067 21.0055 71.1235 19.0903C71.0558 18.8679 71.1203 18.6264 71.2516 18.4295Z" fill="#FBE0C0"/>
<path d="M80.2983 23.8654C75.6015 20.4335 72.3307 16.8012 72.9929 15.7524C73.655 14.7036 77.9993 16.6355 82.6961 20.0673C87.393 23.4992 90.6637 27.1315 90.0016 28.1803C89.3395 29.2291 84.9952 27.2973 80.2983 23.8654Z" fill="#F7C080"/>
</svg>
