<svg width="50" height="50" viewBox="0 0 50 50" fill="none" xmlns="http://www.w3.org/2000/svg">
<g clip-path="url(#clip0_3_1558)">
<path d="M25 0C18.2156 0 17.3625 0.03125 14.6969 0.15C12.0313 0.275 10.2156 0.69375 8.625 1.3125C6.95654 1.94006 5.44529 2.92446 4.19688 4.19688C2.92524 5.44593 1.94096 6.957 1.3125 8.625C0.69375 10.2125 0.271875 12.0312 0.15 14.6875C0.03125 17.3594 0 18.2094 0 25.0031C0 31.7906 0.03125 32.6406 0.15 35.3063C0.275 37.9688 0.69375 39.7844 1.3125 41.375C1.95312 43.0187 2.80625 44.4125 4.19688 45.8031C5.58438 47.1937 6.97813 48.05 8.62188 48.6875C10.2156 49.3062 12.0281 49.7281 14.6906 49.85C17.3594 49.9687 18.2094 50 25 50C31.7906 50 32.6375 49.9687 35.3063 49.85C37.9656 49.725 39.7875 49.3062 41.3781 48.6875C43.0455 48.0596 44.5557 47.0752 45.8031 45.8031C47.1937 44.4125 48.0469 43.0187 48.6875 41.375C49.3031 39.7844 49.725 37.9688 49.85 35.3063C49.9687 32.6406 50 31.7906 50 25C50 18.2094 49.9687 17.3594 49.85 14.6906C49.725 12.0313 49.3031 10.2125 48.6875 8.625C48.0591 6.95695 47.0748 5.44586 45.8031 4.19688C44.5551 2.92399 43.0437 1.93952 41.375 1.3125C39.7812 0.69375 37.9625 0.271875 35.3031 0.15C32.6344 0.03125 31.7875 0 24.9938 0H25.0031H25ZM22.7594 4.50625H25.0031C31.6781 4.50625 32.4687 4.52813 35.1031 4.65C37.5406 4.75938 38.8656 5.16875 39.7469 5.50938C40.9125 5.9625 41.7469 6.50625 42.6219 7.38125C43.4969 8.25625 44.0375 9.0875 44.4906 10.2563C44.8344 11.1344 45.2406 12.4594 45.35 14.8969C45.4719 17.5313 45.4969 18.3219 45.4969 24.9938C45.4969 31.6656 45.4719 32.4594 45.35 35.0937C45.2406 37.5312 44.8313 38.8531 44.4906 39.7344C44.0898 40.8199 43.4501 41.8014 42.6187 42.6062C41.7437 43.4812 40.9125 44.0219 39.7438 44.475C38.8688 44.8188 37.5437 45.225 35.1031 45.3375C32.4687 45.4563 31.6781 45.4844 25.0031 45.4844C18.3281 45.4844 17.5344 45.4563 14.9 45.3375C12.4625 45.225 11.1406 44.8188 10.2594 44.475C9.17343 44.0748 8.19102 43.4362 7.38437 42.6062C6.55235 41.8001 5.91163 40.8177 5.50938 39.7312C5.16875 38.8531 4.75938 37.5281 4.65 35.0906C4.53125 32.4563 4.50625 31.6656 4.50625 24.9875C4.50625 18.3125 4.53125 17.525 4.65 14.8906C4.7625 12.4531 5.16875 11.1281 5.5125 10.2469C5.96563 9.08125 6.50937 8.24687 7.38437 7.37187C8.25937 6.49687 9.09062 5.95625 10.2594 5.50313C11.1406 5.15938 12.4625 4.75313 14.9 4.64063C17.2063 4.53438 18.1 4.50313 22.7594 4.5V4.50625V4.50625ZM38.3469 8.65625C37.9529 8.65625 37.5628 8.73385 37.1988 8.88461C36.8348 9.03538 36.5041 9.25635 36.2256 9.53493C35.947 9.81351 35.726 10.1442 35.5752 10.5082C35.4245 10.8722 35.3469 11.2623 35.3469 11.6563C35.3469 12.0502 35.4245 12.4403 35.5752 12.8043C35.726 13.1683 35.947 13.499 36.2256 13.7776C36.5041 14.0561 36.8348 14.2771 37.1988 14.4279C37.5628 14.5787 37.9529 14.6563 38.3469 14.6563C39.1425 14.6563 39.9056 14.3402 40.4682 13.7776C41.0308 13.215 41.3469 12.4519 41.3469 11.6563C41.3469 10.8606 41.0308 10.0975 40.4682 9.53493C39.9056 8.97232 39.1425 8.65625 38.3469 8.65625V8.65625ZM25.0031 12.1625C23.3002 12.1359 21.609 12.4484 20.0281 13.0817C18.4471 13.715 17.0079 14.6565 15.7942 15.8513C14.5806 17.0462 13.6168 18.4705 12.9589 20.0414C12.301 21.6124 11.9622 23.2985 11.9622 25.0016C11.9622 26.7047 12.301 28.3908 12.9589 29.9617C13.6168 31.5326 14.5806 32.9569 15.7942 34.1518C17.0079 35.3467 18.4471 36.2881 20.0281 36.9214C21.609 37.5547 23.3002 37.8672 25.0031 37.8406C28.3736 37.788 31.5882 36.4122 33.9531 34.0102C36.3179 31.6081 37.6434 28.3724 37.6434 25.0016C37.6434 21.6307 36.3179 18.395 33.9531 15.993C31.5882 13.5909 28.3736 12.2151 25.0031 12.1625V12.1625ZM25.0031 16.6656C27.2135 16.6656 29.3334 17.5437 30.8964 19.1067C32.4594 20.6697 33.3375 22.7896 33.3375 25C33.3375 27.2104 32.4594 29.3303 30.8964 30.8933C29.3334 32.4563 27.2135 33.3344 25.0031 33.3344C22.7927 33.3344 20.6728 32.4563 19.1098 30.8933C17.5468 29.3303 16.6688 27.2104 16.6688 25C16.6688 22.7896 17.5468 20.6697 19.1098 19.1067C20.6728 17.5437 22.7927 16.6656 25.0031 16.6656V16.6656Z" fill="#509E82"/>
</g>
<defs>
<clipPath id="clip0_3_1558">
<rect width="50" height="50" fill="white"/>
</clipPath>
</defs>
</svg>
