<svg width="50" height="50" viewBox="0 0 50 50" fill="none" xmlns="http://www.w3.org/2000/svg">
<g clip-path="url(#clip0_3_1908)">
<path d="M28.2031 25C28.2031 32.7656 21.8906 39.0625 14.1 39.0625C12.2508 39.065 10.4193 38.7032 8.70991 37.9978C7.00055 37.2924 5.44686 36.2573 4.13756 34.9515C2.82825 33.6457 1.78897 32.0947 1.07904 30.3872C0.36912 28.6798 0.00246065 26.8492 0 25C0 17.2313 6.3125 10.9375 14.1 10.9375C15.9494 10.9346 17.7813 11.2961 19.491 12.0013C21.2008 12.7065 22.7548 13.7416 24.0645 15.0475C25.3741 16.3533 26.4137 17.9044 27.1238 19.6121C27.8339 21.3197 28.2007 23.1506 28.2031 25ZM43.6719 25C43.6719 32.3125 40.5156 38.2375 36.6219 38.2375C32.7281 38.2375 29.5719 32.3094 29.5719 25C29.5719 17.6875 32.7281 11.7625 36.6219 11.7625C40.5156 11.7625 43.6719 17.6906 43.6719 25ZM50 25C50 31.55 48.8906 36.8594 47.5187 36.8594C46.15 36.8594 45.0406 31.5469 45.0406 25C45.0406 18.45 46.15 13.1406 47.5219 13.1406C48.8906 13.1406 50 18.45 50 25Z" fill="#509E82"/>
</g>
<defs>
<clipPath id="clip0_3_1908">
<rect width="50" height="50" fill="white"/>
</clipPath>
</defs>
</svg>
