<svg width="50" height="50" viewBox="0 0 50 50" fill="none" xmlns="http://www.w3.org/2000/svg">
<path d="M41.6045 44.5521L34.6128 37.5604C31.5962 38.9354 28.3149 39.625 25.0003 39.5875C21.5837 39.6291 18.2024 38.8916 15.1128 37.4312C12.7184 36.263 10.5683 34.6496 8.77741 32.6771C6.87631 30.6393 5.38215 28.257 4.37533 25.6583L4.16699 25.0041L4.38574 24.3458C5.8916 20.5048 8.42586 17.1524 11.7107 14.6562L6.25033 9.19582L9.19408 6.25415L44.5462 41.6062L41.6087 44.5521H41.6045V44.5521ZM14.6587 17.6062C11.996 19.4727 9.89335 22.0306 8.57741 25.0041C9.95641 28.1858 12.2593 30.8798 15.1875 32.7372C18.1158 34.5945 21.5344 35.5294 25.0003 35.4208C27.1875 35.4388 29.3619 35.0866 31.4316 34.3792L27.6816 30.6291C26.8482 31.0375 25.9316 31.2521 25.0003 31.2541C23.3459 31.2438 21.7622 30.582 20.5924 29.4121C19.4225 28.2422 18.7607 26.6585 18.7503 25.0041C18.7503 24.0729 18.9649 23.1541 19.3753 22.3166L14.6587 17.6062ZM41.3587 32.525L38.4587 29.6271C39.6787 28.2477 40.6787 26.6884 41.4232 25.0041C40.0461 21.8212 37.7437 19.1258 34.815 17.2682C31.8863 15.4106 28.4667 14.4766 25.0003 14.5875C24.4857 14.5875 23.9691 14.6062 23.4691 14.6417L19.792 10.9604C21.5045 10.5937 23.2503 10.4125 25.0003 10.4208C28.417 10.3791 31.7982 11.1167 34.8878 12.5771C37.2837 13.7437 39.4316 15.3583 41.2232 17.3312C43.1234 19.3666 44.6175 21.746 45.6253 24.3417L45.8337 25.0041L45.6149 25.6625C44.6396 28.2002 43.1965 30.5322 41.3607 32.5375L41.3587 32.525V32.525Z" fill="#509E82"/>
</svg>
