<svg width="50" height="50" viewBox="0 0 50 50" fill="none" xmlns="http://www.w3.org/2000/svg">
<path d="M41.6042 44.5521L34.6126 37.5604C31.5959 38.9354 28.3147 39.625 25.0001 39.5875C21.5834 39.6292 18.2022 38.8916 15.1126 37.4312C12.7181 36.263 10.568 34.6496 8.77716 32.6771C6.87606 30.6393 5.3819 28.257 4.37508 25.6583L4.16675 25.0042L4.3855 24.3458C5.89135 20.5048 8.42561 17.1524 11.7105 14.6562L6.25008 9.19582L9.19383 6.25415L44.5459 41.6062L41.6084 44.5521H41.6042ZM14.6584 17.6062C11.9958 19.4727 9.8931 22.0306 8.57716 25.0042C9.95616 28.1858 12.259 30.8798 15.1873 32.7372C18.1155 34.5945 21.5342 35.5294 25.0001 35.4208C27.1872 35.4388 29.3617 35.0866 31.4313 34.3792L27.6813 30.6291C26.848 31.0375 25.9313 31.2521 25.0001 31.2542C23.3457 31.2438 21.762 30.582 20.5921 29.4121C19.4223 28.2422 18.7605 26.6585 18.7501 25.0042C18.7501 24.0729 18.9647 23.1542 19.3751 22.3167L14.6584 17.6062ZM41.3584 32.525L38.4584 29.6271C39.6785 28.2477 40.6784 26.6884 41.423 25.0042C40.0459 21.8212 37.7434 19.1258 34.8147 17.2682C31.886 15.4106 28.4664 14.4766 25.0001 14.5875C24.4855 14.5875 23.9688 14.6062 23.4688 14.6417L19.7917 10.9604C21.5042 10.5937 23.2501 10.4125 25.0001 10.4208C28.4167 10.3791 31.798 11.1167 34.8876 12.5771C37.2834 13.7437 39.4313 15.3583 41.223 17.3312C43.1232 19.3666 44.6173 21.746 45.6251 24.3417L45.8334 25.0042L45.6147 25.6625C44.6393 28.2002 43.1963 30.5322 41.3605 32.5375L41.3584 32.525Z" fill="#509E82"/>
</svg>
