<svg width="100" height="100" viewBox="0 0 100 100" fill="none" xmlns="http://www.w3.org/2000/svg">
<path d="M25 53.6562H46.875C47.7038 53.6562 48.4987 53.327 49.0847 52.741C49.6708 52.1549 50 51.3601 50 50.5312C50 49.7024 49.6708 48.9076 49.0847 48.3215C48.4987 47.7355 47.7038 47.4062 46.875 47.4062H25C24.1712 47.4062 23.3763 47.7355 22.7903 48.3215C22.2042 48.9076 21.875 49.7024 21.875 50.5312C21.875 51.3601 22.2042 52.1549 22.7903 52.741C23.3763 53.327 24.1712 53.6562 25 53.6562ZM40.625 59.9062H25C24.1712 59.9062 23.3763 60.2355 22.7903 60.8215C22.2042 61.4076 21.875 62.2024 21.875 63.0312C21.875 63.8601 22.2042 64.6549 22.7903 65.241C23.3763 65.827 24.1712 66.1562 25 66.1562H40.625C41.4538 66.1562 42.2487 65.827 42.8347 65.241C43.4208 64.6549 43.75 63.8601 43.75 63.0312C43.75 62.2024 43.4208 61.4076 42.8347 60.8215C42.2487 60.2355 41.4538 59.9062 40.625 59.9062ZM40.625 72.4062H25C24.1712 72.4062 23.3763 72.7355 22.7903 73.3215C22.2042 73.9076 21.875 74.7024 21.875 75.5312C21.875 76.3601 22.2042 77.1549 22.7903 77.741C23.3763 78.327 24.1712 78.6562 25 78.6562H40.625C41.4538 78.6562 42.2487 78.327 42.8347 77.741C43.4208 77.1549 43.75 76.3601 43.75 75.5312C43.75 74.7024 43.4208 73.9076 42.8347 73.3215C42.2487 72.7355 41.4538 72.4062 40.625 72.4062Z" fill="#509E82"/>
<path d="M71.875 50.7812V27.9687C71.9003 27.7403 71.9003 27.5097 71.875 27.2812V27C71.7568 26.6832 71.5879 26.3877 71.375 26.125L55.75 7.375C55.4797 7.06353 55.1505 6.80863 54.7813 6.625H54.4688C54.1021 6.4216 53.6982 6.29407 53.2812 6.25H18.75C16.2636 6.25 13.879 7.23772 12.1209 8.99587C10.3627 10.754 9.375 13.1386 9.375 15.625V84.375C9.375 86.8614 10.3627 89.246 12.1209 91.0041C13.879 92.7623 16.2636 93.75 18.75 93.75H62.5C62.7992 93.7298 63.0938 93.6667 63.375 93.5625C66.2785 94.3785 69.3194 94.5853 72.3067 94.1699C75.294 93.7545 78.1631 92.7258 80.7338 91.1485C83.3045 89.5712 85.5213 87.4793 87.2448 85.0043C88.9684 82.5292 90.1615 79.7245 90.7493 76.7663C91.337 73.8081 91.3067 70.7603 90.6602 67.8144C90.0137 64.8685 88.765 62.0881 86.9925 59.6478C85.22 57.2076 82.9621 55.1603 80.3605 53.6344C77.759 52.1085 74.87 51.1372 71.875 50.7812ZM56.25 18L62.0625 25H56.25V18ZM15.625 84.375V15.625C15.625 14.7962 15.9542 14.0013 16.5403 13.4153C17.1263 12.8292 17.9212 12.5 18.75 12.5H50V25C50 26.6576 50.6585 28.2473 51.8306 29.4194C53.0027 30.5915 54.5924 31.25 56.25 31.25H65.625V50.7812C61.6602 51.3661 57.9322 53.0289 54.8481 55.5882C51.764 58.1474 49.4422 61.5048 48.1362 65.2938C46.8302 69.0827 46.5902 73.1576 47.4424 77.0737C48.2947 80.9897 50.2063 84.5964 52.9688 87.5H18.75C17.9212 87.5 17.1263 87.1708 16.5403 86.5847C15.9542 85.9987 15.625 85.2038 15.625 84.375ZM68.75 88.0313C65.6597 88.0313 62.6387 87.1149 60.0692 85.398C57.4997 83.6811 55.497 81.2408 54.3144 78.3857C53.1318 75.5306 52.8223 72.3889 53.4252 69.358C54.0281 66.327 55.5163 63.5429 57.7015 61.3577C59.8867 59.1725 62.6708 57.6844 65.7017 57.0815C68.7327 56.4786 71.8743 56.788 74.7294 57.9706C77.5845 59.1533 80.0248 61.1559 81.7417 63.7255C83.4586 66.295 84.375 69.3159 84.375 72.4063C84.375 76.5503 82.7288 80.5245 79.7985 83.4548C76.8683 86.385 72.894 88.0313 68.75 88.0313Z" fill="#509E82"/>
<path d="M73.9062 67.6563L65.875 73.0313L63.875 71.0313C63.4958 70.7557 63.0306 70.6244 62.5633 70.6612C62.0959 70.698 61.657 70.9003 61.3255 71.2318C60.994 71.5633 60.7917 72.0022 60.7549 72.4695C60.7182 72.9369 60.8494 73.402 61.125 73.7813L64.25 76.9063C64.3563 76.9915 64.4716 77.0648 64.5937 77.125H64.8125C65.064 77.2566 65.3414 77.3312 65.625 77.3438C65.9564 77.3318 66.2792 77.235 66.5625 77.0625L75.9375 70.8125C76.2018 70.6999 76.4378 70.53 76.6284 70.315C76.8189 70.0999 76.9592 69.8452 77.0392 69.5693C77.1192 69.2933 77.1368 69.003 77.0908 68.7195C77.0447 68.4359 76.9362 68.1661 76.773 67.9296C76.6098 67.6931 76.3961 67.4959 76.1473 67.3522C75.8986 67.2085 75.6209 67.1219 75.3346 67.0988C75.0482 67.0756 74.7603 67.1164 74.4916 67.2182C74.223 67.32 73.9803 67.4803 73.7812 67.6875L73.9062 67.6563ZM27.9375 30.2813H31.4687C31.5897 30.2467 31.7169 30.2407 31.8406 30.2637C31.9642 30.2867 32.0808 30.3381 32.1812 30.4139C32.2816 30.4896 32.3631 30.5876 32.4191 30.7002C32.4752 30.8127 32.5044 30.9368 32.5044 31.0625C32.5044 31.1883 32.4752 31.3123 32.4191 31.4249C32.3631 31.5374 32.2816 31.6354 32.1812 31.7112C32.0808 31.7869 31.9642 31.8383 31.8406 31.8613C31.7169 31.8843 31.5897 31.8783 31.4687 31.8438H26.1875C25.712 31.904 25.2749 32.1357 24.958 32.4952C24.6411 32.8548 24.4663 33.3176 24.4663 33.7969C24.4663 34.2762 24.6411 34.739 24.958 35.0985C25.2749 35.4581 25.712 35.6897 26.1875 35.75H27.75V37.0625C27.8103 37.538 28.0419 37.9751 28.4015 38.292C28.761 38.6089 29.2238 38.7837 29.7031 38.7837C30.1824 38.7837 30.6452 38.6089 31.0048 38.292C31.3643 37.9751 31.596 37.538 31.6562 37.0625V35.75C32.2718 35.7377 32.8789 35.6043 33.4429 35.3573C34.0069 35.1104 34.5168 34.7548 34.9433 34.3108C35.3699 33.8668 35.7049 33.3432 35.9291 32.7697C36.1533 32.1963 36.2623 31.5843 36.25 30.9688C36.2377 30.3532 36.1042 29.7461 35.8573 29.1821C35.6104 28.6181 35.2547 28.1082 34.8108 27.6817C34.3668 27.2551 33.8431 26.9201 33.2697 26.6959C32.6963 26.4718 32.0843 26.3627 31.4687 26.375H27.9375C27.8166 26.4096 27.6893 26.4156 27.5657 26.3925C27.442 26.3695 27.3254 26.3181 27.225 26.2424C27.1246 26.1667 27.0432 26.0687 26.9871 25.9561C26.931 25.8436 26.9018 25.7195 26.9018 25.5938C26.9018 25.468 26.931 25.344 26.9871 25.2314C27.0432 25.1189 27.1246 25.0208 27.225 24.9451C27.3254 24.8694 27.442 24.818 27.5657 24.795C27.6893 24.772 27.8166 24.778 27.9375 24.8125H33.2187C33.6942 24.7522 34.1314 24.5206 34.4482 24.161C34.7651 23.8015 34.9399 23.3387 34.9399 22.8594C34.9399 22.3801 34.7651 21.9173 34.4482 21.5577C34.1314 21.1982 33.6942 20.9665 33.2187 20.9063H31.6562V18.75C31.596 18.2745 31.3643 17.8374 31.0048 17.5205C30.6452 17.2036 30.1824 17.0288 29.7031 17.0288C29.2238 17.0288 28.761 17.2036 28.4015 17.5205C28.0419 17.8374 27.8103 18.2745 27.75 18.75V20.9063C27.1344 20.9186 26.5273 21.052 25.9633 21.299C25.3993 21.5459 24.8895 21.9015 24.4629 22.3455C23.6014 23.2421 23.1314 24.4443 23.1562 25.6875C23.1811 26.9307 23.6988 28.1131 24.5955 28.9746C25.4921 29.8361 26.6943 30.3061 27.9375 30.2813Z" fill="#509E82"/>
</svg>
