<svg width="120" height="100" viewBox="0 0 120 100" fill="none" xmlns="http://www.w3.org/2000/svg">
<path d="M40.0725 81.2671V81.0531C40.0725 81.0093 40.0444 80.9734 40.0406 80.9296C40.0369 80.8859 40.0238 80.864 40.0144 80.8281C39.9792 80.6298 39.8963 80.4396 39.7706 80.2687C38.0831 77.3 29.235 77.1437 27.4125 77.1437C25.5188 77.1437 16.0144 77.3125 14.8875 80.5687C14.7977 80.7956 14.7515 81.0329 14.7506 81.2718V91.2093C14.7506 94.8156 23.6344 95.2046 27.4556 95.2046C29.5688 95.2046 40.1156 95.0046 40.1156 91.0765C40.1155 90.947 40.1011 90.8178 40.0725 90.6906V81.2671ZM18.51 84.3921C18.6019 84.4187 18.6975 84.4374 18.7969 84.4624C19.05 84.5312 19.305 84.5937 19.5675 84.6531L20.0081 84.7453C20.28 84.7999 20.5519 84.8484 20.8275 84.9015L21.2363 84.9687C21.5763 85.0187 21.915 85.064 22.2525 85.1046L22.4513 85.1296C22.8581 85.175 23.2538 85.2124 23.64 85.2453L23.9719 85.2687C24.2456 85.289 24.51 85.3078 24.765 85.3234L25.1288 85.3421C25.3575 85.3531 25.5731 85.364 25.7794 85.3703C25.8881 85.3703 25.9913 85.3796 26.0925 85.3812L26.6456 85.3953H26.8706H27.4219H27.9713H28.1963L28.7588 85.3812L29.0681 85.3718C29.2763 85.364 29.4938 85.3531 29.7225 85.3421L30.0825 85.3234C30.3394 85.3078 30.6094 85.289 30.885 85.2687L31.2056 85.2453C31.5937 85.2124 31.9931 85.175 32.4 85.1296C32.46 85.1218 32.5219 85.1125 32.5875 85.1062C32.9306 85.0656 33.2738 85.0203 33.6206 84.9671C33.7538 84.9484 33.8869 84.9234 34.02 84.9015C34.2994 84.8562 34.5825 84.8062 34.8469 84.7453C34.995 84.7156 35.1394 84.6859 35.2838 84.6531C35.5481 84.5953 35.805 84.5296 36.0581 84.4624C36.1519 84.4374 36.2456 84.4187 36.3431 84.3921V85.6062C33.5527 86.6199 30.5121 87.0634 27.4744 86.9C24.4068 87.0682 21.3358 86.6179 18.5213 85.5875L18.51 84.3921ZM35.6231 81.2671C35.5669 81.2875 35.52 81.3062 35.4581 81.3265L35.2444 81.3921C35.0756 81.4406 34.8881 81.4906 34.6819 81.5406C34.6031 81.5593 34.5319 81.5796 34.4494 81.5984C33.7605 81.7537 33.062 81.8773 32.3569 81.9687C32.2388 81.9859 32.1094 81.9984 31.9819 82.014C31.6856 82.0499 31.3781 82.0828 31.0556 82.1124C30.8981 82.1281 30.7369 82.1406 30.5738 82.1546C30.2419 82.1796 29.8931 82.2015 29.5369 82.2203C29.3775 82.2281 29.2238 82.2375 29.0588 82.2437C28.5319 82.264 27.9863 82.2781 27.4125 82.2781C26.8388 82.2781 26.2875 82.264 25.7644 82.2437C25.6013 82.2437 25.4456 82.2281 25.2863 82.2203C24.93 82.2015 24.5831 82.1796 24.2513 82.1546C24.0863 82.1406 23.925 82.1281 23.7675 82.1124C23.4469 82.0828 23.1394 82.0499 22.8431 82.014L22.4681 81.9687C21.763 81.8773 21.0645 81.7537 20.3756 81.5984C20.2931 81.5796 20.22 81.5593 20.1431 81.5406C19.9425 81.4906 19.755 81.4406 19.5806 81.3921L19.3669 81.3265C19.305 81.3062 19.2581 81.2875 19.2019 81.2671C21.8435 80.5316 24.6213 80.1941 27.405 80.2703C30.1901 80.1914 32.9699 80.5269 35.6137 81.2609L35.6231 81.2671ZM27.465 92.0812C24.4104 92.2479 21.3498 91.8399 18.51 90.8874V89.0125C21.4196 89.7107 24.4354 90.0534 27.4631 90.0296C30.4626 90.051 33.4499 89.71 36.3319 89.0171V90.7968C33.5331 91.7934 30.4935 92.2311 27.4556 92.075L27.465 92.0812ZM72.6938 70.0515C72.6938 69.9953 72.6619 69.9484 72.6563 69.8953V60.1453C72.6573 59.926 72.6181 59.7078 72.54 59.4984C71.3925 56.1859 61.8881 56.0171 59.9944 56.0171C58.1006 56.0171 48.5963 56.1859 47.4713 59.4421C47.3806 59.6689 47.3344 59.9063 47.3344 60.1453V91.0718C47.3347 91.1492 47.3416 91.2265 47.355 91.3031L47.3831 91.4593C47.6063 94.7046 55.3781 95.1953 60.0375 95.1953C62.9831 95.1953 72.5644 94.9031 72.6413 91.1671C72.6413 91.0984 72.6563 91.0109 72.6563 90.875V75.5578C72.6563 75.4812 72.6938 75.4125 72.6938 75.3328C72.6938 75.2765 72.6619 75.2296 72.6563 75.1765V70.2765C72.6638 70.2 72.6938 70.1312 72.6938 70.0515ZM52.14 63.5281L52.5825 63.6203C52.8525 63.675 53.1244 63.7234 53.4 63.7687L53.8088 63.8374C54.15 63.8874 54.4875 63.9328 54.825 63.9734L55.0256 63.9984C55.4306 64.0437 55.8281 64.0812 56.2144 64.114L56.5444 64.1375C56.8181 64.1578 57.0825 64.1765 57.3375 64.1921L57.7125 64.2109C57.9413 64.2218 58.155 64.2328 58.3613 64.239L58.6763 64.2499L59.2275 64.264H59.4525H60.0038H60.555H60.7781L61.3406 64.2499L61.6519 64.239C61.8581 64.239 62.0756 64.2218 62.3044 64.2109L62.6663 64.1921C62.9231 64.1765 63.1894 64.1578 63.465 64.1375L63.7894 64.114C64.1775 64.0812 64.575 64.0437 64.9819 63.9984L65.1694 63.9734C65.5088 63.9328 65.85 63.889 66.1912 63.8374L66.5981 63.7703C66.8738 63.7234 67.1475 63.675 67.4194 63.614L67.86 63.5218C68.1225 63.4625 68.3775 63.3984 68.6306 63.3312C68.7244 63.3062 68.8181 63.2875 68.9175 63.2609V64.4734C66.1286 65.4896 63.088 65.9338 60.0506 65.7687C56.983 65.938 53.9117 65.4877 51.0975 64.4562V63.2609C51.1894 63.2875 51.285 63.3062 51.3825 63.3312C51.6225 63.4046 51.8775 63.4687 52.14 63.5281ZM60.0375 68.9062C63.0364 68.9276 66.0232 68.586 68.9044 67.8921V69.7671C66.1132 70.7768 63.0741 71.2191 60.0375 71.0578C56.9699 71.2263 53.8988 70.7761 51.0844 69.7453V67.8828C53.9936 68.5832 57.0094 68.928 60.0375 68.9062V68.9062ZM51.0844 83.7312C56.911 85.0832 63.0702 85.0832 68.8969 83.7312V85.6062C66.1074 86.6206 63.0671 87.0642 60.03 86.9C56.9624 87.0685 53.8913 86.6182 51.0769 85.5875L51.0844 83.7312ZM68.8969 80.3296C66.1075 81.3445 63.0672 81.7881 60.03 81.6234C56.9624 81.7926 53.891 81.3424 51.0769 80.3109V78.4515C56.9034 79.7998 63.0598 79.8046 68.8894 78.4656L68.8969 80.3296ZM68.8969 75.0531C66.1053 76.0614 63.0664 76.5032 60.03 76.3421C56.9624 76.5114 53.891 76.0611 51.0769 75.0296V73.1703C56.903 74.5206 63.0601 74.5254 68.8894 73.1843L68.8969 75.0531ZM68.1919 60.1437C68.1375 60.1625 68.0925 60.1812 68.0344 60.2L67.8038 60.2703C67.6388 60.3187 67.4569 60.3671 67.2638 60.414C67.1813 60.4343 67.1044 60.4562 67.0181 60.4749C66.3305 60.6301 65.6332 60.7537 64.9294 60.8453C64.8113 60.8625 64.6819 60.875 64.5544 60.8906C64.2581 60.926 63.9456 60.9588 63.6169 60.989C63.4613 61.0046 63.3 61.0171 63.1369 61.0312C62.8031 61.0562 62.4563 61.0781 62.0981 61.0953C61.9388 61.1046 61.785 61.114 61.6219 61.1203C61.095 61.1406 60.5494 61.1546 59.9738 61.1546C59.3981 61.1546 58.8488 61.1406 58.3275 61.1203C58.1625 61.1203 58.0088 61.1046 57.8494 61.0953C57.4913 61.0781 57.1444 61.0562 56.8106 61.0312C56.6475 61.0171 56.4881 61.0046 56.3306 60.989C56.0081 60.9588 55.6988 60.926 55.4025 60.8906C55.2788 60.875 55.1494 60.8625 55.0275 60.8453C54.3237 60.7537 53.6264 60.6301 52.9388 60.4749C52.8525 60.4562 52.7756 60.4343 52.6931 60.414C52.5056 60.3671 52.3181 60.3187 52.1531 60.2703L51.9244 60.2C51.8644 60.1812 51.8194 60.1625 51.7669 60.1437C54.4175 59.403 57.2058 59.0633 60 59.1406C62.7824 59.065 65.5588 59.4025 68.1994 60.1374L68.1919 60.1437ZM60.0375 92.075C54.7106 92.075 51.8231 91.3609 51.0844 90.9562V89.0062C56.911 90.3582 63.0702 90.3582 68.8969 89.0062V90.8125C66.1072 91.8171 63.0693 92.25 60.0375 92.075V92.075ZM105.118 37.6328C103.971 34.3203 94.4663 34.1531 92.5744 34.1531C90.6825 34.1531 81.1763 34.3203 80.0494 37.5781C79.9596 37.805 79.9134 38.0423 79.9125 38.2812V90.0953C79.9125 93.689 88.7963 94.0828 92.6175 94.0828C95.5744 94.0828 105.227 93.789 105.227 90.0062V38.2875C105.232 38.0658 105.195 37.8449 105.118 37.6328V37.6328ZM101.484 47.9C98.6938 48.913 95.6532 49.356 92.6156 49.1921C89.548 49.3614 86.4767 48.9111 83.6625 47.8796V45.9875C86.5741 46.6932 89.5928 47.0448 92.625 47.0312C95.6245 47.0519 98.6118 46.7104 101.494 46.0171L101.484 47.9ZM92.625 52.3171C95.6243 52.3399 98.6117 51.9999 101.494 51.3078V53.1828C98.7036 54.1971 95.6628 54.6407 92.625 54.4765C89.5574 54.6458 86.486 54.1955 83.6719 53.164V51.3046C86.5817 52.0015 89.5976 52.3426 92.625 52.3171V52.3171ZM92.625 57.5984C95.6244 57.6198 98.6118 57.2788 101.494 56.5859V58.4609C98.7036 59.4752 95.6628 59.9188 92.625 59.7546C89.5574 59.9239 86.486 59.4736 83.6719 58.4421V56.5812C86.5815 57.2795 89.5973 57.6221 92.625 57.5984ZM92.625 62.8796C95.6244 62.9011 98.6118 62.56 101.494 61.8671V63.7421C98.7042 64.7583 95.663 65.2025 92.625 65.0375C89.5574 65.206 86.4863 64.7557 83.6719 63.725V61.8625C86.5815 62.5607 89.5973 62.9034 92.625 62.8796V62.8796ZM92.625 68.1609C95.6245 68.1817 98.6118 67.8401 101.494 67.1468V68.9781C98.7043 69.9944 95.663 70.4386 92.625 70.2734C89.5574 70.4426 86.486 69.9924 83.6719 68.9609V67.1437C86.5815 67.842 89.5973 68.1846 92.625 68.1609V68.1609ZM92.625 73.3984C95.6246 73.4199 98.612 73.0783 101.494 72.3843V74.0343C98.7036 75.0486 95.6628 75.4922 92.625 75.3281C89.5574 75.4973 86.486 75.0471 83.6719 74.0156V72.3812C86.5815 73.0795 89.5973 73.4221 92.625 73.3984V73.3984ZM92.625 78.4531C95.6244 78.4745 98.6118 78.1335 101.494 77.4406V79.0906C98.7036 80.1049 95.6628 80.5485 92.625 80.3843C89.5574 80.5528 86.4863 80.1026 83.6719 79.0718V77.4375C86.5817 78.1346 89.5974 78.4767 92.625 78.4531V78.4531ZM83.6625 82.5C86.5721 83.1982 89.5879 83.5409 92.6156 83.5171C95.6152 83.5388 98.6026 83.1972 101.484 82.5031V84.1531C98.6943 85.1678 95.6534 85.6114 92.6156 85.4468C89.548 85.6161 86.4767 85.1658 83.6625 84.1343V82.5ZM101.484 41.4062V42.6203C98.6942 43.6346 95.6534 44.0782 92.6156 43.914C89.5435 44.087 86.4677 43.6238 83.6625 42.5656V41.4062C83.7544 41.4328 83.85 41.4515 83.9494 41.4765C84.2025 41.5437 84.4575 41.6078 84.7181 41.6656C84.8663 41.6984 85.0125 41.7296 85.1606 41.7593C85.4325 41.814 85.7044 41.8625 85.98 41.9078C86.1169 41.9312 86.25 41.9546 86.3888 41.975C86.7288 42.027 87.0675 42.0723 87.405 42.1109L87.6038 42.1375C88.0106 42.1828 88.4063 42.2203 88.7925 42.2531L89.1244 42.2765C89.3963 42.2968 89.6625 42.3156 89.9175 42.3312L90.2813 42.35L90.9319 42.3781L91.245 42.389L91.8075 42.4031H92.0325H92.5838H93.1331H93.3581L93.9206 42.389L94.2338 42.3781L94.875 42.3437L95.2388 42.325C95.4938 42.3093 95.76 42.2906 96.0319 42.2703L96.3638 42.2468C96.75 42.214 97.1475 42.1765 97.5525 42.1312L97.7513 42.1046C98.0888 42.0661 98.4281 42.0208 98.7694 41.9687C98.9063 41.9484 99.0394 41.925 99.1763 41.9015C99.4519 41.8562 99.7238 41.8078 99.9956 41.7531C100.146 41.7234 100.29 41.6921 100.438 41.6593C100.701 41.6015 100.954 41.5375 101.207 41.4703C101.291 41.45 101.393 41.4312 101.484 41.4062V41.4062ZM100.778 38.2812C100.719 38.3015 100.673 38.3203 100.611 38.3406L100.399 38.4046C100.23 38.4546 100.041 38.5046 99.8363 38.5609L99.6038 38.6187C98.9155 38.7738 98.2176 38.8975 97.5131 38.989L97.1381 39.0343C96.8438 39.0703 96.5363 39.1031 96.2138 39.1328L95.73 39.1734C95.4 39.2 95.0513 39.2218 94.695 39.239C94.5356 39.2484 94.3819 39.2578 94.2169 39.264C93.69 39.2843 93.1444 39.2984 92.5706 39.2984C91.9969 39.2984 91.4456 39.2843 90.9225 39.264C90.7594 39.264 90.6038 39.2484 90.4444 39.239C90.0881 39.2218 89.7413 39.2 89.4094 39.1734L88.9256 39.1328C88.6031 39.1031 88.2975 39.0703 88.0013 39.0343L87.6263 38.989C86.9218 38.8975 86.2239 38.7738 85.5356 38.6187L85.3031 38.5609C85.1025 38.5109 84.915 38.4609 84.7406 38.4046L84.5269 38.3406C84.465 38.3203 84.4181 38.3015 84.36 38.2812C87.0024 37.5459 89.7807 37.2083 92.565 37.2843C95.3518 37.2074 98.1328 37.5449 100.778 38.2812V38.2812ZM92.625 90.9578C89.5713 91.1233 86.5117 90.7181 83.67 89.7718V87.5484C89.4998 88.9005 95.662 88.9005 101.492 87.5484V89.6953C98.7001 90.7014 95.6593 91.1344 92.625 90.9578V90.9578Z" fill="#FFB157"/>
<path d="M69.9188 30.8438C69.9204 30.9044 69.9009 30.9641 69.8625 31.0156H69.8438C69.8625 30.9688 69.9 30.9062 69.9188 30.8438Z" fill="#4C7489"/>
<path d="M80.9812 17.4843C79.9445 16.3396 78.6446 15.3784 77.1573 14.6567C75.67 13.9351 74.0252 13.4675 72.3187 13.2812C71.5799 13.1938 70.8325 13.1676 70.0875 13.2031L66.8812 11.9843C64.1437 10.9531 60.9 9.74997 58.5187 8.8906L57.1875 8.40622C55.345 7.69133 53.2973 7.42588 51.2812 7.6406C47.8615 8.16575 44.5639 9.14152 41.5125 10.5312L40.2187 11.0468C38.7375 11.6562 37.2187 12.2187 35.7187 12.7812C34.7437 13.1406 33.7687 13.5156 32.8125 13.8906L32.5875 13.9687C30.4273 14.9259 28.0878 15.5705 25.6687 15.875C22.425 16.0625 7.14374 16.0781 6.99374 16.0781C6.49646 16.0781 6.01955 16.2427 5.66792 16.5357C5.31629 16.8288 5.11874 17.2262 5.11874 17.6406V33.0468C5.11852 33.4533 5.30833 33.8437 5.64788 34.1355C5.98744 34.4272 6.45003 34.5972 6.93749 34.6093C9.09374 34.6718 11.5312 34.7187 13.9687 34.7812C16.4812 34.8281 18.975 34.8906 21.2062 34.9531L22.0687 34.9687C22.8744 34.935 23.6818 34.9928 24.4687 35.1406C25.3125 35.3281 26.1562 35.5625 26.9812 35.7812C27.5062 35.9218 28.0312 36.0625 28.5562 36.1875C31.3312 36.8906 34.1062 37.5781 36.9 38.2656C37.5 38.4062 38.1187 38.5312 38.7187 38.6719C39.9562 38.9531 41.1187 39.2031 42.2812 39.5312L42.6562 39.6406C44.2501 40.1824 45.9431 40.4942 47.6625 40.5625C48.1086 40.5617 48.5538 40.5303 48.9937 40.4687C50.4903 40.2661 51.9129 39.7855 53.1562 39.0625C55.2636 38.0479 57.5199 37.2653 59.8687 36.7344C60.6375 36.5156 61.3875 36.3125 62.0812 36.1094C63.1428 35.82 64.177 35.4648 65.175 35.0469C65.3437 34.9844 65.5125 34.9062 65.6812 34.8437C65.9753 34.7217 66.2574 34.5806 66.525 34.4219H66.5437C67.8528 34.7736 69.2183 34.958 70.5937 34.9687C73.7567 34.9643 76.811 34.0063 79.1924 32.2716C81.5739 30.537 83.1217 28.1428 83.55 25.5312C83.7829 24.115 83.6757 22.6744 83.2347 21.293C82.7937 19.9116 82.0277 18.6169 80.9812 17.4843V17.4843ZM66.4125 29.5156C66.4155 29.5579 66.4092 29.6003 66.3937 29.6406C66.3937 29.6875 66.375 29.7187 66.375 29.75V29.8125C66.3562 29.875 66.3375 29.9219 66.3187 29.9844C66.3187 30 66.3 30.0312 66.3 30.0468C66.241 30.198 66.1657 30.3445 66.075 30.4844C65.8002 30.8495 65.4513 31.1721 65.0437 31.4375C65.025 31.4531 64.9875 31.4687 64.9687 31.4843C64.6484 31.7091 64.3031 31.9079 63.9375 32.0781C63.8437 32.1094 63.75 32.1562 63.6562 32.1875C63.6 32.2031 63.525 32.2343 63.4687 32.25C62.6238 32.6093 61.7461 32.9123 60.8437 33.1562C60.15 33.3646 59.4375 33.5677 58.7062 33.7656C55.9742 34.3754 53.3604 35.3066 50.9437 36.5312C50.1775 36.9774 49.2987 37.2713 48.375 37.3906C46.8354 37.4569 45.299 37.2158 43.8937 36.6875L43.4812 36.5781C42.2062 36.2031 40.9312 35.9218 39.675 35.6562C39.0937 35.5156 38.5125 35.3906 37.9312 35.25C35.175 34.5781 32.4 33.9062 29.6437 33.2031C29.1375 33.0781 28.65 32.9375 28.1437 32.8125C27.2437 32.5625 26.3625 32.3281 25.4625 32.125C24.3638 31.9069 23.235 31.8123 22.1062 31.8437L21.3187 31.8281C19.0875 31.7656 16.575 31.7031 14.0625 31.6562C12.3 31.6094 10.5375 31.5781 8.86874 31.5312V19.2031C13.125 19.1875 23.2312 19.1562 25.9312 18.9843C28.8064 18.6674 31.5924 17.9323 34.1625 16.8125L34.3875 16.7187C35.3437 16.3437 36.3 15.9843 37.2562 15.625C38.8125 15.0468 40.35 14.4687 41.85 13.8593L43.125 13.3437C45.8316 12.1029 48.7544 11.2225 51.7875 10.7343C53.1076 10.5967 54.4475 10.7756 55.65 11.25L57 11.75C59.1187 12.5156 61.9125 13.5468 64.425 14.4843C64.0748 14.6324 63.7365 14.7995 63.4125 14.9843C63.1312 15.125 62.8687 15.2968 62.6062 15.4531L62.5687 15.4843C62.4 15.5937 62.25 15.7031 62.1 15.8125C61.95 15.9218 61.8375 16 61.7062 16.1093C61.6125 16.1875 61.5 16.25 61.425 16.3281L61.1437 16.5625C60.959 16.7164 60.7838 16.8781 60.6187 17.0468C60.3425 17.3001 60.0916 17.5719 59.8687 17.8593C59.7393 18.0043 59.6203 18.1556 59.5125 18.3125C59.3133 18.5639 59.1317 18.8248 58.9687 19.0937C55.045 18.7406 51.076 19.0868 47.325 20.1093C45.7783 20.5552 44.3872 21.3119 43.275 22.3125C42.619 22.9087 42.1412 23.6257 41.8805 24.405C41.6198 25.1842 41.5837 26.0037 41.775 26.7968C42.0415 27.5651 42.5241 28.2693 43.1829 28.8509C43.8416 29.4325 44.6574 29.8746 45.5625 30.1406L46.05 30.2968C46.9971 30.6858 48.0744 30.7959 49.1062 30.6094C52.5031 30.0087 55.8531 29.2364 59.1375 28.2969C59.2932 28.2638 59.4441 28.2167 59.5875 28.1562C59.7937 28.1094 60 28.0312 60.225 27.9687C60.2625 27.9531 60.3 27.9531 60.3375 27.9375C60.4992 27.8976 60.6562 27.8453 60.8062 27.7812H60.825C60.9801 27.7538 61.1311 27.7118 61.275 27.6562L61.725 27.5156L61.9312 27.4687C62.0625 27.4375 62.1937 27.3906 62.325 27.3594C62.4562 27.3281 62.5875 27.2969 62.7187 27.2656C63.0152 27.1855 63.326 27.1485 63.6375 27.1562C64.2471 27.1719 64.835 27.3482 65.3168 27.6599C65.7985 27.9715 66.1493 28.4024 66.3187 28.8906C66.3775 29.0848 66.409 29.2841 66.4125 29.4844V29.5156ZM57.6187 25.4375C54.6515 26.2601 51.6349 26.9538 48.5812 27.5156C48.2094 27.5998 47.8129 27.5606 47.475 27.4062L46.8937 27.2187C46.5604 27.1316 46.2553 26.9821 46.0018 26.7817C45.7484 26.5813 45.5532 26.3353 45.4312 26.0625C45.3775 25.7581 45.4088 25.4475 45.5226 25.1548C45.6364 24.8621 45.8297 24.5952 46.0875 24.375C46.7999 23.7632 47.6821 23.3071 48.6562 23.0468C51.5782 22.2432 54.6663 21.9454 57.7312 22.1718C57.6893 22.3212 57.658 22.4725 57.6375 22.625C57.472 23.557 57.4657 24.5039 57.6187 25.4375ZM79.8375 25.1093C79.501 27.1281 78.2294 28.9568 76.2949 30.2038C74.3604 31.4509 71.9168 32.0171 69.4875 31.7812C69.5812 31.6094 69.675 31.4375 69.75 31.2656C69.7656 31.223 69.7844 31.1813 69.8062 31.1406C69.8254 31.1005 69.838 31.0585 69.8437 31.0156C69.8625 30.9687 69.9 30.9062 69.9187 30.8437C69.9571 30.7922 69.9767 30.7325 69.975 30.6718C70.0312 30.5 70.0687 30.3125 70.1062 30.125C70.1288 29.9956 70.1413 29.8651 70.1437 29.7344C70.1601 29.6781 70.1665 29.6202 70.1625 29.5625C70.1655 29.2644 70.1404 28.9666 70.0875 28.6719C70.05 28.4844 69.9937 28.2812 69.9375 28.0781C69.8823 27.8906 69.807 27.7075 69.7125 27.5312C69.6769 27.435 69.6331 27.341 69.5812 27.25C69.4863 27.0785 69.3799 26.9116 69.2625 26.75C69.2625 26.7344 69.2437 26.7344 69.2437 26.7187C69.084 26.5018 68.9087 26.2931 68.7187 26.0937L68.6812 26.0625C68.4747 25.8407 68.2423 25.6366 67.9875 25.4531C67.8334 25.3353 67.6706 25.2257 67.5 25.125C67.2171 24.9347 66.9088 24.7721 66.5812 24.6406C66.4768 24.5814 66.3633 24.5341 66.2437 24.5C66.1285 24.4517 66.0095 24.41 65.8875 24.375C65.7404 24.3263 65.5902 24.2846 65.4375 24.25C65.0646 24.1561 64.6815 24.0933 64.2937 24.0625C64.0875 24.0468 63.9 24.0312 63.6937 24.0312H63.6562C62.9851 24.0317 62.317 24.1052 61.6687 24.25C61.5348 24.2794 61.4033 24.3159 61.275 24.3593C61.2532 23.9209 61.2783 23.4816 61.35 23.0468C61.4377 22.4461 61.6205 21.8576 61.8937 21.2968C62.0062 21.0625 62.1375 20.8281 62.2687 20.5937C62.4254 20.3301 62.6007 20.0744 62.7937 19.8281C62.9625 19.6093 63.15 19.4062 63.3187 19.2187C63.3677 19.1811 63.4117 19.1392 63.45 19.0937C63.6375 18.9062 63.825 18.7343 64.0312 18.5625C64.417 18.2503 64.8307 17.963 65.2687 17.7031C65.4937 17.5781 65.7375 17.4531 65.9625 17.3437C66 17.3281 66.0562 17.2968 66.0937 17.2812C66.3487 17.1644 66.6117 17.0601 66.8812 16.9687L67.275 16.8281C67.4586 16.7667 67.6464 16.7145 67.8375 16.6718C68.1072 16.5981 68.3829 16.5406 68.6625 16.5C68.7728 16.4717 68.8857 16.4508 69 16.4375C69.0793 16.4183 69.1612 16.4078 69.2437 16.4062C69.4423 16.3767 69.6426 16.3559 69.8437 16.3437H69.8812C70.525 16.2977 71.173 16.3134 71.8125 16.3906C74.2638 16.6605 76.4862 17.7305 77.991 19.3655C79.4959 21.0004 80.16 23.0664 79.8375 25.1093V25.1093Z" fill="#FFB157"/>
<path d="M69.8437 31.0156C69.838 31.0585 69.8254 31.1005 69.8062 31.1406C69.8281 31.1 69.8469 31.0582 69.8625 31.0156C69.9009 30.9641 69.9204 30.9044 69.9187 30.8438C69.9 30.9062 69.8625 30.9688 69.8437 31.0156ZM69.8437 31.0156C69.838 31.0585 69.8254 31.1005 69.8062 31.1406C69.8281 31.1 69.8469 31.0582 69.8625 31.0156C69.9009 30.9641 69.9204 30.9044 69.9187 30.8438C69.9 30.9062 69.8625 30.9688 69.8437 31.0156Z" fill="#FFB157"/>
<path d="M74.0812 23.9531C74.7512 24.7008 75.0409 25.6382 74.8875 26.5625C74.7812 27.2141 74.4553 27.8273 73.9474 28.3307C73.4396 28.8341 72.7708 29.207 72.0188 29.4063L71.9625 29.6875C71.8993 30.0603 71.6766 30.4015 71.3356 30.6483C70.9946 30.8952 70.558 31.0312 70.1063 31.0313C70.0246 31.0333 69.9429 31.028 69.8625 31.0156L69.8648 31.0218C69.9207 30.851 69.9207 30.851 69.9766 30.6802C70.0313 30.5 70.0688 30.3125 70.1063 30.125C70.1288 29.9956 70.1413 29.8651 70.1438 29.7344C70.1601 29.6782 70.1665 29.6203 70.1625 29.5625C70.1655 29.2645 70.1405 28.9667 70.0875 28.6719C70.05 28.4844 69.9938 28.2813 69.9375 28.0781C69.8823 27.8906 69.807 27.7076 69.7125 27.5313C69.677 27.435 69.6331 27.341 69.5813 27.25C69.4863 27.0785 69.3799 26.9116 69.2625 26.75C69.2625 26.7344 69.2438 26.7344 69.2438 26.7188C69.084 26.5018 68.9087 26.2931 68.7188 26.0938L68.6813 26.0625C68.4747 25.8408 68.2423 25.6367 67.9875 25.4531C68.4172 25.3317 68.8854 25.3457 69.3035 25.4925C69.7216 25.6394 70.0606 25.9089 70.2563 26.25C70.2943 26.3081 70.348 26.358 70.413 26.396C70.4781 26.4339 70.5528 26.4588 70.6312 26.4688H70.6688C70.7883 26.4708 70.9049 26.4373 70.9976 26.3744C71.0904 26.3114 71.1532 26.223 71.175 26.125C71.1837 26.0728 71.1799 26.0197 71.1638 25.9687C71.1477 25.9178 71.1197 25.87 71.0813 25.8281C71.0447 25.7845 70.9973 25.748 70.9423 25.7211C70.8873 25.6941 70.826 25.6773 70.7625 25.6719C69.9332 25.5745 69.1571 25.2742 68.5327 24.8091C67.9082 24.344 67.4635 23.7349 67.2547 23.059C67.0459 22.3831 67.0825 21.6707 67.3598 21.0121C67.6371 20.3536 68.1427 19.7784 68.8125 19.3594C69.1855 19.1247 69.6041 18.945 70.05 18.8281L70.0875 18.5625C70.1645 18.1552 70.4287 17.7888 70.8241 17.5409C71.2196 17.293 71.7153 17.1831 72.2062 17.2344C72.4518 17.263 72.6881 17.332 72.9015 17.4373C73.1149 17.5426 73.3011 17.6821 73.4493 17.8478C73.5975 18.0135 73.7048 18.202 73.765 18.4024C73.8252 18.6029 73.8371 18.8113 73.8 19.0156L73.7625 19.2813C74.3076 19.5971 74.757 20.0143 75.075 20.5C75.1956 20.6801 75.2718 20.8784 75.2994 21.0834C75.3269 21.2884 75.3051 21.4958 75.2352 21.6937C75.1654 21.8915 75.0489 22.0758 74.8927 22.2357C74.7364 22.3956 74.5434 22.528 74.325 22.625C73.8861 22.8187 73.3738 22.8617 72.8974 22.7449C72.421 22.6282 72.0182 22.3608 71.775 22C71.7464 21.9422 71.7003 21.8917 71.6411 21.8533C71.5819 21.815 71.5117 21.7901 71.4375 21.7813H71.4188C71.2924 21.7691 71.1653 21.797 71.0625 21.8594C70.9689 21.9299 70.9034 22.0226 70.875 22.125C70.8663 22.1772 70.8701 22.2303 70.8862 22.2813C70.9023 22.3322 70.9303 22.38 70.9688 22.4219C71.0463 22.5068 71.1608 22.563 71.2875 22.5781C72.4004 22.7104 73.4049 23.2049 74.0812 23.9531V23.9531Z" fill="#4C7489"/>
</svg>
