<svg width="50" height="50" viewBox="0 0 50 50" fill="none" xmlns="http://www.w3.org/2000/svg">
<path d="M22.6559 40.2083L8.90592 26.4583C8.69759 26.25 8.54967 26.0243 8.46217 25.7812C8.37606 25.5382 8.33301 25.2777 8.33301 25C8.33301 24.7222 8.37606 24.4618 8.46217 24.2187C8.54967 23.9757 8.69759 23.75 8.90592 23.5416L22.6559 9.79163C23.0379 9.40969 23.515 9.20969 24.0872 9.19164C24.6608 9.17497 25.1559 9.37497 25.5726 9.79163C25.9893 10.1736 26.2066 10.6507 26.2247 11.2229C26.2413 11.7965 26.0413 12.2916 25.6247 12.7083L15.4163 22.9166H38.6976C39.2879 22.9166 39.783 23.1159 40.183 23.5146C40.5816 23.9146 40.7809 24.4097 40.7809 25C40.7809 25.5902 40.5816 26.0847 40.183 26.4833C39.783 26.8833 39.2879 27.0833 38.6976 27.0833H15.4163L25.6247 37.2916C26.0066 37.6736 26.2066 38.1597 26.2247 38.75C26.2413 39.3402 26.0413 39.8264 25.6247 40.2083C25.2427 40.625 24.7566 40.8333 24.1663 40.8333C23.5761 40.8333 23.0726 40.625 22.6559 40.2083V40.2083Z" fill="#509E82"/>
</svg>
