<svg width="50" height="50" viewBox="0 0 50 50" fill="none" xmlns="http://www.w3.org/2000/svg">
<path d="M22.6562 40.2083L8.90617 26.4583C8.69784 26.25 8.54992 26.0243 8.46242 25.7812C8.37631 25.5382 8.33325 25.2777 8.33325 25C8.33325 24.7222 8.37631 24.4618 8.46242 24.2187C8.54992 23.9757 8.69784 23.75 8.90617 23.5416L22.6562 9.79163C23.0381 9.40969 23.5152 9.20969 24.0874 9.19164C24.661 9.17497 25.1562 9.37497 25.5728 9.79163C25.9895 10.1736 26.2069 10.6507 26.2249 11.2229C26.2416 11.7965 26.0416 12.2916 25.6249 12.7083L15.4166 22.9166H38.6978C39.2881 22.9166 39.7833 23.1159 40.1833 23.5146C40.5819 23.9146 40.7812 24.4097 40.7812 25C40.7812 25.5902 40.5819 26.0847 40.1833 26.4833C39.7833 26.8833 39.2881 27.0833 38.6978 27.0833H15.4166L25.6249 37.2916C26.0069 37.6736 26.2069 38.1597 26.2249 38.75C26.2416 39.3402 26.0416 39.8264 25.6249 40.2083C25.243 40.625 24.7569 40.8333 24.1666 40.8333C23.5763 40.8333 23.0728 40.625 22.6562 40.2083Z" fill="#509E82"/>
</svg>
