<svg width="50" height="50" viewBox="0 0 50 50" fill="none" xmlns="http://www.w3.org/2000/svg">
<g clip-path="url(#clip0_3_1885)">
<path d="M33.3335 8.33337C36.6487 8.33337 39.8281 9.65033 42.1723 11.9945C44.5165 14.3387 45.8335 17.5182 45.8335 20.8334C45.8335 24.1486 44.5165 27.328 42.1723 29.6722C39.8281 32.0164 36.6487 33.3334 33.3335 33.3334C30.0183 33.3334 26.8389 32.0164 24.4947 29.6722C22.1505 27.328 20.8335 24.1486 20.8335 20.8334C20.8335 17.5182 22.1505 14.3387 24.4947 11.9945C26.8389 9.65033 30.0183 8.33337 33.3335 8.33337ZM33.3335 39.5834C47.146 39.5834 58.3335 45.1771 58.3335 52.0834V58.3334H8.3335V52.0834C8.3335 45.1771 19.521 39.5834 33.3335 39.5834Z" fill="white"/>
</g>
<defs>
<clipPath id="clip0_3_1885">
<rect width="50" height="50" fill="white"/>
</clipPath>
</defs>
</svg>
