<svg width="100" height="100" viewBox="0 0 100 100" fill="none" xmlns="http://www.w3.org/2000/svg">
<path d="M88.9875 62.0375L50 38.0438L11.0125 62.0375C9.54065 62.9406 7.61565 62.4844 6.71565 61.0125C5.8094 59.5438 6.26878 57.6188 7.74065 56.7157L48.3657 31.7156C49.3688 31.0969 50.6375 31.0969 51.6407 31.7156L92.2657 56.7157C93.7375 57.6219 94.1938 59.5438 93.2907 61.0125C92.3782 62.4907 90.4469 62.9375 88.9875 62.0375Z" fill="#2D267E"/>
<path d="M57.8125 68.75H42.1875C41.325 68.75 40.625 69.45 40.625 70.3125V93.75H18.75V62.7781L50 43.55L81.25 62.7813V93.75H59.375V70.3125C59.375 69.45 58.675 68.75 57.8125 68.75ZM87.5 6.25V25.7187C87.5 26.6062 86.4281 27.05 85.8 26.4219L79.325 19.9469L68.3875 30.8844C67.1188 32.1563 65.1531 32.3906 63.6156 31.4719L50.025 23.3187L6.25 50.2594V41.0875L47.9531 15.425C49.1938 14.6594 50.7562 14.65 52.0125 15.4031L65.0219 23.2094L73.8031 14.4281L67.3281 7.95313C66.6969 7.32188 67.1438 6.25 68.0313 6.25H87.5Z" fill="#2D267E"/>
</svg>
