<svg width="3" height="6" viewBox="0 0 3 6" fill="none" xmlns="http://www.w3.org/2000/svg">
<path d="M1.41894 0.946685C1.35047 0.946685 1.1907 1.09119 1.06027 1.48528C0.903763 1.91879 0.83529 2.50337 0.851593 3.12079C0.8842 4.54611 1.33743 5.2719 1.52328 5.2719C1.59828 5.26862 1.75479 5.12412 1.89174 4.73002C2.03846 4.29651 2.11672 3.71193 2.10368 3.09123C2.06781 1.6692 1.61458 0.946685 1.42546 0.946685H1.41894ZM0.287503 3.13721C0.2712 2.45082 0.355977 1.80056 0.52553 1.30137C0.78638 0.549304 1.14831 0.385096 1.4059 0.375244C1.41242 0.375244 1.41894 0.375244 1.42546 0.375244C2.19171 0.375244 2.62864 1.7316 2.65798 3.07809C2.67755 3.76448 2.59277 4.41803 2.41996 4.91721C2.16563 5.666 1.8037 5.83021 1.53633 5.83678C1.53306 5.83678 1.53307 5.83678 1.52328 5.83678C0.753775 5.83678 0.320109 4.48371 0.287503 3.13721Z" fill="#265173"/>
</svg>
