<svg width="374" height="386" viewBox="0 0 374 386" fill="none" xmlns="http://www.w3.org/2000/svg">
<path d="M18.9429 186.57C20.8569 191.328 22.9763 196.156 25.2424 200.931L25.5848 201.647L21.8742 203.46L21.522 202.737C19.22 197.877 17.0647 192.967 15.1149 188.136L18.9429 186.57ZM41.4641 230.551L37.9621 232.754C35.008 227.989 32.1647 223.139 29.5171 218.334L33.1299 216.317C35.7384 221.06 38.5458 225.848 41.4641 230.551ZM8.88056 155.252C10.1163 160.457 11.6097 165.791 13.3248 171.098L9.399 172.379C7.6513 166.97 6.12532 161.531 4.86672 156.221L8.88056 155.252ZM60.1997 257.707L56.9195 260.236C53.5447 255.793 50.2482 251.248 47.1245 246.722L50.5123 244.348C53.5969 248.821 56.8575 253.313 60.1997 257.707ZM4.27654 122.765C4.495 128.102 5.00366 133.6 5.79926 139.107L1.71368 139.705C0.898525 134.059 0.373563 128.414 0.15184 122.929L4.27654 122.765ZM81.2862 283.068L78.2342 285.869C74.5008 281.747 70.8228 277.514 67.3046 273.287L70.4674 270.614C73.9498 274.798 77.5886 278.985 81.2862 283.068ZM104.463 306.487L101.678 309.554C97.6154 305.81 93.5853 301.912 89.6921 297.974L92.6169 295.042C96.4644 298.933 100.449 302.782 104.463 306.487ZM6.75136 90.1734C5.6884 95.428 4.94171 100.883 4.53087 106.381L0.415952 106.065C0.836573 100.4 1.60934 94.7712 2.70818 89.3458L6.75136 90.1734ZM129.681 327.647L127.193 330.967C122.823 327.647 118.448 324.146 114.179 320.566L116.821 317.37C121.037 320.907 125.36 324.366 129.681 327.647ZM156.829 346.192L154.693 349.752C150.03 346.915 145.322 343.873 140.701 340.717L143.023 337.276C147.581 340.389 152.228 343.394 156.829 346.192ZM185.783 361.654L184.068 365.437C179.115 363.158 174.097 360.662 169.157 358.022L171.091 354.347C175.962 356.948 180.902 359.411 185.783 361.654ZM216.368 373.372L215.174 377.349C209.961 375.759 204.656 373.933 199.416 371.917L200.886 368.032C206.038 370.012 211.249 371.812 216.368 373.372ZM248.263 380.331L247.745 384.456C242.355 383.769 236.818 382.804 231.301 381.585L232.182 377.523C237.581 378.712 242.994 379.658 248.263 380.331ZM92.9267 0.460449L93.0962 4.61817C87.5368 4.84806 82.1079 5.42279 76.9626 6.32921L76.2518 2.23717C81.5764 1.29791 87.1847 0.700192 92.9267 0.460449ZM280.752 381.02L281.143 385.162C275.744 385.681 270.113 385.871 264.413 385.736L264.511 381.579C270.048 381.713 275.516 381.523 280.752 381.02ZM126.237 2.65754L125.575 6.76272C120.078 5.86615 114.623 5.22246 109.37 4.8612L109.654 0.713328C115.03 1.08444 120.613 1.73798 126.237 2.65754ZM312.126 373.405L313.704 377.25C308.65 379.349 303.267 381.096 297.701 382.433L296.742 378.387C302.096 377.102 307.271 375.424 312.126 373.405ZM158.599 10.6085L157.334 14.5658C152.058 12.8581 146.763 11.3408 141.588 10.06L142.573 6.02379C147.842 7.32431 153.232 8.86786 158.599 10.6085ZM341.964 358.981C337.872 362.853 333.398 366.367 328.654 369.424L326.43 365.92C330.959 363.004 335.231 359.647 339.14 355.953L341.964 358.981ZM189.562 22.832L187.831 26.6088C182.835 24.2836 177.765 22.0997 172.757 20.116L174.266 16.2473C179.35 18.2605 184.495 20.4773 189.562 22.832ZM218.937 38.4908L216.814 42.0574C212.129 39.2363 207.326 36.5039 202.526 33.9423L204.46 30.2706C209.318 32.8618 214.186 35.6271 218.937 38.4908ZM361.789 331.699C359.304 336.842 356.389 341.736 353.125 346.248L349.79 343.795C352.91 339.486 355.701 334.803 358.078 329.88L361.789 331.699ZM246.551 57.1021L244.09 60.4388C239.714 57.1579 235.201 53.9526 230.682 50.9049L232.974 47.4533C237.552 50.5338 242.123 53.7818 246.551 57.1021ZM371.567 299.419C370.697 305.107 369.458 310.654 367.886 315.909L363.937 314.71C365.45 309.636 366.647 304.283 367.488 298.785L371.567 299.419ZM272.2 78.3669L269.421 81.4376C265.388 77.7429 261.214 74.1008 257.015 70.6229L259.636 67.411C263.888 70.9316 268.114 74.6197 272.2 78.3669ZM372.78 265.783C373.178 271.501 373.286 277.169 373.103 282.618L368.978 282.476C369.154 277.169 369.053 271.649 368.662 266.072L372.78 265.783ZM295.617 102.108L292.552 104.893C290.449 102.535 288.301 100.203 286.113 97.8846C284.515 96.1932 282.904 94.5249 281.274 92.8664L284.205 89.9435C285.855 91.6151 287.489 93.3098 289.103 95.0175C291.317 97.3657 293.488 99.7303 295.617 102.108ZM316.71 127.951L313.401 130.44C310.16 126.063 306.752 121.685 303.273 117.422L306.459 114.785C309.981 119.09 313.427 123.524 316.71 127.951ZM367.55 232.62C368.877 238.124 369.996 243.668 370.86 249.083L366.787 249.743C365.936 244.433 364.844 239.004 363.536 233.602L367.55 232.62ZM335.267 155.722L331.735 157.873C328.931 153.19 325.961 148.5 322.906 143.928L326.329 141.606C329.424 146.234 332.43 150.986 335.267 155.722ZM357.439 200.678C359.483 205.926 361.365 211.24 363.028 216.472L359.095 217.743C357.459 212.593 355.61 207.368 353.595 202.199L357.439 200.678ZM349.418 182.129C349.92 183.18 350.406 184.228 350.892 185.279L347.148 187.026C344.873 182.1 342.411 177.115 339.832 172.241L343.477 170.287C345.541 174.188 347.54 178.175 349.418 182.129Z" fill="#7FB8DB"/>
</svg>
