<svg width="92" height="93" viewBox="0 0 92 93" fill="none" xmlns="http://www.w3.org/2000/svg">
<path d="M46.3088 2.93767C39.2038 2.93767 32.1641 4.7341 25.757 8.27441C15.6947 13.8213 8.3876 22.9841 5.16609 34.0681C1.94784 45.1586 3.21297 56.8469 8.71366 66.9818C14.2209 77.1166 23.318 84.4797 34.3259 87.7211C45.3273 90.9626 56.9352 89.6949 66.9942 84.1447C77.0565 78.5978 84.3669 69.435 87.5851 58.3477C90.8034 47.2605 89.5382 35.5722 84.031 25.4373C78.5303 15.3025 69.4332 7.93943 58.4253 4.69469C54.431 3.51897 50.3585 2.93767 46.3088 2.93767ZM46.4425 92.1383C42.1449 92.1383 37.8246 91.5209 33.5825 90.2729C21.8997 86.8344 12.2449 79.0116 6.39535 68.256C0.555553 57.5004 -0.781306 45.0962 2.63258 33.3259C6.04972 21.5555 13.81 11.8279 24.4951 5.94267C35.1672 0.0509117 47.4859 -1.2923 59.1687 2.1462C70.845 5.58798 80.5063 13.4042 86.3461 24.1631C92.1891 34.9187 93.5325 47.3229 90.1186 59.0933C86.695 70.8636 78.9412 80.588 68.2593 86.4797C61.4577 90.2302 53.9876 92.1383 46.4425 92.1383Z" fill="#5AA5D1"/>
</svg>
