<svg width="89" height="90" viewBox="0 0 89 90" fill="none" xmlns="http://www.w3.org/2000/svg">
<path d="M10.0609 21.2134C3.8168 30.5831 1.56696 41.8444 3.73202 52.9153C5.89382 63.9894 12.2097 73.5528 21.509 79.8387C30.8148 86.1344 41.9923 88.3906 52.9806 86.2198C63.9722 84.0424 73.4607 77.681 79.7048 68.3113C92.5973 48.9677 87.4618 22.6683 68.26 9.68282C61.0996 4.84199 52.9839 2.52667 44.9464 2.52667C31.4311 2.52667 18.144 9.08182 10.0609 21.2134ZM20.3058 81.645C10.5239 75.0307 3.88527 64.9779 1.60935 53.3357C-0.660055 41.6934 1.7039 29.854 8.27082 19.9983C21.8188 -0.337105 49.2668 -5.77893 69.4631 7.87654C89.653 21.5287 95.0493 49.1845 81.4981 69.5232C74.9345 79.3756 64.9537 86.0621 53.3947 88.3512C50.5286 88.9193 47.6528 89.1985 44.7932 89.1985C36.1297 89.1985 27.6585 86.6204 20.3058 81.645Z" fill="#7FB8DB"/>
</svg>
