<svg width="24" height="42" viewBox="0 0 24 42" fill="none" xmlns="http://www.w3.org/2000/svg">
<path d="M15.8187 2.50386C14.3416 4.65826 11.8375 15.0985 10.4615 24.3237C13.3178 17.473 16.6306 8.40547 16.0567 3.78468C15.9785 3.16069 15.8904 2.75674 15.8187 2.50386ZM11.6484 41.4472C10.318 41.4472 9.15071 40.2847 8.57683 39.0728C8.00622 37.8708 7.93775 36.5506 7.91166 35.3059C7.9084 34.833 7.91166 34.3009 7.93775 33.7164C7.54647 34.3404 7.08672 34.9085 6.50633 35.3847C5.2249 36.4291 3.15766 36.8757 1.68059 35.7033C0.37634 34.672 0.193744 32.9282 0.177441 31.5226C0.131792 26.4617 1.77189 16.0115 4.94123 14.9081C5.40424 14.7471 5.90311 14.8522 6.30743 15.2036C6.8487 15.6733 7.14542 16.5206 7.01173 17.2135C6.93021 17.6438 6.53894 17.9262 6.08897 17.8474C5.66183 17.7653 5.38141 17.3482 5.46293 16.918C5.49227 16.7669 5.36837 16.4648 5.26729 16.3991C3.73805 17.0034 1.6969 25.3319 1.75885 31.5094C1.76863 32.5571 1.87949 33.8412 2.65878 34.4586C3.44134 35.0793 4.72603 34.7903 5.5151 34.1466C6.43134 33.4011 6.98565 32.2681 7.56604 30.9741C7.77146 30.5078 8.00948 29.979 8.27033 29.3977C9.40504 18.5338 13.0309 0.828946 15.8611 0.625329C17.2143 0.549794 17.5012 2.59253 17.6218 3.58763C18.3359 9.33816 13.9601 20.4156 9.76044 29.9232C9.56481 31.9429 9.46699 33.7755 9.49307 35.2763C9.50938 36.347 9.56481 37.4734 9.99847 38.3864C10.3963 39.2206 11.2016 40.0022 11.8212 39.838C14.1264 39.2928 15.7078 32.961 16.7675 27.7885C16.9762 26.0413 17.3186 24.3073 17.7881 22.6061C17.9022 22.1956 18.3163 21.9427 18.7337 22.0445C19.1445 22.1463 19.4054 22.5568 19.3206 22.9772C19.1772 23.68 19.0304 24.4419 18.8739 25.24C18.7011 26.1628 18.512 27.1152 18.3196 28.0709C18.2968 28.2942 18.2707 28.511 18.2479 28.7343C19.0533 26.4026 19.5554 23.9559 19.7184 21.5026C19.7445 21.1052 20.064 20.7867 20.4651 20.7637C20.8336 20.721 21.2151 21.0297 21.2803 21.4271C21.4596 22.478 22.2976 23.4107 23.3182 23.6932C23.7388 23.8081 23.9833 24.2449 23.8692 24.6685C23.7551 25.0922 23.3149 25.3418 22.9008 25.2236C22.1867 25.0298 21.5379 24.639 21.0129 24.1267C20.5173 27.3123 19.4934 30.4355 18.0033 33.2763C17.837 33.5981 17.4751 33.7591 17.1262 33.6802C17.0903 33.6704 17.0545 33.6605 17.0219 33.6441C15.91 37.6146 14.4264 40.8528 12.1798 41.3848C12.0005 41.4308 11.8212 41.4472 11.6484 41.4472Z" fill="#4C8DB5"/>
</svg>
