<svg width="439" height="308" viewBox="0 0 439 308" fill="none" xmlns="http://www.w3.org/2000/svg">
<path d="M298.465 5.56426C293.378 5.25555 288.135 5.09791 282.886 5.09791H282.1L282.074 0.94347L282.872 0.940186C288.22 0.940186 293.548 1.09782 298.716 1.4131L298.465 5.56426ZM249.36 7.0684L248.9 2.93038C254.44 2.29982 260.012 1.81048 265.457 1.47879L265.702 5.62994C260.332 5.95507 254.831 6.44113 249.36 7.0684ZM330.853 9.93217C325.655 8.80571 320.239 7.86316 314.745 7.13408L315.286 3.01248C320.885 3.75798 326.415 4.71695 331.713 5.86312L330.853 9.93217ZM216.962 12.3789L216.108 8.30981C221.546 7.15379 227.041 6.11928 232.437 5.23256L233.105 9.33446C227.765 10.2146 222.339 11.2393 216.962 12.3789ZM361.93 19.7583C357.058 17.6532 351.91 15.7451 346.637 14.0932L347.87 10.1227C353.273 11.8173 358.552 13.7746 363.557 15.9356L361.93 19.7583ZM185.155 20.6056L183.955 16.6253C189.263 15.0095 194.64 13.4922 199.945 12.1194L200.975 16.1458C195.722 17.5054 190.401 19.0063 185.155 20.6056ZM154.182 31.5681L152.636 27.7125C157.742 25.637 162.972 23.6533 168.176 21.8142L169.543 25.7388C164.397 27.5582 159.233 29.5188 154.182 31.5681ZM390.049 36.0641C385.807 32.8292 381.243 29.8012 376.495 27.059L378.552 23.453C383.45 26.2774 388.152 29.4071 392.541 32.7471L390.049 36.0641ZM124.357 45.3615L122.456 41.6701C127.314 39.1315 132.336 36.6618 137.383 34.3268L139.105 38.1101C134.122 40.4123 129.156 42.8524 124.357 45.3615ZM96.0349 62.0384L93.772 58.5605C98.3206 55.5489 103.075 52.5801 107.897 49.7426L109.974 53.3354C105.22 56.1335 100.528 59.063 96.0349 62.0384ZM69.6988 81.6842L67.0511 78.492C71.2313 74.9746 75.6299 71.4935 80.1263 68.1371L82.5848 71.4803C78.1503 74.7875 73.8137 78.2161 69.6988 81.6842ZM46.0168 104.43L42.9681 101.622C46.6396 97.5728 50.5621 93.5432 54.6281 89.6449L57.4747 92.6565C53.4739 96.4858 49.6198 100.45 46.0168 104.43ZM26.0226 130.414L22.5533 128.165C25.4944 123.56 28.7452 118.946 32.2145 114.457L35.4752 117.008C32.0808 121.406 28.8985 125.915 26.0226 130.414ZM433.23 153.081L429.435 151.443C431.623 146.293 433.445 141.107 434.857 136.04L438.829 137.16C437.374 142.405 435.49 147.761 433.23 153.081ZM11.3954 159.646L7.51849 158.218C9.38032 153.081 11.6367 147.883 14.2191 142.759L17.9004 144.641C15.3897 149.62 13.2018 154.668 11.3954 159.646ZM416.894 182.412L413.5 180.038C416.679 175.423 419.604 170.744 422.193 166.129L425.789 168.172C423.138 172.905 420.142 177.693 416.894 182.412ZM4.68174 191.447L0.560303 191.22C0.85702 185.719 1.61349 180.074 2.81666 174.442L6.85333 175.315C5.6958 180.734 4.96542 186.163 4.68174 191.447ZM395.814 208.39L392.818 205.536C396.623 201.48 400.265 197.319 403.64 193.168L406.832 195.802C403.395 200.032 399.688 204.265 395.814 208.39ZM4.73065 224.784C3.02534 219.395 1.80913 213.812 1.11787 208.183L5.21649 207.674C5.87514 213.047 7.03266 218.377 8.65972 223.523L4.73065 224.784ZM371.516 231.261L368.881 228.058C373.114 224.521 377.261 220.853 381.19 217.158L384.008 220.2C380.013 223.95 375.807 227.671 371.516 231.261ZM344.815 251.202L342.536 247.734C347.091 244.696 351.603 241.507 355.969 238.252L358.428 241.589C354.01 244.89 349.435 248.125 344.815 251.202ZM20.6099 254.571C17.0754 250.095 13.9517 245.333 11.3171 240.42L14.956 238.446C17.4667 243.143 20.4599 247.698 23.8412 251.983L20.6099 254.571ZM316.239 268.276L314.315 264.595C319.14 262.033 323.953 259.317 328.632 256.522L330.742 260.099C326.004 262.933 321.123 265.678 316.239 268.276ZM45.3027 277.38C40.5878 274.135 36.1501 270.618 32.1232 266.923L34.9013 263.849C38.788 267.416 43.0692 270.811 47.6275 273.951L45.3027 277.38ZM286.133 282.414L284.575 278.562C289.632 276.493 294.689 274.266 299.619 271.951L301.364 275.721C296.378 278.066 291.252 280.319 286.133 282.414ZM74.9027 292.993C69.6075 290.887 64.4883 288.539 59.6854 286.02L61.5961 282.336C66.2686 284.785 71.2574 287.068 76.4222 289.124L74.9027 292.993ZM254.766 293.459L253.599 289.472C256.618 288.572 259.631 287.626 262.653 286.641C264.851 285.919 267.045 285.173 269.233 284.408L270.59 288.332C268.379 289.111 266.162 289.863 263.928 290.595C260.873 291.594 257.821 292.552 254.766 293.459ZM222.525 301.482L221.729 297.4C227.041 296.342 232.437 295.131 237.758 293.81L238.743 297.847C233.363 299.186 227.911 300.408 222.525 301.482ZM106.86 302.54C101.356 301.374 95.9143 299.998 90.6875 298.448L91.8548 294.457C96.9772 295.978 102.308 297.328 107.711 298.471L106.86 302.54ZM189.651 306.369L189.25 302.231C194.653 301.702 200.134 301.026 205.543 300.218L206.147 304.333C200.669 305.147 195.119 305.834 189.651 306.369ZM139.825 307.128C134.243 306.724 128.674 306.142 123.271 305.397L123.832 301.275C129.147 302.008 134.628 302.582 140.125 302.976L139.825 307.128ZM159.901 307.84C158.743 307.84 157.592 307.834 156.445 307.82L156.494 303.663C161.887 303.722 167.413 303.633 172.891 303.39L173.064 307.545C168.682 307.738 164.251 307.837 159.901 307.84Z" fill="#7FB8DB"/>
</svg>
