<svg width="315" height="4" viewBox="0 0 315 4" fill="none" xmlns="http://www.w3.org/2000/svg">
<path d="M0.37207 1.77682C13.4831 1.46812 26.5908 1.33347 39.6986 1.10686L79.0251 0.725899C105.241 0.499293 131.459 0.522283 157.675 0.404053C183.89 0.51243 210.112 0.502577 236.331 0.719331L275.661 1.10358C288.769 1.33018 301.87 1.46483 314.981 1.77682C301.87 2.08553 288.769 2.22018 275.661 2.44679L236.331 2.83103C210.112 3.05107 183.89 3.03794 157.675 3.1496C131.459 3.03465 105.241 3.05107 79.0251 2.82775L39.6986 2.44351C26.5908 2.2169 13.4831 2.08225 0.37207 1.77682Z" fill="#B5D6EA"/>
</svg>
